<?xml version="1.0" encoding="UTF-8" standalone="no"?>
<!-- Created with Inkscape (http://www.inkscape.org/) -->

<svg
   width="6.9405971mm"
   height="9.870368mm"
   viewBox="0 0 6.9405971 9.870368"
   version="1.1"
   id="svg1"
   inkscape:version="1.4 (86a8ad7, 2024-10-11)"
   sodipodi:docname="logos.svg"
   xmlns:inkscape="http://www.inkscape.org/namespaces/inkscape"
   xmlns:sodipodi="http://sodipodi.sourceforge.net/DTD/sodipodi-0.dtd"
   xmlns="http://www.w3.org/2000/svg"
   xmlns:svg="http://www.w3.org/2000/svg">
  <sodipodi:namedview
     id="namedview1"
     pagecolor="#505050"
     bordercolor="#eeeeee"
     borderopacity="1"
     inkscape:showpageshadow="0"
     inkscape:pageopacity="0"
     inkscape:pagecheckerboard="0"
     inkscape:deskcolor="#505050"
     inkscape:document-units="mm"
     inkscape:zoom="4"
     inkscape:cx="1064.5"
     inkscape:cy="224"
     inkscape:window-width="1920"
     inkscape:window-height="991"
     inkscape:window-x="-9"
     inkscape:window-y="-9"
     inkscape:window-maximized="1"
     inkscape:current-layer="layer1"
     showguides="false">
    <inkscape:page
       x="0"
       y="0"
       width="6.9405971"
       height="9.870368"
       id="page2"
       margin="0"
       bleed="0" />
  </sodipodi:namedview>
  <defs
     id="defs1" />
  <g
     inkscape:label="Camada 1"
     inkscape:groupmode="layer"
     id="layer1"
     transform="translate(-276.00647,-61.492723)">
    <path
       id="path5"
       style="fill:#ffffff;fill-rule:evenodd"
       d="m 279.53074,61.493404 c -0.53254,-0.01059 -1.07347,0.101567 -1.57871,0.347783 -0.073,0.03532 -0.14521,0.07353 -0.21653,0.114721 -0.92742,0.53544 -1.51324,1.437069 -1.68,2.41794 -0.11723,0.689348 -0.0266,1.417256 0.29714,2.084111 -0.0825,0.175124 -0.15174,0.357855 -0.20567,0.54622 -0.0775,0.287193 -0.11937,0.588904 -0.11937,0.900203 0,1.825586 1.42173,3.323322 3.21582,3.449402 0.081,0.0057 0.16252,0.0093 0.24495,0.0093 1.07088,0 2.02906,-0.488139 2.66392,-1.254187 0.49628,-0.598837 0.79478,-1.367387 0.79478,-2.204517 0,-0.02478 -10e-4,-0.04923 -0.002,-0.0739 -0.003,-0.02518 -0.005,-0.0503 -0.008,-0.07545 -0.0548,-0.449362 -0.18688,-0.873224 -0.37879,-1.258837 0.0264,-0.05297 0.0524,-0.106026 0.076,-0.160197 0.29924,-0.704694 0.3653,-1.510831 0.17415,-2.276347 -0.0765,-0.287486 -0.19111,-0.569626 -0.34675,-0.839225 -0.62759,-1.086934 -1.75949,-1.70373 -2.93109,-1.727027 z m 0.0284,0.35295 c 0.86191,0.01152 1.73317,0.428162 2.30219,1.178223 0.35277,0.465077 0.55335,1.001014 0.61288,1.544608 0.0635,0.501519 -0.002,1.007969 -0.18087,1.472779 -0.0861,-0.126334 -0.17955,-0.246081 -0.27905,-0.360185 0.23775,-0.808195 0.10448,-1.735251 -0.46147,-2.462899 -0.83562,-1.074336 -2.3835,-1.346881 -3.40909,-0.517281 -0.70624,0.571311 -0.97768,1.550004 -0.71727,2.425692 -0.10059,0.07631 -0.19695,0.158563 -0.28887,0.245463 -0.38557,-1.063735 -0.0738,-2.302126 0.80822,-2.993616 0.0999,-0.07827 0.20413,-0.146565 0.3116,-0.207222 0.4012,-0.226234 0.85026,-0.331596 1.30173,-0.325562 z m -0.0677,0.805119 c 0.64151,-0.02168 1.30475,0.274295 1.73529,0.827856 0.42149,0.541926 0.55378,1.222216 0.43305,1.845883 -0.0995,-0.0873 -0.20337,-0.16927 -0.31109,-0.244947 0.0539,-0.490358 -0.0758,-1.007669 -0.41651,-1.425752 -0.58692,-0.720276 -1.65091,-0.896038 -2.34146,-0.301791 -0.39272,0.337976 -0.57143,0.87272 -0.49093,1.383895 -0.10249,0.04506 -0.20269,0.09386 -0.29972,0.148311 -0.14765,-0.673858 0.0774,-1.40383 0.61495,-1.838647 0.31443,-0.254348 0.69151,-0.381802 1.07642,-0.394808 z m 0.15658,0.778764 c 0.35832,0.01717 0.71927,0.191581 0.96531,0.49351 0.21619,0.265284 0.31906,0.586578 0.32246,0.905888 -0.10258,-0.05302 -0.20792,-0.100671 -0.31522,-0.143144 -0.0273,-0.222602 -0.11922,-0.440686 -0.28577,-0.622184 -0.35007,-0.38144 -0.96039,-0.466382 -1.3286,-0.08682 -0.13748,0.141653 -0.21605,0.338439 -0.22066,0.538985 -0.094,0.01946 -0.18645,0.04388 -0.27751,0.0708 -0.0229,-0.335443 0.10589,-0.677162 0.36329,-0.898653 0.22092,-0.190117 0.498,-0.271736 0.7767,-0.258382 z m -3.07733,0.622184 c -0.0647,0.553407 0.0153,1.129302 0.25114,1.659847 -0.072,0.08837 -0.13952,0.180789 -0.20309,0.275952 -0.23337,-0.636598 -0.24039,-1.315995 -0.048,-1.935799 z m 3.05097,0.115239 c 0.14766,0.0011 0.30177,0.06732 0.41031,0.185518 0.0514,0.05602 0.0907,0.119268 0.11886,0.186035 -0.10022,-0.02346 -0.20168,-0.04284 -0.30438,-0.05684 -0.0368,-0.03939 -0.0816,-0.0725 -0.13435,-0.09302 -0.12215,-0.0475 -0.16752,-0.02583 -0.25064,0.01292 -0.0231,0.01075 -0.0503,0.02599 -0.076,0.05064 -0.006,4e-5 -0.011,-6.7e-5 -0.0165,0 h -5.1e-4 c -0.0484,6.13e-4 -0.0971,0.0029 -0.14573,0.0057 0.0155,-0.06257 0.0461,-0.122202 0.0909,-0.168465 0.0824,-0.08485 0.19315,-0.123325 0.30799,-0.122473 z m 0.32815,0.740006 c 0.081,0.01235 0.16101,0.02892 0.23978,0.04754 -0.0293,0.14749 -0.10189,0.286119 -0.21394,0.388607 -1.9e-4,1.66e-4 -3.4e-4,3.52e-4 -5.2e-4,5.17e-4 -0.30106,-0.06949 -0.61742,-0.08568 -0.93948,-0.03772 -0.0482,0.0072 -0.0963,0.01588 -0.14366,0.02584 -0.0498,-0.03906 -0.0965,-0.0829 -0.13849,-0.132291 -0.0533,-0.06261 -0.097,-0.130088 -0.13281,-0.200505 0.09,-0.02676 0.18214,-0.04823 0.27543,-0.06666 0.0353,0.05761 0.0788,0.112171 0.1323,0.161231 0.12012,0.110214 0.27066,0.169462 0.42684,0.172082 0.15621,0.003 0.32595,-0.06445 0.42892,-0.214974 0.0308,-0.04509 0.0523,-0.09291 0.0656,-0.14366 z m 0.6506,0.176217 c 0.0991,0.03907 0.19573,0.08236 0.28939,0.131258 -0.0374,0.149322 -0.0964,0.292842 -0.17777,0.42323 -0.0937,-0.05454 -0.19007,-0.103882 -0.28938,-0.146761 0.0852,-0.122682 0.14524,-0.261678 0.17776,-0.407727 z m -2.37401,0.06459 c 0.0544,0.114728 0.12247,0.225516 0.20877,0.327629 -0.10086,0.0426 -0.19825,0.09188 -0.29249,0.146761 -0.0799,-0.102867 -0.14622,-0.212417 -0.20102,-0.325562 0.0919,-0.05457 0.18687,-0.104032 0.28474,-0.148828 z m 3.04374,0.303341 c 0.10073,0.07337 0.19655,0.152736 0.28732,0.237711 -0.0574,0.15449 -0.13102,0.302759 -0.22117,0.4408 -0.0835,-0.08696 -0.17181,-0.169025 -0.26459,-0.244429 0.0847,-0.135403 0.15051,-0.281727 0.19844,-0.434082 z m -3.67729,0.0863 c 0.0584,0.111755 0.12656,0.220213 0.20515,0.324012 -0.0908,0.07436 -0.17667,0.154584 -0.25735,0.240295 -0.004,-0.0052 -0.008,-0.01024 -0.0124,-0.0155 -0.0758,-0.09882 -0.14268,-0.201373 -0.20257,-0.306958 0.0842,-0.08572 0.1733,-0.166601 0.26717,-0.241846 z m 1.23868,0.262 c 0.38432,0.212816 0.85054,0.237069 1.22731,0.02325 0.12382,0.0397 0.24384,0.09046 0.35916,0.150896 -0.11692,0.09577 -0.24523,0.168656 -0.37983,0.221175 -0.29209,-0.10776 -0.61131,-0.144011 -0.93792,-0.08837 -0.0819,0.01395 -0.16127,0.03552 -0.23927,0.06046 -0.139,-0.05711 -0.27163,-0.13255 -0.39429,-0.225826 0.11638,-0.05825 0.23849,-0.105471 0.36484,-0.141593 z m 3.04839,0.242362 c 0.0896,0.115202 0.17042,0.23716 0.24288,0.364836 -0.0822,0.149937 -0.17596,0.294025 -0.2837,0.429431 -0.0637,-0.124054 -0.13538,-0.242898 -0.21446,-0.355534 0.0995,-0.137866 0.18477,-0.284669 0.25528,-0.438733 z m -4.84053,0.07545 c 0.0495,0.07801 0.10241,0.154758 0.15968,0.229443 0.0235,0.03063 0.0479,0.05989 0.0724,0.0894 -0.0779,0.113839 -0.14826,0.233545 -0.20878,0.358634 -0.0491,-0.06427 -0.0965,-0.130408 -0.14107,-0.199471 -0.0271,-0.04292 -0.0545,-0.08626 -0.0801,-0.130741 -0.004,-0.0063 -0.007,-0.01278 -0.0103,-0.01912 0.0626,-0.113965 0.13201,-0.223732 0.20826,-0.328145 z m 1.05213,0.06253 c 0.0928,0.08268 0.19191,0.154779 0.29508,0.219624 -0.10097,0.06918 -0.19503,0.148245 -0.28112,0.235645 -0.0949,-0.06577 -0.1863,-0.138284 -0.27286,-0.217558 0.0802,-0.08585 0.16678,-0.165356 0.2589,-0.237711 z m 2.70681,0.04237 c 0.0935,0.07461 0.18253,0.155724 0.2651,0.243913 -0.0554,0.0555 -0.11403,0.108721 -0.17621,0.15813 -0.0312,0.02483 -0.0629,0.04854 -0.0951,0.07131 -0.0872,-0.09082 -0.18183,-0.173003 -0.28267,-0.245979 0.0654,-0.0413 0.12899,-0.0862 0.19017,-0.136943 0.0346,-0.02866 0.0667,-0.05948 0.0987,-0.09043 z m -1.92649,0.40566 c 0.3758,0.122504 0.77659,0.14029 1.15083,0.03721 0.1356,0.0643 0.26204,0.148179 0.37621,0.249081 -0.12202,0.05183 -0.24801,0.09143 -0.37621,0.119889 -0.25175,-0.157864 -0.55417,-0.225318 -0.86558,-0.15658 -0.10537,0.02326 -0.2057,0.06262 -0.29869,0.114722 -0.12302,-0.03522 -0.24405,-0.07979 -0.36173,-0.133842 0.11259,-0.0952 0.23872,-0.173529 0.37517,-0.230477 z m -1.29863,0.123507 c 0.0861,0.07783 0.17565,0.150467 0.26872,0.217041 -0.0795,0.12676 -0.14544,0.26265 -0.19431,0.406177 -0.0958,-0.07191 -0.18789,-0.149686 -0.27543,-0.233578 0.0549,-0.136427 0.12228,-0.266962 0.20102,-0.38964 z m 3.76256,0.06356 c 0.0733,0.112103 0.13863,0.2304 0.1943,0.3545 -0.0889,0.08245 -0.18499,0.158972 -0.28525,0.231511 -0.0502,-0.125924 -0.11104,-0.245604 -0.1819,-0.358118 0.0312,-0.02255 0.0626,-0.04506 0.093,-0.06925 0.063,-0.05006 0.12268,-0.103365 0.17983,-0.158647 z m 1.00304,0.06098 c 0.0989,0.275322 0.15953,0.568958 0.17467,0.874882 0.002,0.05071 0.004,0.101622 0.004,0.152962 0,0.88096 -0.37402,1.672247 -0.97203,2.225187 0.47149,-0.63328 0.71535,-1.450814 0.60358,-2.301668 -0.0249,-0.18953 -0.0679,-0.372999 -0.12558,-0.54932 0.11548,-0.127049 0.22107,-0.261103 0.31523,-0.402043 z m -5.71386,0.01964 c 0.088,0.109983 0.18049,0.214548 0.27801,0.312643 -0.10795,0.361917 -0.14353,0.752475 -0.0884,1.15135 0.18648,1.3482 1.39041,2.35799 2.69337,2.152324 1.17793,-0.185929 2.05976,-1.353624 1.87327,-2.615344 -0.003,-0.02194 -0.007,-0.04339 -0.0114,-0.06511 0.0753,-0.04767 0.14963,-0.09769 0.2222,-0.151928 0.0304,-0.02366 0.0589,-0.04886 0.0884,-0.07338 0.0227,0.09189 0.0412,0.185528 0.0537,0.28112 0.19093,1.453382 -0.84392,2.807346 -2.21536,3.002401 -0.12556,0.01786 -0.25019,0.02502 -0.37362,0.02377 -1.33981,-0.0136 -2.5155,-1.117039 -2.69493,-2.540414 -0.065,-0.51574 0.003,-1.019713 0.17467,-1.477429 z m 1.57974,0.295073 c 0.0929,0.0484 0.18815,0.09158 0.28474,0.129707 -0.0922,0.125532 -0.15982,0.269598 -0.19534,0.424781 -0.095,-0.03985 -0.18824,-0.08432 -0.27905,-0.133842 0.0411,-0.150403 0.10584,-0.29166 0.18965,-0.420646 z m 2.49443,0.07131 c 0.0742,0.113376 0.137,0.23575 0.18396,0.366386 -0.0963,0.05109 -0.19394,0.09664 -0.293,0.136426 -0.0459,-0.13688 -0.11134,-0.264197 -0.19327,-0.377755 0.10284,-0.03489 0.20363,-0.07655 0.30231,-0.125057 z m -1.75752,0.197404 c 0.3241,0.07095 0.65685,0.08518 0.98134,0.03979 0.11754,0.10367 0.21075,0.239831 0.26613,0.394808 -0.0891,0.02201 -0.17886,0.04008 -0.26872,0.05374 -0.0535,-0.132523 -0.14638,-0.241147 -0.26562,-0.312642 -0.13397,-0.08034 -0.31459,-0.107223 -0.47904,-0.02842 -0.10577,0.05068 -0.18328,0.132856 -0.23151,0.246496 -0.0101,0.02382 -0.0178,0.05081 -0.0233,0.07906 -0.076,-0.01394 -0.15116,-0.03097 -0.22583,-0.05064 0.0297,-0.164532 0.11978,-0.314625 0.2465,-0.422196 z m -1.6862,0.06201 c 0.0992,0.07807 0.20176,0.151275 0.30696,0.218591 -0.0237,0.179061 -0.0231,0.364328 0.007,0.552421 0.14817,0.917235 0.98175,1.601836 1.87689,1.432471 0.7075,-0.133865 1.24903,-0.802413 1.21698,-1.557528 0.10634,-0.03549 0.21116,-0.07628 0.31419,-0.12299 0.10092,0.980618 -0.60366,1.886468 -1.53169,2.032951 -1.06526,0.168146 -2.06474,-0.6693 -2.21847,-1.78077 -0.0367,-0.265006 -0.0249,-0.526516 0.0279,-0.775146 z m 0.709,0.442867 c 0.10052,0.04854 0.20284,0.09243 0.30644,0.131775 0.004,0.04657 0.0107,0.09341 0.0212,0.14056 0.1124,0.505371 0.59817,0.884123 1.10691,0.739489 0.29027,-0.08253 0.52663,-0.345244 0.56792,-0.656807 0.0932,-0.01025 0.18595,-0.02396 0.27802,-0.04186 -0.0234,0.492429 -0.39631,0.925283 -0.87282,1.015442 -0.65459,0.123852 -1.28069,-0.390788 -1.39112,-1.074353 -0.0138,-0.08557 -0.0181,-0.170354 -0.0165,-0.254248 z m 0.76791,0.273885 c 0.0959,0.023 0.19241,0.0421 0.28939,0.05736 0.066,0.06972 0.11521,0.0778 0.19534,0.08475 0.0441,0.0039 0.10583,0.004 0.17363,-0.04496 0.0454,0.0025 0.0905,0.0039 0.13591,0.0046 -0.0423,0.09848 -0.13124,0.180869 -0.23668,0.21084 -0.22729,0.06462 -0.46091,-0.08727 -0.55759,-0.312642 z" />
  </g>
</svg>
