<?xml version="1.0" encoding="UTF-8" standalone="no"?>
<!-- Created with Inkscape (http://www.inkscape.org/) -->

<svg
   width="6.4945645mm"
   height="6.494545mm"
   viewBox="0 0 6.4945645 6.494545"
   version="1.1"
   id="svg1"
   inkscape:version="1.4 (86a8ad7, 2024-10-11)"
   sodipodi:docname="logos.svg"
   xmlns:inkscape="http://www.inkscape.org/namespaces/inkscape"
   xmlns:sodipodi="http://sodipodi.sourceforge.net/DTD/sodipodi-0.dtd"
   xmlns="http://www.w3.org/2000/svg"
   xmlns:svg="http://www.w3.org/2000/svg">
  <sodipodi:namedview
     id="namedview1"
     pagecolor="#505050"
     bordercolor="#eeeeee"
     borderopacity="1"
     inkscape:showpageshadow="0"
     inkscape:pageopacity="0"
     inkscape:pagecheckerboard="0"
     inkscape:deskcolor="#505050"
     inkscape:document-units="mm"
     inkscape:zoom="0.98016825"
     inkscape:cx="309.64072"
     inkscape:cy="265.26058"
     inkscape:window-width="1920"
     inkscape:window-height="991"
     inkscape:window-x="-9"
     inkscape:window-y="-9"
     inkscape:window-maximized="1"
     inkscape:current-layer="layer1">
    <inkscape:page
       x="0"
       y="0"
       width="6.4945645"
       height="6.494545"
       id="page2"
       margin="0"
       bleed="0" />
  </sodipodi:namedview>
  <defs
     id="defs1" />
  <g
     inkscape:label="Camada 1"
     inkscape:groupmode="layer"
     id="layer1"
     transform="translate(-240.71662,-43.10957)">
    <rect
       style="opacity:1;fill:#ffffff;stroke:none;stroke-width:0.42889;stroke-linejoin:round;stroke-dasharray:none;paint-order:stroke fill markers"
       id="rect47"
       width="8.3175907"
       height="0.42888957"
       x="232.44904"
       y="-49.603691"
       transform="scale(1,-1)" />
    <path
       d="m 240.76663,43.159577 v 2.372527 0.03893 3.653342 0.329739 h 0.32974 3.9644 0.0779 2.02253 v -0.329738 h -0.63763 -1.42383 c -0.91902,0 -1.698,-0.409159 -2.08649,-0.993188 1.17865,-0.05241 2.08609,-1.250999 2.08609,-2.67962 0,-0.111541 -0.006,-0.221435 -0.0167,-0.329738 -0.11216,5.7e-4 -0.22251,0.0068 -0.33133,0.01827 -1.30139,0.136876 -2.3332,1.028858 -2.3332,2.148067 0,0.150937 0.0188,0.2976 0.0544,0.438989 -0.78015,-0.260526 -1.37616,-1.166457 -1.37616,-2.275592 v -1.423437 -0.968557 z m 4.00215,2.412254 c -0.009,1.309494 -0.84742,2.331211 -1.83581,2.331211 -0.0301,0 -0.0603,-9.23e-4 -0.0902,-0.0028 -0.0612,-0.163379 -0.0941,-0.335261 -0.0941,-0.512087 0,-0.908419 0.86383,-1.68898 2.02014,-1.816343 z m -3.67241,1.403573 c 0.32707,0.647112 0.87173,1.112729 1.51799,1.229169 0.21367,0.425994 0.58917,0.780893 1.06191,1.019806 h -2.5799 z"
       style="opacity:1;fill:#ffffff;stroke:#ffffff;stroke-width:0.1;stroke-linecap:square;stroke-linejoin:miter;stroke-dasharray:none;paint-order:stroke fill markers"
       id="path51" />
  </g>
</svg>
