<?xml version="1.0" encoding="UTF-8" standalone="no"?>
<!-- Created with Inkscape (http://www.inkscape.org/) -->

<svg
   width="24.934912mm"
   height="24.909592mm"
   viewBox="0 0 24.934912 24.909592"
   version="1.1"
   id="svg1"
   inkscape:version="1.4 (86a8ad7, 2024-10-11)"
   sodipodi:docname="logos.svg"
   xmlns:inkscape="http://www.inkscape.org/namespaces/inkscape"
   xmlns:sodipodi="http://sodipodi.sourceforge.net/DTD/sodipodi-0.dtd"
   xmlns="http://www.w3.org/2000/svg"
   xmlns:svg="http://www.w3.org/2000/svg">
  <sodipodi:namedview
     id="namedview1"
     pagecolor="#505050"
     bordercolor="#eeeeee"
     borderopacity="1"
     inkscape:showpageshadow="0"
     inkscape:pageopacity="0"
     inkscape:pagecheckerboard="0"
     inkscape:deskcolor="#505050"
     inkscape:document-units="mm"
     inkscape:zoom="0.98016825"
     inkscape:cx="309.64072"
     inkscape:cy="265.26058"
     inkscape:window-width="1920"
     inkscape:window-height="991"
     inkscape:window-x="-9"
     inkscape:window-y="-9"
     inkscape:window-maximized="1"
     inkscape:current-layer="layer1">
    <inkscape:page
       x="0"
       y="-2.2411079e-22"
       width="24.934912"
       height="24.909592"
       id="page2"
       margin="0"
       bleed="0" />
  </sodipodi:namedview>
  <defs
     id="defs1" />
  <g
     inkscape:label="Camada 1"
     inkscape:groupmode="layer"
     id="layer1"
     transform="translate(-206.04633,-24.694102)">
    <path
       id="rect1"
       style="opacity:1;fill:#ffffff;stroke-width:1.1;stroke-linejoin:round;paint-order:stroke fill markers"
       d="m 24.6941,-206.07166 c 0.39019,0.0153 0.783787,0.0253 1.182357,0.0253 0.358541,0 0.712687,-0.009 1.064534,-0.0212 0.329577,0.0119 0.661799,0.0193 0.997355,0.0202 v -0.0248 h 5.480286 1.403015 5.231722 0.505396 1.300179 0.469222 0.96945 0.448551 0.975134 0.436149 0.526066 0.427881 0.589628 0.433049 0.758093 0.457337 0.824239 0.429431 v -1.25418 -0.45734 -0.75758 -0.43356 -0.58756 -0.42995 -0.52658 -0.43564 -0.97513 -0.44907 -0.96945 -0.46664 -1.30224 -0.50591 -7.79539 -0.0563 -2.06499 -0.0517 -1.6707 -0.39429 c 10e-6,-0.009 5.17e-4,-0.0171 5.17e-4,-0.0258 0,-0.009 -5.07e-4,-0.0171 -5.17e-4,-0.0258 v -2.065 c 10e-6,-0.009 5.17e-4,-0.0171 5.17e-4,-0.0258 0,-0.008 -5.09e-4,-0.0161 -5.17e-4,-0.0243 v -1.15807 h -0.02481 -0.430465 c 0.01582,0.39004 0.02584,0.78369 0.02584,1.18236 0,0.31437 -0.0072,0.62518 -0.01705,0.93431 h -0.0088 c 0.0018,0.0442 0.0025,0.089 0.0041,0.13332 -0.124073,3.39242 -0.831011,6.44184 -1.90376,8.69043 -1.184295,2.48241 -2.79058,3.95686 -4.504118,3.95686 h -5.17e-4 v 0.41496 c -0.328634,-0.70622 -1.045103,-1.19837 -1.872754,-1.19837 -1.13671,0 -2.062406,0.92776 -2.062406,2.06447 0,0.85352 0.522203,1.58812 1.263489,1.90118 -0.01888,0.0336 -0.03851,0.0668 -0.05684,0.10077 0.0012,-0.0349 0.0057,-0.0693 0.0057,-0.10439 v -5.2e-4 h -0.429431 v 5.2e-4 c 0,1.71354 -1.474455,3.31982 -3.956865,4.50412 -2.232851,1.06524 -5.256264,1.76833 -8.620145,1.89962 H 24.6941 Z m 7.804175,-0.76533 c 1.224176,-0.31283 2.343078,-0.70925 3.321761,-1.17615 1.543506,-0.73638 2.749348,-1.65376 3.466455,-2.69441 -0.07147,0.40175 -0.110588,0.81446 -0.110588,1.23661 0,0.0883 0.003,0.17601 0.0062,0.26355 -0.430199,0.28507 -0.906218,0.55532 -1.43092,0.80564 -1.456305,0.69477 -3.249527,1.23518 -5.252909,1.56476 z m 2.116666,0 c 1.224177,-0.31283 2.343079,-0.70925 3.321761,-1.17615 0.457911,-0.21847 0.885004,-0.45361 1.280026,-0.70229 0.02056,0.19198 0.04954,0.38139 0.08527,0.56845 -1.345396,0.57258 -2.935813,1.0219 -4.687053,1.30999 z m 2.116667,0 c 0.959289,-0.24513 1.850756,-0.5432 2.66392,-0.8847 0.02286,0.0891 0.0487,0.17738 0.07493,0.2651 -0.855022,0.25107 -1.771577,0.46048 -2.73885,0.6196 z m 0.578259,0.33538 c 0.802832,-0.14895 1.570672,-0.33189 2.295984,-0.5457 0.06833,0.18578 0.145211,0.36765 0.22841,0.5457 z m 1.928565,-8.3013 c 0,-0.90487 0.727597,-1.63452 1.632458,-1.63452 0.701653,0 1.298148,0.43879 1.530656,1.05781 -0.271854,0.17546 -0.530743,0.36909 -0.775146,0.57929 -0.0094,0.008 -0.0185,0.0166 -0.02791,0.0248 -0.246815,0.21455 -0.478676,0.44537 -0.693497,0.69195 -0.01084,0.0124 -0.02128,0.0252 -0.03204,0.0377 -0.209184,0.24353 -0.401989,0.5013 -0.576709,0.77205 -0.619205,-0.23162 -1.057816,-0.82694 -1.057816,-1.52911 z m 0.368453,5.29735 c 0.0062,-1.19276 0.333282,-2.30653 0.891418,-3.26905 0.120996,0.0222 0.245298,0.0346 0.372587,0.0346 0.827651,0 1.54412,-0.49116 1.872754,-1.19682 v 0.39894 h 5.17e-4 c 1.481072,0 2.823334,-0.94213 3.918107,-2.50941 0.222942,0.0153 0.442584,0.0412 0.658875,0.078 0.145329,0.0247 0.288548,0.0543 0.430464,0.0884 0.106299,0.0255 0.212554,0.0505 0.316777,0.0811 0.13935,0.0409 0.274962,0.0893 0.410311,0.13901 0.239239,0.0878 0.469685,0.1928 0.695048,0.30644 v 1.38028 c -0.583931,-0.19306 -1.206862,-0.29921 -1.855184,-0.29921 -3.265279,0 -5.917985,2.65064 -5.917985,5.91592 0,0.64839 0.10599,1.27172 0.299206,1.8557 h -1.377693 c -0.110689,-0.21944 -0.213526,-0.4433 -0.299724,-0.67592 -0.04971,-0.13416 -0.09896,-0.26807 -0.140043,-0.40618 -0.03099,-0.10417 -0.05573,-0.21104 -0.08165,-0.3173 -0.03454,-0.14159 -0.06518,-0.28441 -0.09043,-0.42943 -0.03763,-0.2161 -0.06451,-0.43555 -0.08062,-0.65835 1.566377,-1.09459 2.507858,-2.43648 2.507858,-3.91708 v -5.1e-4 h -0.429431 v 5.1e-4 c 0,1.22734 -0.759722,2.39868 -2.101164,3.40031 z m 1.136881,-3.66954 c 0.469289,-0.69078 1.065505,-1.28791 1.756482,-1.757 0.0033,0.0427 0.0057,0.0856 0.0057,0.12919 0,0.90486 -0.730183,1.63298 -1.635043,1.63298 -0.04285,0 -0.08512,-0.002 -0.127124,-0.005 z m 1.086239,4.81779 c 0,-3.03343 2.455124,-5.48855 5.488554,-5.48855 0.651491,0 1.275655,0.11406 1.855184,0.32194 v 1.03767 c -0.327051,-0.0664 -0.665329,-0.10181 -1.011825,-0.10181 -2.799398,0 -5.074109,2.27523 -5.074109,5.07463 0,0.3465 0.03542,0.68476 0.101803,1.01182 h -1.037663 c -0.207971,-0.57964 -0.321944,-1.20406 -0.321944,-1.8557 z m 0.91984,-7.29774 c 0.04214,-4.6e-4 0.08363,-0.005 0.125574,-0.006 -0.03453,0.0186 -0.06814,0.0387 -0.102319,0.0579 -0.0074,-0.0174 -0.01541,-0.0345 -0.02325,-0.0517 z m 0.0083,1.68672 c 0.113693,-0.25531 0.17725,-0.53779 0.17725,-0.83458 0,-0.12777 -0.0122,-0.25266 -0.03462,-0.37414 0.955649,-0.55383 2.060348,-0.87957 3.243212,-0.89038 -0.997666,1.33576 -2.163887,2.09333 -3.385839,2.0991 z m 0.759643,6.4549 c 0,-2.56755 2.076612,-4.64468 4.644161,-4.64468 0.347676,0 0.686078,0.0389 1.011825,0.1111 v 1.04852 c -0.07308,-0.004 -0.146667,-0.005 -0.220659,-0.005 -2.362133,0 -4.281392,1.91875 -4.281392,4.28088 0,0.0742 0.0019,0.14793 0.0057,0.22117 h -1.047998 c -0.07232,-0.32593 -0.111621,-0.66393 -0.111621,-1.01182 z m 1.417485,-8.86974 c 1.043746,-0.71647 1.963498,-1.92492 2.701644,-3.47214 0.466906,-0.97869 0.863324,-2.09759 1.176155,-3.32177 -0.32958,2.00339 -0.869993,3.79661 -1.564762,5.25291 -0.2502,0.52446 -0.52021,1.00037 -0.805119,1.43041 -0.07921,-0.003 -0.158384,-0.006 -0.238228,-0.006 -0.433752,0 -0.857569,0.0414 -1.26969,0.11679 z m 0.166398,9.66039 c 0,-2.13028 1.72116,-3.85145 3.851444,-3.85145 0.07412,0 0.147578,0.003 0.220659,0.007 v 0.58291 c -1.858265,0.13836 -3.34422,1.6247 -3.482475,3.48299 h -0.58291 c -0.0041,-0.0733 -0.0067,-0.14688 -0.0067,-0.22117 z m 1.018542,0.22117 c 0.13558,-1.62558 1.427878,-2.91635 3.053561,-3.05201 v 0.65526 c -1.1775,0.29065 -2.105627,1.21924 -2.396236,2.39675 z m 0.816488,-9.96063 c 0.247863,-0.39406 0.482401,-0.81984 0.700216,-1.27641 0.466906,-0.97868 0.863324,-2.09758 1.176155,-3.32176 -0.28777,1.74924 -0.736284,3.33798 -1.30793,4.6824 -0.187141,-0.0351 -0.376412,-0.0643 -0.568441,-0.0842 z m 0.284737,9.96063 c 0.268883,-0.94267 1.009733,-1.68381 1.952336,-1.95285 v 0.8599 c -0.460061,0.25254 -0.840525,0.63282 -1.092957,1.09295 z m 0.709517,-9.7839 c 0.340466,-0.8116 0.637566,-1.70125 0.882117,-2.65823 -0.158714,0.96475 -0.367339,1.87901 -0.617533,2.73213 -0.08769,-0.0259 -0.17551,-0.0514 -0.264584,-0.0739 z m 0.65164,9.7839 c 0.159511,-0.2311 0.360132,-0.43107 0.591179,-0.59066 v 0.59066 z m 0.01705,-9.57874 c 0.227542,-0.77125 0.419518,-1.59137 0.574125,-2.44895 v 2.68769 c -0.187205,-0.0875 -0.378403,-0.16773 -0.574125,-0.23874 z"
       transform="rotate(90)" />
  </g>
</svg>
