<?xml version="1.0" encoding="UTF-8" standalone="no"?>
<!-- Created with Inkscape (http://www.inkscape.org/) -->

<svg
   width="5.9686599mm"
   height="10.071575mm"
   viewBox="0 0 5.9686599 10.071575"
   version="1.1"
   id="svg1"
   inkscape:version="1.4 (86a8ad7, 2024-10-11)"
   sodipodi:docname="logos.svg"
   xmlns:inkscape="http://www.inkscape.org/namespaces/inkscape"
   xmlns:sodipodi="http://sodipodi.sourceforge.net/DTD/sodipodi-0.dtd"
   xmlns="http://www.w3.org/2000/svg"
   xmlns:svg="http://www.w3.org/2000/svg">
  <sodipodi:namedview
     id="namedview1"
     pagecolor="#505050"
     bordercolor="#eeeeee"
     borderopacity="1"
     inkscape:showpageshadow="0"
     inkscape:pageopacity="0"
     inkscape:pagecheckerboard="0"
     inkscape:deskcolor="#505050"
     inkscape:document-units="mm"
     inkscape:zoom="4"
     inkscape:cx="1064.5"
     inkscape:cy="224"
     inkscape:window-width="1920"
     inkscape:window-height="991"
     inkscape:window-x="-9"
     inkscape:window-y="-9"
     inkscape:window-maximized="1"
     inkscape:current-layer="layer1"
     showguides="false">
    <inkscape:page
       x="0"
       y="0"
       width="5.9686599"
       height="10.071575"
       id="page2"
       margin="0"
       bleed="0" />
  </sodipodi:namedview>
  <defs
     id="defs1" />
  <g
     inkscape:label="Camada 1"
     inkscape:groupmode="layer"
     id="layer1"
     transform="translate(-297.15392,-61.181104)">
    <path
       id="path40"
       style="fill:#ffffff;stroke-linecap:square;paint-order:stroke fill markers"
       d="m 300.01166,61.181125 -0.0264,0.0863 -0.1297,0.04031 0.0579,0.190686 c -0.27112,0.863022 -0.55112,1.594102 -0.87333,2.239656 -0.39818,-0.659474 -0.8621,-1.243447 -1.43143,-1.800923 l -0.15245,-0.150379 -0.30076,0.306958 0.15245,0.150379 c 0.60856,0.595889 1.08746,1.215621 1.49603,1.937866 -0.3743,0.661372 -0.80911,1.236663 -1.3472,1.786454 l -5.2e-4,-5.17e-4 -0.0832,0.08475 c -0.0218,0.02178 -0.0424,0.04392 -0.0646,0.06563 l -0.15452,0.150378 0.004,0.0041 -0.002,0.0021 0.15245,0.150379 0.14728,0.150378 5.1e-4,-5.17e-4 c 0.57922,0.591801 1.03915,1.212865 1.43247,1.939417 -0.23851,0.713648 -0.5744,1.459643 -1.02009,2.304252 l -0.0992,0.189136 0.37879,0.199471 0.0997,-0.189653 c 0.37336,-0.70755 0.67316,-1.355374 0.9064,-1.978174 0.27513,0.586785 0.51991,1.245759 0.75861,2.005563 0.10879,0.273308 0.35985,0.279968 0.45065,5.17e-4 0.23691,-0.754169 0.48031,-1.408656 0.75292,-1.992127 0.23403,0.627516 0.53564,1.280285 0.91209,1.993677 l 0.0997,0.189136 0.38085,-0.201022 -0.10128,-0.189652 c -0.44921,-0.851283 -0.78693,-1.602013 -1.02578,-2.320789 0.39454,-0.730958 0.85624,-1.35518 1.43816,-1.949752 l 5.1e-4,5.17e-4 0.10801,-0.110071 0.0398,-0.04031 0.15399,-0.150379 -0.004,-0.0036 0.003,-0.0026 -0.15038,-0.148311 -0.002,-0.0021 -0.14727,-0.150379 -5.2e-4,5.17e-4 c -0.5386,-0.550276 -0.97369,-1.125911 -1.34824,-1.788004 0.40837,-0.721549 0.88742,-1.340873 1.49552,-1.936316 l 0.15399,-0.150379 -0.30075,-0.306958 -0.154,0.150379 c -0.56915,0.557304 -1.03282,1.141184 -1.43092,1.800407 -0.32208,-0.645403 -0.60177,-1.376392 -0.87281,-2.23914 l 0.0584,-0.190686 -0.13126,-0.04082 -0.0274,-0.08578 -0.12557,0.03876 z m 0.12712,1.007691 c 0.25678,0.7473 0.53151,1.401031 0.84698,1.99161 -0.31592,0.591168 -0.59094,1.245431 -0.84801,1.993676 -0.25682,-0.74751 -0.53144,-1.401415 -0.84698,-1.992126 0.31584,-0.591024 0.591,-1.245144 0.84801,-1.99316 z m 1.09761,2.43551 c 0.36182,0.599248 0.77934,1.135696 1.27951,1.646928 -0.5111,0.522294 -0.93544,1.070701 -1.30276,1.685685 -0.2018,-0.763048 -0.29281,-1.509178 -0.28422,-2.323889 l 0.002,-0.214974 -0.0522,-5.17e-4 c 0.11427,-0.279031 0.233,-0.542557 0.35812,-0.793233 z m -2.19676,0.001 c 0.12078,0.242056 0.23562,0.496407 0.34623,0.764811 l -0.0408,5.17e-4 0.002,0.214974 c 0.009,0.821022 -0.0838,1.572748 -0.28887,2.341975 -0.36588,-0.611007 -0.78882,-1.155855 -1.29708,-1.675349 0.50017,-0.51112 0.91717,-1.047868 1.279,-1.646928 z m 0.71313,1.749764 c 0.0537,0.158227 0.10692,0.320931 0.15968,0.488859 0.0437,0.329258 0.40059,0.336503 0.45062,5.16e-4 0.0521,-0.165917 0.10462,-0.32673 0.15761,-0.483174 0.0484,0.714578 0.18008,1.398484 0.39998,2.102197 -0.28898,0.558719 -0.54351,1.174941 -0.7829,1.87172 -0.24094,-0.701288 -0.49728,-1.320973 -0.78858,-1.882572 0.22092,-0.702444 0.35349,-1.385282 0.40359,-2.097546 z"
       sodipodi:nodetypes="cccccccccccccccccccccccccccccscccccccccccccccccccccccccccccccccccccccccccccccccccccccc" />
  </g>
</svg>
