<?xml version="1.0" encoding="UTF-8" standalone="no"?>
<!-- Created with Inkscape (http://www.inkscape.org/) -->

<svg
   width="3.1523199mm"
   height="3.0861211mm"
   viewBox="0 0 3.1523199 3.0861211"
   version="1.1"
   id="svg1"
   inkscape:version="1.4 (86a8ad7, 2024-10-11)"
   sodipodi:docname="logos.svg"
   inkscape:export-batch-path="C:\Users\arthu\Downloads"
   inkscape:export-batch-name="elemento"
   xmlns:inkscape="http://www.inkscape.org/namespaces/inkscape"
   xmlns:sodipodi="http://sodipodi.sourceforge.net/DTD/sodipodi-0.dtd"
   xmlns="http://www.w3.org/2000/svg"
   xmlns:svg="http://www.w3.org/2000/svg">
  <sodipodi:namedview
     id="namedview1"
     pagecolor="#505050"
     bordercolor="#eeeeee"
     borderopacity="1"
     inkscape:showpageshadow="0"
     inkscape:pageopacity="0"
     inkscape:pagecheckerboard="0"
     inkscape:deskcolor="#505050"
     inkscape:document-units="mm"
     inkscape:zoom="4"
     inkscape:cx="1367.875"
     inkscape:cy="53"
     inkscape:window-width="1920"
     inkscape:window-height="991"
     inkscape:window-x="-9"
     inkscape:window-y="-9"
     inkscape:window-maximized="1"
     inkscape:current-layer="layer1"
     showguides="false">
    <inkscape:page
       x="0"
       y="0"
       width="3.1523199"
       height="3.0861211"
       id="page1"
       margin="0"
       bleed="0" />
  </sodipodi:namedview>
  <defs
     id="defs1" />
  <g
     inkscape:label="Camada 1"
     inkscape:groupmode="layer"
     id="layer1"
     transform="translate(-370.43681,-14.53295)">
    <path
       d="m 370.43681,14.532963 1e-5,1.503269 10e-6,0.111606 1e-5,1.471233 1.47122,-3e-6 h 0.17777 l 1.50327,-2e-6 1e-5,-1.503262 2e-5,-0.110582 v -1.472263 l -1.47227,2e-6 -0.17673,-1.1e-5 z m 0.42998,0.427856 0.64544,3e-6 -0.64544,0.645436 z m 1.67794,3e-6 0.61495,-2e-6 v 0.614952 z m -0.51472,0.08991 1.00822,1.008214 -1.04127,1.041281 -1.00821,-1.008208 z m 1.12966,1.494488 10e-6,0.644408 -0.64441,2e-6 z m -2.29287,0.03257 0.61185,0.611847 -0.61188,-1.1e-5 z"
       style="fill:#ffffff;stroke-linecap:square;paint-order:stroke fill markers"
       id="path80" />
  </g>
</svg>
