<?xml version="1.0" encoding="UTF-8" standalone="no"?>
<!-- Created with Inkscape (http://www.inkscape.org/) -->

<svg
   width="8.160677mm"
   height="11.481988mm"
   viewBox="0 0 8.160677 11.481988"
   version="1.1"
   id="svg1"
   inkscape:version="1.4 (86a8ad7, 2024-10-11)"
   sodipodi:docname="logos.svg"
   xmlns:inkscape="http://www.inkscape.org/namespaces/inkscape"
   xmlns:sodipodi="http://sodipodi.sourceforge.net/DTD/sodipodi-0.dtd"
   xmlns="http://www.w3.org/2000/svg"
   xmlns:svg="http://www.w3.org/2000/svg">
  <sodipodi:namedview
     id="namedview1"
     pagecolor="#505050"
     bordercolor="#eeeeee"
     borderopacity="1"
     inkscape:showpageshadow="0"
     inkscape:pageopacity="0"
     inkscape:pagecheckerboard="0"
     inkscape:deskcolor="#505050"
     inkscape:document-units="mm"
     inkscape:zoom="4"
     inkscape:cx="1064.5"
     inkscape:cy="224"
     inkscape:window-width="1920"
     inkscape:window-height="991"
     inkscape:window-x="-9"
     inkscape:window-y="-9"
     inkscape:window-maximized="1"
     inkscape:current-layer="layer1"
     showguides="false">
    <inkscape:page
       x="0"
       y="-3.7827814e-13"
       width="8.160677"
       height="11.481987"
       id="page2"
       margin="0"
       bleed="0" />
  </sodipodi:namedview>
  <defs
     id="defs1" />
  <g
     inkscape:label="Camada 1"
     inkscape:groupmode="layer"
     id="layer1"
     transform="translate(-285.69474,-60.475901)">
    <path
       d="m 289.60196,60.475895 -0.17518,0.04496 -0.032,0.12454 c -0.004,0.01615 -0.009,0.03465 -0.0134,0.05116 -0.13402,0.52209 -0.34603,1.21567 -0.67748,1.891874 -1.22178,0.314227 -2.23556,1.197279 -2.71352,2.340425 -0.0282,0.0047 -0.0556,0.01046 -0.0842,0.01447 l -0.21032,0.02997 0.0579,0.428914 0.0765,-0.01085 c -0.10134,0.368793 -0.14881,0.758175 -0.13229,1.159103 0.0708,1.717539 1.32954,3.17998 2.96157,3.523816 0.33579,0.749095 0.54475,1.545566 0.57465,1.662947 0.002,0.0092 0.0129,0.04961 0.0129,0.04961 l 0.0315,0.125057 0.17363,0.04599 0.17518,-0.04548 0.032,-0.12454 c 0.004,-0.01615 0.009,-0.03465 0.0134,-0.05116 0.12098,-0.471283 0.30655,-1.081715 0.58498,-1.693954 1.22515,-0.312922 2.2151,-1.273709 2.54351,-2.483052 0.11193,-0.02873 0.22695,-0.05301 0.34675,-0.06976 l 0.19844,-0.02791 c 0.003,-0.01269 0.004,-0.02552 0.007,-0.03824 l -0.0527,-0.392741 -0.21032,0.02945 c -0.067,0.0094 -0.13257,0.02128 -0.1974,0.03411 0.0227,-0.184158 0.0306,-0.372457 0.0217,-0.56379 -0.0448,-0.960465 -0.514,-1.828631 -1.22008,-2.407088 l -0.0651,-0.05839 c 0,0 -0.45781,-0.417882 -0.84853,-1.001489 1.47773,0.473651 2.58424,1.871483 2.64377,3.486609 0.0108,0.293423 -0.016,0.586178 -0.0713,0.873332 l 0.005,0.03669 -0.0119,0.0015 c -0.11509,0.56747 -0.35219,1.109691 -0.69919,1.576648 l 0.34365,0.255798 c 0.58845,-0.791884 0.89786,-1.773963 0.86145,-2.761588 -0.072,-1.953664 -1.51047,-3.614753 -3.37086,-3.989421 -0.38452,-0.790182 -0.629,-1.719471 -0.66145,-1.846915 -0.002,-0.0093 -0.0129,-0.04961 -0.0129,-0.04961 l -0.0315,-0.125574 z m 5.2e-4,0.993738 c 0.0958,0.297447 0.22164,0.653647 0.37569,1.00459 -0.14695,-0.01057 -0.29603,-0.01361 -0.44649,-0.0078 -0.10546,0.0041 -0.20967,0.01348 -0.31316,0.02584 0.15684,-0.354042 0.28286,-0.701415 0.38396,-1.022677 z m 0.11059,1.422135 c 0.16458,0.0014 0.32674,0.01459 0.48627,0.03772 0.11798,0.217913 0.25078,0.417712 0.38396,0.598413 -0.292,-0.08825 -0.60051,-0.135205 -0.91881,-0.133325 -0.0455,2.69e-4 -0.0911,0.0013 -0.13694,0.0036 -0.31502,0.01576 -0.61928,0.08059 -0.90486,0.186552 0.0319,-0.04713 0.0637,-0.09432 0.0941,-0.14211 0.10022,-0.157598 0.18976,-0.318962 0.27492,-0.481107 0.18124,-0.03661 0.36716,-0.05983 0.55604,-0.06718 0.0554,-0.0022 0.1105,-0.0031 0.16537,-0.0026 z m -1.31,0.24288 c -0.0146,0.02373 -0.0274,0.0483 -0.0424,0.07183 -0.44188,0.694894 -1.0276,1.290653 -1.82624,1.580782 0.40182,-0.746233 1.06919,-1.33975 1.86862,-1.652612 z m 1.27847,0.68988 c 0.65937,-2.82e-4 1.27128,0.243777 1.75442,0.644922 l 0.0729,0.0646 10e-4,-10e-4 c 0.56527,0.502219 0.93805,1.225345 0.97513,2.019515 0.0106,0.227166 -0.007,0.449314 -0.047,0.664559 -0.20033,0.06908 -0.38872,0.155789 -0.56637,0.255798 0.10098,-0.295523 0.14972,-0.61356 0.12867,-0.944128 -0.0783,-1.229828 -1.11311,-2.249764 -2.35541,-2.229838 -0.0401,6.42e-4 -0.0804,0.0023 -0.12092,0.0052 -1.14806,0.0804 -2.09127,1.079606 -1.99988,2.254126 0.08,1.027829 0.97999,1.871573 2.03502,1.77922 0.90893,-0.07956 1.65438,-0.879358 1.56063,-1.816427 -0.0792,-0.791528 -0.7847,-1.441463 -1.60559,-1.345654 -0.67578,0.07887 -1.22967,0.689495 -1.13068,1.396297 0.0787,0.56196 0.59793,1.024575 1.19321,0.920357 0.45047,-0.07886 0.82269,-0.511335 0.709,-0.998388 -0.04,-0.171135 -0.14028,-0.319993 -0.28319,-0.419613 -0.1429,-0.09962 -0.34188,-0.145051 -0.5333,-0.07803 -0.12126,0.04246 -0.217,0.121671 -0.28112,0.236161 -0.0641,0.114489 -0.0808,0.295948 0.0155,0.433565 0.0768,0.109684 0.13288,0.12145 0.23047,0.138493 0.0488,0.0085 0.11652,0.01441 0.19534,-0.03307 0.0788,-0.04749 0.12506,-0.15487 0.12506,-0.22841 h -0.42995 c 0,-0.0269 0.0309,-0.106884 0.0842,-0.139009 0.0533,-0.03213 0.0853,-0.02541 0.0977,-0.02326 0.0247,0.0043 0.002,-0.02807 0.0486,0.03927 0.003,0.004 8e-4,0.03419 0.008,0.02119 0.007,-0.01299 0.0383,-0.03798 0.0465,-0.04082 0.0527,-0.01846 0.0953,-0.0106 0.14676,0.02532 0.0515,0.03592 0.0969,0.102743 0.11111,0.163814 0.0514,0.22025 -0.13674,0.438592 -0.36484,0.478524 -0.33498,0.05865 -0.64628,-0.219373 -0.6935,-0.556555 -0.0631,-0.450661 0.30696,-0.857608 0.75603,-0.910022 0.56759,-0.06624 1.0702,0.397881 1.12655,0.961181 0.0686,0.685817 -0.492,1.287724 -1.17151,1.347205 -0.80531,0.07049 -1.50633,-0.586986 -1.56838,-1.384412 -0.072,-0.926013 0.68667,-1.728966 1.60352,-1.793172 1.04784,-0.07338 1.95139,0.786546 2.01745,1.824178 0.0745,1.170721 -0.88521,2.176635 -2.04484,2.244308 -0.61273,0.03576 -1.18267,-0.185477 -1.62212,-0.56224 -0.0828,-0.07101 -0.16282,-0.14582 -0.23564,-0.227376 l -0.001,-0.001 c -0.35663,-0.399849 -0.58578,-0.918282 -0.61598,-1.478979 -0.0765,-1.419396 1.08907,-2.63282 2.49597,-2.703194 0.0444,-0.0022 0.0883,-0.0031 0.13229,-0.0031 z m -2.7466,1.262455 c -0.22248,0.440483 -0.33784,0.940233 -0.30954,1.465544 0.0336,0.622868 0.2758,1.198678 0.65371,1.657263 0.033,0.04007 0.0657,0.08014 0.10076,0.118339 l 0.045,0.04031 c 0,0 0.0729,0.06783 0.17984,0.177767 0.1989,0.204564 0.52474,0.569365 0.79116,1.013374 -1.26672,-0.426146 -2.2107,-1.633971 -2.26808,-3.026688 -0.0176,-0.428051 0.0467,-0.841803 0.17881,-1.227315 0.22227,-0.05395 0.4316,-0.127649 0.62838,-0.218592 z m 5.37332,2.646867 c -0.006,0.0029 -0.0128,0.0054 -0.0191,0.0083 -0.31028,0.797373 -0.95789,1.44232 -1.75959,1.762167 0.0526,-0.09354 0.10601,-0.186605 0.16382,-0.277503 0.39809,-0.626032 0.91371,-1.170962 1.59577,-1.48518 0.006,-0.0029 0.0129,-0.0049 0.0191,-0.0078 z m -2.02004,1.340487 c -0.12016,0.195575 -0.22975,0.394802 -0.32762,0.595312 -0.14086,0.02661 -0.28443,0.04425 -0.43047,0.05064 -0.19756,0.0086 -0.39186,-0.0027 -0.58136,-0.02997 -0.0144,-0.02955 -0.0276,-0.06024 -0.0424,-0.0894 -0.0885,-0.174073 -0.18917,-0.335539 -0.29198,-0.488859 0.29577,0.09103 0.61047,0.135322 0.9369,0.116272 0.25619,-0.01495 0.50347,-0.06885 0.7369,-0.153996 z m -0.53536,1.058333 c -0.11936,0.28789 -0.21848,0.567866 -0.30128,0.830957 -0.079,-0.245553 -0.18096,-0.530739 -0.30024,-0.820622 0.13097,0.0089 0.26383,0.01104 0.39791,0.0052 0.0684,-0.003 0.13611,-0.0086 0.20361,-0.0155 z"
       style="fill:#ffffff;stroke-linecap:square;paint-order:stroke fill markers"
       id="path23"
       sodipodi:nodetypes="ccccccccccsccccccccccccccscccccscccccscccccscsccscccsscscsccsccssccccsccsscsssssssssssssccsscccscssssssssssccssccsssccccscsssccscssscscccssssccsss" />
  </g>
</svg>
