<?xml version="1.0" encoding="UTF-8" standalone="no"?>
<!-- Created with Inkscape (http://www.inkscape.org/) -->

<svg
   width="20.234907mm"
   height="3.0961888mm"
   viewBox="0 0 20.234907 3.0961887"
   version="1.1"
   id="svg1"
   inkscape:version="1.4 (86a8ad7, 2024-10-11)"
   sodipodi:docname="logos.svg"
   inkscape:export-batch-path="C:\Users\arthu\Downloads"
   inkscape:export-batch-name="elemento"
   xmlns:inkscape="http://www.inkscape.org/namespaces/inkscape"
   xmlns:sodipodi="http://sodipodi.sourceforge.net/DTD/sodipodi-0.dtd"
   xmlns="http://www.w3.org/2000/svg"
   xmlns:svg="http://www.w3.org/2000/svg">
  <sodipodi:namedview
     id="namedview1"
     pagecolor="#505050"
     bordercolor="#eeeeee"
     borderopacity="1"
     inkscape:showpageshadow="0"
     inkscape:pageopacity="0"
     inkscape:pagecheckerboard="0"
     inkscape:deskcolor="#505050"
     inkscape:document-units="mm"
     inkscape:zoom="4"
     inkscape:cx="1308.875"
     inkscape:cy="86.25"
     inkscape:window-width="1920"
     inkscape:window-height="991"
     inkscape:window-x="-9"
     inkscape:window-y="-9"
     inkscape:window-maximized="1"
     inkscape:current-layer="layer1"
     showguides="false">
    <inkscape:page
       x="0"
       y="-5.521776e-16"
       width="20.234907"
       height="3.0961885"
       id="page2"
       margin="0"
       bleed="0" />
  </sodipodi:namedview>
  <defs
     id="defs1" />
  <g
     inkscape:label="Camada 1"
     inkscape:groupmode="layer"
     id="layer1"
     transform="translate(-230.72404,0.43223106)">
    <path
       d="m 232.61112,-0.43098145 c -0.0765,-0.001822 -0.14809,-0.001653 -0.21497,5.1677e-4 -0.084,0.002726 -0.1589,0.009411 -0.22789,0.0191203 v -0.002584 c -0.0701,0.005989 -0.13908,0.0174649 -0.20671,0.0325562 l -0.0181,0.002584 v 0.001034 c -0.73095,0.17213103 -1.29171,0.85780409 -1.21182,1.64744458 0.0741,0.732325 0.72559,1.3341052 1.48208,1.2371338 0.61287,-0.07856 1.11837,-0.6447651 1.00873,-1.2950114 -0.0834,-0.4946355 -0.55882,-0.9094741 -1.08883,-0.77359611 -0.18064,0.0463125 -0.33589,0.15928806 -0.43873,0.31781005 -0.10284,0.15852199 -0.14364,0.38687716 -0.0413,0.58911126 0.0784,0.1548809 0.20031,0.2250074 0.35398,0.2485637 0.0768,0.011778 0.177,0.00529 0.26459,-0.062012 0.0696,-0.053504 0.10909,-0.1382102 0.12247,-0.2211752 a 0.21719806,0.21719806 0 0 0 0.009,-0.063045 0.21719806,0.21719806 0 0 0 -0.21756,-0.217041 0.21719806,0.21719806 0 0 0 -0.16743,0.079065 c -0.008,-0.038117 0.004,-0.071894 0.0336,-0.11782222 0.0397,-0.0612371 0.12161,-0.11912741 0.18707,-0.13590902 0.25962,-0.0665606 0.51599,0.15974494 0.56121,0.42788084 0.0655,0.3884572 -0.25542,0.746286 -0.64182,0.795817 -0.502,0.064349 -0.95012,-0.3510326 -1.00098,-0.8536946 -0.0575,-0.56835086 0.36485,-1.07392028 0.90744,-1.18959146 l 0.13901,-0.02067057 0.0145,-0.0020671 c 0.19571,-0.02921204 0.61656,-0.01552001 1.16789,0.04340821 0.55133,0.05892821 1.24206,0.1591176 2.02313,0.28680419 1.56212,0.2553732 3.4877,0.62126876 5.41259,0.98650313 1.92488,0.3652344 3.84948,0.7286441 5.41362,0.984436 0.78208,0.127896 1.4738,0.2292791 2.03347,0.2888713 0.55056,0.058622 0.96191,0.080807 1.24592,0.038757 v 0.00207 c 0.0772,-0.0066 0.15268,-0.019089 0.22686,-0.03669 0.72966,-0.1731551 1.28902,-0.8577185 1.20923,-1.64641116 -0.0741,-0.73232494 -0.72559,-1.3346219 -1.48208,-1.23765055 -0.61287,0.0785602 -1.11837,0.64528189 -1.00873,1.29552811 0.0834,0.4946356 0.55882,0.9094743 1.08883,0.7735962 0.18064,-0.046312 0.33589,-0.1598048 0.43873,-0.3183268 0.10284,-0.158522 0.14364,-0.3863605 0.0413,-0.58859455 -0.0784,-0.15488088 -0.20031,-0.22552409 -0.35398,-0.2490804 -0.0768,-0.0117781 -0.177,-0.004771 -0.26459,0.0625285 -0.071,0.0545643 -0.11041,0.14128906 -0.12299,0.22582601 a 0.21719806,0.21719806 0 0 0 -0.008,0.0578776 0.21719806,0.21719806 0 0 0 0.21705,0.21755774 0.21719806,0.21719806 0 0 0 0.16743,-0.079065 c 0.008,0.037912 -0.004,0.072098 -0.0336,0.1178222 -0.0397,0.061237 -0.12161,0.1191275 -0.18707,0.1359091 -0.25962,0.066561 -0.51599,-0.1602618 -0.56121,-0.42839764 -0.0655,-0.38845723 0.25542,-0.74628606 0.64182,-0.79581706 0.502,-0.06434912 0.95063,0.35103264 1.00149,0.8536946 0.0567,0.5604516 -0.35353,1.0602404 -0.88521,1.1849406 l -0.17777,0.027388 c -0.18659,0.029482 -0.60215,0.018873 -1.14825,-0.039274 -0.54609,-0.058147 -1.23207,-0.1580854 -2.0097,-0.2852539 -1.55524,-0.2543373 -3.47736,-0.6191999 -5.40225,-0.98443606 -1.92489,-0.36523617 -3.85297,-0.73123044 -5.42396,-0.98805339 -0.7855,-0.12841147 -1.48216,-0.22851042 -2.0469,-0.28887126 -0.31767,-0.0339529 -0.59101,-0.0565468 -0.82063,-0.0620117 z"
       style="fill:#ffffff;fill-rule:evenodd"
       id="path65" />
  </g>
</svg>
