<?xml version="1.0" encoding="UTF-8" standalone="no"?>
<!-- Created with Inkscape (http://www.inkscape.org/) -->

<svg
   width="162.39047mm"
   height="35.459915mm"
   viewBox="0 0 162.39047 35.459915"
   version="1.1"
   id="svg1"
   inkscape:version="1.4 (86a8ad7, 2024-10-11)"
   sodipodi:docname="logos.svg"
   xmlns:inkscape="http://www.inkscape.org/namespaces/inkscape"
   xmlns:sodipodi="http://sodipodi.sourceforge.net/DTD/sodipodi-0.dtd"
   xmlns="http://www.w3.org/2000/svg"
   xmlns:svg="http://www.w3.org/2000/svg">
  <sodipodi:namedview
     id="namedview1"
     pagecolor="#505050"
     bordercolor="#eeeeee"
     borderopacity="1"
     inkscape:showpageshadow="0"
     inkscape:pageopacity="0"
     inkscape:pagecheckerboard="0"
     inkscape:deskcolor="#505050"
     inkscape:document-units="mm"
     inkscape:zoom="0.98016825"
     inkscape:cx="309.64072"
     inkscape:cy="265.26058"
     inkscape:window-width="1920"
     inkscape:window-height="991"
     inkscape:window-x="-9"
     inkscape:window-y="-9"
     inkscape:window-maximized="1"
     inkscape:current-layer="layer1">
    <inkscape:page
       x="0"
       y="0"
       width="162.39047"
       height="35.459915"
       id="page2"
       margin="0"
       bleed="0" />
  </sodipodi:namedview>
  <defs
     id="defs1" />
  <g
     inkscape:label="Camada 1"
     inkscape:groupmode="layer"
     id="layer1"
     transform="translate(-9.6357168,-119.24586)">
    <path
       id="path94"
       style="font-size:23.1398px;font-family:Aquifer;-inkscape-font-specification:'Aquifer, Normal';stroke-width:1.1;stroke-linejoin:round;paint-order:stroke fill markers"
       d="m 76.515226,119.24905 c -0.326863,-0.0244 -0.692966,0.0922 -0.936893,0.29714 -0.878139,0.76106 -0.819394,2.82984 -0.624252,3.90312 0.175628,0.97571 0.741379,2.71261 1.287777,3.55172 0.351256,0.56592 1.054038,2.94624 -0.03876,3.62924 -1.209881,-0.0976 -0.44906,-1.83417 -1.268657,-2.10737 -0.292713,0.37077 -0.117182,0.52707 -0.09767,1.01493 0,0.33174 -0.07808,0.81936 0.07803,1.11208 0.468341,0.91716 3.141859,1.03409 2.556433,-3.47369 -0.195142,-1.48308 -0.546017,-2.24376 -1.170471,-3.55121 -0.800082,-1.60016 -1.015132,-4.13734 0.01912,-3.74706 0.624455,0.56592 0.117374,1.40506 0.7028,1.89291 0.429312,-0.25368 0.292391,-1.5026 0.19482,-1.97094 -0.08781,-0.36101 -0.37542,-0.52648 -0.702283,-0.55087 z m 8.640816,0 c -0.326862,-0.0244 -0.692966,0.0922 -0.936893,0.29714 -0.878139,0.76106 -0.819394,2.82984 -0.624252,3.90312 0.175628,0.97571 0.74138,2.71261 1.287777,3.55172 0.351256,0.56592 1.054038,2.94624 -0.03876,3.62924 -1.209881,-0.0976 -0.44906,-1.83417 -1.268657,-2.10737 -0.292713,0.37077 -0.117182,0.52707 -0.09767,1.01493 0,0.33174 -0.07808,0.81936 0.07803,1.11208 0.468341,0.91716 3.141859,1.03409 2.556433,-3.47369 -0.195142,-1.48308 -0.546533,-2.24376 -1.170987,-3.55121 -0.800083,-1.60016 -1.014616,-4.13734 0.01964,-3.74706 0.624454,0.56592 0.117373,1.40506 0.702799,1.89291 0.429312,-0.25368 0.292391,-1.5026 0.19482,-1.97094 -0.08781,-0.36101 -0.37542,-0.52648 -0.702283,-0.55087 z m 20.284548,0 c -0.32686,-0.0244 -0.69296,0.0922 -0.93689,0.29714 -0.87814,0.76106 -0.81939,2.82984 -0.62425,3.90312 0.17563,0.97571 0.74138,2.71261 1.28777,3.55172 0.35126,0.56592 1.05404,2.94624 -0.0388,3.62924 -1.20988,-0.0976 -0.44906,-1.83417 -1.26866,-2.10737 -0.29271,0.37077 -0.11718,0.52707 -0.0977,1.01493 0,0.33174 -0.0781,0.81936 0.078,1.11208 0.46834,0.91716 3.14186,1.03409 2.55644,-3.47369 -0.19515,-1.48308 -0.54602,-2.24376 -1.17047,-3.55121 -0.80009,-1.60016 -1.01514,-4.13734 0.0191,-3.74706 0.62445,0.56592 0.11737,1.40506 0.7028,1.89291 0.42931,-0.25368 0.29239,-1.5026 0.19482,-1.97094 -0.0878,-0.36101 -0.37542,-0.52648 -0.70229,-0.55087 z m 5.90869,0.001 c -0.31204,0.003 -0.59289,0.0499 -0.7612,0.15968 -0.0976,0.48785 0.19522,0.35107 0.1757,0.95601 0,0.46834 -0.0974,0.81956 -0.0584,1.30741 0.0585,0.56592 0.0977,1.89313 0.0196,2.42001 -0.039,0.5464 0.13626,3.84416 -0.13694,4.00027 0.15612,0.58543 0.17573,0.89781 0.0977,1.50275 -0.039,0.37077 -0.21438,1.07337 -0.0388,1.32705 0.0585,0.0781 2.57594,0.89738 3.37602,-1.52238 0.15612,-0.46834 0.54622,-2.65351 0.54622,-3.29748 -0.0195,-0.50737 -0.33191,-0.60539 -0.27336,-0.97616 0.0585,-0.29272 0.46868,-0.52672 0.13694,-2.10737 -0.29271,-1.42454 -0.31221,-2.90751 -1.63918,-3.51245 -0.3171,-0.14635 -0.92429,-0.26249 -1.44435,-0.25734 z m -10.59987,0.0279 c -0.079,0.006 -0.16037,0.0233 -0.24392,0.0537 -0.975707,0.35126 -1.775823,2.61496 -1.48311,4.19561 0.117085,0.62446 -0.351108,1.91241 -0.0584,3.53209 0.05854,0.35125 -0.01978,0.64391 0.03876,0.97565 0.05854,0.29271 0.234462,0.48775 0.293005,0.72192 0.156113,0.8196 -0.116967,0.74179 0.429431,1.60042 0.23417,0.4098 0.623954,0.85864 1.150834,0.74155 2.5899,-0.60494 2.32317,-11.99666 -0.1266,-11.82098 z m -8.238261,0.01 c -0.285395,-0.01 -0.558658,0.0149 -0.646472,0.0832 -0.117085,0.60494 0.214605,0.50708 0.156063,1.26814 l 0.01964,9.58133 c -0.07806,0.31222 -0.156309,0.19545 -0.195337,0.62476 0.351255,0.29272 1.093075,0.39038 1.522388,0.0977 0.01951,-0.42931 -0.136426,-0.83917 -0.136426,-1.40508 0.05854,-1.54162 -0.156262,-2.51741 0.05839,-4.52737 0.07806,-0.74154 -0.07818,-2.0293 -0.01964,-2.92696 0.01951,-0.54639 -0.136697,-0.89771 -0.09767,-1.40508 0.03903,-0.4098 0.234539,-0.89788 0.05891,-1.26865 -0.1366,-0.0683 -0.434458,-0.1122 -0.719853,-0.12196 z m 3.008085,0.0243 c -0.456144,0.005 -0.904803,0.0586 -1.060917,0.1757 -0.05854,0.58542 0.312003,0.58568 0.292489,1.19062 -0.03903,0.62446 -0.292663,0.48767 -0.156063,1.36581 v 6.03012 c -0.07806,0.56591 0.03876,0.91708 0.03876,1.46348 0,0.50737 -0.234119,0.99528 -0.156063,1.40508 0.331742,0.19514 1.210284,0.29269 1.542025,0.078 0.03903,-0.29271 -0.3905,-1.42486 -0.5271,-1.77612 0.09757,-0.39028 0.214703,-0.39015 0.253732,-0.79995 0.136599,-1.81482 -0.175726,-2.38055 -0.09767,-2.92695 1.853849,-1.36599 -0.01956,6.61496 2.127002,5.44411 0.195142,-0.15611 -0.07798,-4.03907 -0.234094,-4.70255 -0.156114,-0.64397 -0.351201,-0.60535 -0.565857,-1.13223 0.09757,-0.64397 0.604686,-0.91671 0.780314,-1.81436 0.214656,-1.0928 0.195252,-3.39563 -1.131714,-3.88349 -0.185385,-0.0781 -0.648697,-0.12218 -1.104842,-0.1173 z m -16.205729,0.005 c -0.312227,-0.005 -0.614899,0.0438 -0.771012,0.19017 -0.03903,0.52689 0.195066,0.39013 0.234094,0.87799 0.01951,0.31222 -0.05852,0.89751 -0.07803,1.20974 -0.03903,0.74154 0.0783,1.63947 0.03927,2.34198 -0.03903,0.87814 -0.253638,3.06372 0.253731,3.61011 0.253684,0.29272 0.156012,-2.5e-4 0.312126,0.37052 l -0.54622,0.0977 c -0.09757,0.4098 0.01922,1.79563 0.116788,2.18591 0.156114,0.52689 0.839442,0.87784 1.366325,0.93638 1.912392,0.15612 1.873394,-1.3466 1.892908,-2.81016 l 0.03876,-8.11785 c 0.117085,-0.44883 0.331814,-0.3121 0.1757,-0.79995 -0.390284,-0.11709 -0.468184,-0.13648 -0.877982,0.0196 -0.09757,0.50737 0.272851,0.56603 0.272851,1.24902 0,0.56591 -0.01951,1.03412 0,1.61954 0.01951,1.11231 -0.117085,2.22432 0,3.31711 0.09757,0.83911 -0.05827,2.10797 -0.03876,3.02514 0,0.9562 -0.01987,2.10727 -1.288294,2.0097 -0.780568,-0.83911 -0.448797,-1.36573 -0.487825,-2.41949 -0.01951,-0.683 0.01957,-0.76136 -0.156063,-1.44436 -0.23417,-0.89765 3.43e-4,-0.68293 0.136943,-1.38545 0.136599,-0.74154 -0.09757,-3.41513 0,-4.70307 0.03903,-0.64397 0.331665,-0.81919 0.234094,-1.2485 -0.195142,-0.0683 -0.51718,-0.1269 -0.829407,-0.13178 z m 8.868709,0.014 c -0.382813,-0.007 -0.725609,0.025 -0.901237,0.0982 -0.09757,0.48786 0.23434,0.46836 0.273369,1.15135 0.03903,0.72203 -0.136968,3.25871 -0.05891,4.4881 l -0.0584,5.26893 c -0.07806,0.31223 -0.156185,0.17557 -0.1757,0.56586 0.448827,0.15611 0.390374,-0.0388 0.917257,0.1173 0.468341,0.1366 0.409544,0.17526 0.780314,-0.0589 0.01951,-0.89765 -0.331517,0.078 -0.292488,-1.81487 0.01951,-0.56592 -0.273178,-3.25872 0.331762,-3.66851 0.60494,-0.42932 0.936547,-0.13664 1.209746,-1.07332 -0.195143,-0.50737 -0.526537,-0.66335 -0.272852,-1.20975 0.507369,-0.17563 0.03868,0.1756 0.682646,0.078 0.175627,-0.35125 0.156334,-0.58524 0.117305,-0.95601 h -0.683162 c -0.1366,-0.33174 -0.09745,-0.27327 0.01964,-0.5855 l 0.624251,-0.15606 c 0.05854,-0.62445 -0.409519,-1.50262 -0.858346,-1.89291 -0.26832,-0.21953 -1.017173,-0.3401 -1.655195,-0.35191 z m 29.097446,0.25425 c -0.37077,0.27319 -0.46831,2.16597 -0.48782,2.69285 -0.0195,1.05377 -0.48805,3.20064 -0.60513,4.23489 l -0.25373,2.94659 c -0.0976,0.5464 -0.3707,0.99513 -0.2341,1.46347 1.32697,0.80009 -0.27289,-1.97123 1.44436,-1.85415 0.50737,0.039 0.44884,0.0587 0.74155,0.3514 0,0.76106 -0.54683,1.09281 -0.23461,1.56115 0.37077,0.0781 0.95643,0.15599 1.26866,-0.0196 0.17563,-0.19514 -0.33189,-1.8537 -0.3514,-2.84892 -0.0195,-0.91717 -0.44855,-2.61502 -0.44855,-2.81016 l -0.21498,-2.92696 c -0.039,-0.48785 -0.1364,-1.01489 -0.21445,-1.50275 -0.0976,-0.5464 0.0585,-1.09263 -0.4098,-1.28777 z m -5.00176,0.26923 c 0.37162,-0.009 0.86549,1.03211 0.96428,2.93109 0.0195,0.39028 0.23397,1.26848 0.21446,1.40508 -0.0781,0.50737 -0.17518,-0.13664 -0.17518,1.30741 0,0.683 0.0584,5.54201 -1.24902,4.8395 l -0.25373,-4.56613 c -0.0585,-0.50737 0.13642,-0.80031 0.13642,-1.26866 l -0.0388,-2.63446 c -0.10245,-1.36599 0.11248,-2.00719 0.40152,-2.01383 z m -11.32334,0.0233 c 0.46834,0.50737 0.44855,1.81517 0.44855,2.51768 0.0195,0.97571 0.13643,1.97076 0.13643,2.92695 0,0.99523 -0.11691,1.95164 -0.13643,2.90784 0,0.78056 0.0195,1.81472 -0.66352,2.28306 -1.053769,-0.35125 -0.54657,-4.42977 -0.68317,-5.42499 -0.07805,-0.60494 -0.05827,-0.76087 -0.0388,-1.36581 0.0781,-2.49782 -0.3707,-0.11748 0.1757,-2.77141 0.21465,-1.01473 0.31236,-1.07332 0.76119,-1.07332 z m -4.931481,0.11111 c 0.740859,0.0635 0.623319,1.49155 0.659908,2.11356 0.01951,0.56592 0.136536,3.47346 -0.995288,2.20504 -0.09757,-0.62446 0.175332,-0.54632 0.116789,-1.05368 -0.05854,-0.52689 -0.01924,-0.68301 -0.03876,-1.15136 -0.01951,-0.58542 -0.292616,-1.61951 0.09767,-2.10736 0.05732,-0.009 0.11029,-0.0104 0.15968,-0.006 z m -7.083288,0.10387 c 0.624454,0.19514 0.663551,1.71727 0.585494,2.3027 -0.117085,1.03425 0.136531,2.18522 -0.585494,2.32182 -0.409798,-0.42931 -0.292612,-1.71688 -0.312126,-2.32182 -0.01951,-0.56591 -0.09767,-1.97096 0.312126,-2.3027 z m -9.638688,4.82244 c 0.0024,-0.007 0.03178,0.007 0.236678,0.0171 -0.214656,0.15611 0.01962,0.11718 -0.312126,0.0977 0.09757,-0.0781 0.07301,-0.1074 0.07545,-0.11472 z m 37.783227,0.38758 c 0.21465,0.40979 0.13691,0.95625 0.21497,1.40508 0.35126,0.4098 0.50714,0.23406 0.70228,0.72192 -0.1366,0.2732 -0.15616,0.17577 -0.25373,0.3514 -0.25368,0.44882 0.15639,0.87801 -0.85834,0.79995 -0.52689,-0.50737 -0.37094,-0.85849 -0.27337,-1.61954 0.19514,-1.2294 -0.15627,-1.60027 0.46819,-1.65881 z m -50.301326,6.8988 c -0.06253,-5.5e-4 -0.124068,0.0139 -0.179834,0.0424 -0.179552,0.0917 -0.268362,0.44187 -0.131775,0.59015 0.127487,0.1384 0.559139,-0.0775 0.559139,-0.0775 0,0 0.334102,0.0387 0.186552,-0.24856 -0.106057,-0.20652 -0.274289,-0.30505 -0.434082,-0.30644 z m -43.88156,0.0522 c -0.02469,2.9e-4 -0.03876,0.002 -0.03876,0.002 0,0 -0.609105,0.34085 -0.591178,0.43047 0.01788,0.0896 0.02661,0.22391 0.349332,0.26872 0.322657,0.0448 0.56784,-0.20568 0.892969,-0.49248 -0.201144,-0.19431 -0.505364,-0.20949 -0.612366,-0.20826 z m 92.377826,0.30954 c 0,0 -0.13191,0.0237 -0.33383,0.0858 -0.20189,0.0621 -0.12454,0.30269 -0.14004,0.38809 -0.0155,0.0854 0.55951,0.07 0.91674,-0.0465 0.35723,-0.11648 -2.1e-4,-0.29535 -0.44287,-0.42737 z m -12.55376,0.22686 -0.31832,0.25735 c 0.0902,0.26889 0.22353,0.47063 0.39997,0.60617 0.17747,0.12014 0.36421,0.21799 0.56017,0.293 0.21239,0.0606 0.4164,0.12809 0.61237,0.20309 0.19595,0.075 0.3586,0.18652 0.48783,0.33435 -0.0124,0.18509 -0.007,0.39021 0.006,0.60461 l 2.70371,-0.32453 c 0.007,-0.068 0.0212,-0.19625 0.0238,-0.23564 0.13554,-0.17643 0.32837,-0.27939 0.57774,-0.30903 0.26579,-0.044 0.54472,-0.0563 0.83716,-0.0367 0.14674,0.002 0.29143,0.0104 0.43357,0.0233 0.14216,0.0134 0.28159,0.0321 0.41909,0.0568 0.29141,0.035 0.54571,0.0447 0.76326,0.0284 0.0308,0.002 0.0916,0.0214 0.18191,0.0584 0.0168,0.006 0.0323,0.0132 0.0486,0.0196 l 3.66283,-0.43977 c -0.23529,-0.12398 -0.46903,-0.19683 -0.70074,-0.21239 -0.27706,-0.0186 -0.55711,-0.10747 -0.84025,-0.26562 l -3.57808,-0.23978 c -0.0934,0.009 -0.17988,0.0266 -0.2589,0.0522 -0.079,0.0256 -0.17338,0.0504 -0.28319,0.0739 -0.10981,0.0236 -0.25029,0.0447 -0.42168,0.0641 -0.15495,0.005 -0.36311,-0.001 -0.62476,-0.0186 -0.22468,-0.10786 -0.47587,-0.17104 -0.75293,-0.18965 l -0.80822,-0.0543 c -0.96968,-0.0651 -1.70692,-0.1378 -2.21175,-0.21808 -0.48905,-0.0791 -0.79495,-0.12294 -0.91829,-0.13126 z m 67.7292,0.37569 c 0,0 -0.4969,0.34538 -0.47387,0.42116 0.023,0.0758 0.042,0.19068 0.32401,0.20206 0.28203,0.0114 0.60351,-0.0513 0.59945,-0.33176 -0.004,-0.28051 -0.44959,-0.29146 -0.44959,-0.29146 z m -108.823847,0.03 c -0.03109,0.0924 -0.154888,0.16154 -0.37052,0.20774 -0.200545,0.0309 -0.43959,0.0548 -0.717268,0.0703 -0.277677,0.0154 -0.578313,0.0222 -0.902271,0.0222 h -0.879533 c -0.123412,0.13883 -0.208485,0.24688 -0.254765,0.32402 -0.03085,0.0771 -0.04599,0.14655 -0.04599,0.20825 0,0.0463 0.0078,0.0849 0.02325,0.11576 0.01543,0.0309 0.01543,0.0543 0,0.0698 l 0.138493,0.13901 c 0.137387,0 0.242395,0.006 0.360701,0.01 l 5.07721,-0.9586 c -0.385663,-0.0308 -0.786512,-0.0616 -1.203028,-0.0925 -0.416516,-0.0309 -0.825192,-0.0695 -1.226282,-0.11576 z m 106.711317,0.18966 -6.14123,0.41289 c -0.18469,0.0125 -0.35303,0.0394 -0.50488,0.0806 -0.1375,0.0247 -0.3053,0.0591 -0.50333,0.10335 -0.19905,0.0288 -0.45231,0.0617 -0.75912,0.0977 -0.30784,0.0207 -0.71576,0.0401 -1.22473,0.0589 -0.69262,0.0466 -1.34119,0.0594 -1.94562,0.0382 -0.45332,-0.0159 -0.84864,-0.01 -1.18598,0.0186 -0.11244,0.01 -0.21828,0.0213 -0.31781,0.0357 -0.21546,0.0145 -0.35183,0.0625 -0.40824,0.14366 -0.041,0.0801 -0.0448,0.13459 -0.0119,0.1633 0.01,0.1385 0.0316,0.245 0.0677,0.31988 0.036,0.0749 0.0936,0.12528 0.1726,0.15089 0.0944,0.0246 0.21133,0.0399 0.35088,0.046 0.15392,-0.0103 0.35472,-0.0164 0.60203,-0.0176 0.32116,-0.0525 0.54646,0.0793 0.67593,0.39533 0.1449,0.31494 0.24091,0.71038 0.28836,1.18649 0.0329,0.32656 0.0567,0.68071 0.0775,1.04696 l 2.38694,-0.61908 -0.0925,-1.37563 c 0.0768,-0.23708 0.28046,-0.42088 0.61185,-0.55139 0.33138,-0.13052 0.75776,-0.22858 1.279,-0.29455 0.53665,-0.067 1.15957,-0.11657 1.86862,-0.14883 0.72445,-0.0333 1.5099,-0.0785 2.35644,-0.13539 0.0308,-0.002 0.0863,0.0174 0.1664,0.0584 0.0954,0.04 0.18348,0.0877 0.26458,0.14418 0.0954,0.04 0.18349,0.0804 0.26355,0.12144 0.0953,0.04 0.15834,0.0595 0.18914,0.0574 0.0616,-0.004 0.15746,0.0352 0.2868,0.11937 0.0523,0.034 0.0959,0.0691 0.13798,0.10387 l 1.58026,-0.40979 c -4.1e-4,-0.006 -5.6e-4,-0.0119 -0.001,-0.0181 l -0.062,-0.92346 z m -21.08657,0.0336 -3.58324,0.16278 c -0.0918,0.0196 -0.17549,0.0468 -0.25115,0.0811 -0.0756,0.0343 -0.1669,0.0697 -0.27337,0.10542 -0.10647,0.0357 -0.24375,0.0726 -0.41186,0.1111 -0.15341,0.0224 -0.36124,0.0398 -0.62322,0.0517 -0.23537,-0.0819 -0.49155,-0.1165 -0.76894,-0.10387 l -0.80926,0.0367 c -0.97088,0.0442 -1.71091,0.0545 -2.22157,0.0315 -0.49524,-0.0238 -0.80534,-0.033 -0.92862,-0.0274 l -0.28784,0.29146 c 0.11981,0.25707 0.27507,0.44272 0.46561,0.55759 0.18983,0.0994 0.38647,0.17537 0.58962,0.22789 0.21785,0.0364 0.42835,0.0808 0.63149,0.13333 0.20314,0.0525 0.37692,0.14512 0.52193,0.2775 0.0126,0.27739 0.0578,0.58414 0.13488,0.92036 0.0918,0.32012 0.16281,0.53295 0.21394,0.63872 l 0.17415,3.82405 2.3058,-0.54518 c -0.0342,-0.575 -0.0675,-1.17138 -0.0966,-1.8123 -0.005,-0.10788 -0.006,-0.31638 -0.005,-0.62528 10e-4,-0.30892 8.1e-4,-0.64066 5.2e-4,-0.99581 -0.001,-0.37055 -0.001,-0.71066 0,-1.01957 4.4e-4,-0.32431 -6.8e-4,-0.53964 -0.006,-0.64751 0.11486,-0.19054 0.294,-0.31512 0.53846,-0.37258 0.25917,-0.0736 0.53506,-0.1169 0.82786,-0.13023 0.14604,-0.0144 0.29082,-0.0231 0.43357,-0.0258 0.14274,-0.003 0.28332,4.3e-4 0.42271,0.01 0.2935,0.002 0.54788,-0.0167 0.76223,-0.0574 0.0308,-0.001 0.0926,0.0111 0.18655,0.0377 0.10927,0.0259 0.21131,0.0598 0.30592,0.10181 0.10929,0.0259 0.21098,0.052 0.30489,0.0785 0.10926,0.0259 0.17894,0.0386 0.20981,0.0372 0.077,-0.004 0.21716,0.013 0.41961,0.0501 0.21785,0.0364 0.36533,0.0531 0.44235,0.0496 0.077,-0.004 0.19463,0.037 0.35295,0.12247 0.17372,0.0847 0.29919,0.12598 0.37621,0.12247 0.13869,-0.006 0.27863,0.018 0.42013,0.0734 0.14081,0.0399 0.27473,0.0955 0.40152,0.16692 0.14151,0.0553 0.2676,0.11122 0.37828,0.16795 0.11065,0.0567 0.19707,0.0913 0.25941,0.10387 0.33766,0.29347 0.64301,0.55756 0.91622,0.7922 0.27322,0.23464 0.52438,0.49372 0.75345,0.77669 0.20543,0.23717 0.39017,0.51566 0.55552,0.83096 l 2.62309,-0.62012 c -0.0663,-0.094 -0.11924,-0.17601 -0.19378,-0.2775 -0.1282,-0.10226 -0.24244,-0.2357 -0.34262,-0.40101 -0.0847,-0.16601 -0.17647,-0.32397 -0.27595,-0.47387 -0.084,-0.1506 -0.17529,-0.28556 -0.27337,-0.40463 -0.0981,-0.11907 -0.20214,-0.19949 -0.31212,-0.24081 -0.0952,-0.0574 -0.17596,-0.13101 -0.24185,-0.22066 -0.0666,-0.10507 -0.13256,-0.20232 -0.19844,-0.29197 -0.0505,-0.0904 -0.11547,-0.16458 -0.19533,-0.22272 -0.0644,-0.0588 -0.15102,-0.0855 -0.2589,-0.0806 l -0.30644,-0.12506 c -0.11069,-0.0567 -0.29131,-0.12547 -0.54209,-0.2067 -0.23607,-0.0974 -0.47941,-0.18697 -0.73019,-0.2682 -0.25148,-0.0966 -0.48715,-0.17876 -0.70641,-0.24598 -0.20453,-0.0833 -0.32278,-0.13957 -0.35502,-0.16899 -0.29982,-0.14077 -0.58871,-0.20486 -0.8661,-0.19223 -0.27738,0.0126 -0.5649,-0.0436 -0.86403,-0.16898 z m -105.806977,0.0139 c -0.138839,0 -0.246878,0.008 -0.324011,0.0232 -0.06171,0 -0.115468,0.008 -0.161748,0.0233 -0.03085,0 -0.06165,0.0151 -0.0925,0.046 -0.01543,0.0154 -0.05405,0.0389 -0.115756,0.0698 -0.04628,0 -0.100557,0.0308 -0.162264,0.0925 l -0.208256,0.20826 c -0.06171,0.0617 -0.131123,0.1233 -0.208256,0.185 -0.06171,0.0463 -0.107639,0.0693 -0.138493,0.0693 l -0.278019,0.13901 h -2.707328 c -0.03085,0 -0.11541,0.008 -0.254248,0.0232 -0.138839,0.0154 -0.293329,0.0306 -0.463021,0.046 -0.154266,0.0154 -0.300927,0.0311 -0.439766,0.0465 -0.138838,0.0154 -0.231223,0.0233 -0.277503,0.0233 h -1.990059 c -0.03085,0 -0.138893,0.008 -0.324011,0.0232 -0.185118,0.0154 -0.385543,0.0384 -0.601514,0.0693 -0.200546,0.0154 -0.393141,0.0306 -0.578259,0.046 -0.185118,0.0154 -0.293159,0.0232 -0.324012,0.0232 -0.231398,-0.10798 -0.455304,-0.1774 -0.671276,-0.20825 -0.215972,-0.0463 -0.432052,-0.0771 -0.648023,-0.0925 -0.215972,-0.0154 -0.439362,-0.0311 -0.67076,-0.0465 -0.215972,-0.0154 -0.455018,-0.0462 -0.717269,-0.0925 -0.200545,-0.18512 -0.378002,-0.30047 -0.532267,-0.34675 -0.154266,-0.0617 -0.401139,-0.0852 -0.740523,-0.0698 -0.04628,0.0154 -0.10787,0.0927 -0.185002,0.23151 -0.07713,0.12341 -0.162206,0.2779 -0.254765,0.46302 -0.07713,0.18512 -0.146549,0.36988 -0.208256,0.555 -0.04628,0.18512 -0.06925,0.33178 -0.06925,0.43977 v 0.85628 c 0,0.0926 -0.02348,0.20842 -0.06976,0.34726 -0.04628,0.12342 -0.09221,0.24659 -0.138492,0.37001 -0.04628,0.12341 -0.0849,0.23928 -0.115756,0.34726 -0.01543,0.10799 -2.84e-4,0.18523 0.04599,0.23151 0.06171,0.0771 0.115984,0.1309 0.162264,0.16175 0.04628,0.0154 0.130837,0.008 0.254249,-0.0233 l 0.139009,-0.13849 c 0.154265,-0.30853 0.285272,-0.5554 0.393258,-0.74052 0.123412,-0.18511 0.254935,-0.33961 0.393774,-0.46302 0.138839,-0.12341 0.308467,-0.23929 0.509013,-0.34727 0.215971,-0.12342 0.49364,-0.26956 0.833024,-0.43925 0.06171,-0.0771 0.169746,-0.13924 0.324011,-0.18552 0.169692,-0.0463 0.339322,-0.0771 0.509013,-0.0925 0.185119,-0.0154 0.354747,-0.0227 0.509013,-0.0227 h 0.370003 c 0.246824,0 0.532321,0.0151 0.856279,0.046 0.339384,0.0309 0.717265,0.0617 1.133781,0.0925 l 0.139009,0.30076 c 0,0.0771 -0.01566,0.1622 -0.04651,0.25476 -0.01543,0.0926 -0.03839,0.22357 -0.06925,0.39326 -0.01543,0.15426 -0.03108,0.35469 -0.04651,0.60151 0,0.2314 0.0078,0.52471 0.02325,0.87953 0,0.13883 0.0078,0.30065 0.02325,0.48576 0.03085,0.1697 0.05382,0.33932 0.06925,0.50902 0.03085,0.15426 0.04651,0.28579 0.04651,0.39377 0.01543,0.10799 0.01543,0.16175 0,0.16175 0,0.0633 -0.0088,0.1439 -0.01602,0.22169 l 2.006079,-0.37879 v -3.38326 l 0.277502,-0.2775 c 0.215971,-0.0617 0.547919,-0.10815 0.995288,-0.13901 0.462796,-0.0309 1.033273,-0.0386 1.71204,-0.0232 0.07713,0 0.239452,0.0308 0.486276,0.0925 0.262251,0.0463 0.431881,0.0698 0.509013,0.0698 0.09256,0 0.184942,0.023 0.277502,0.0693 0.107986,0.0463 0.20037,0.10004 0.277502,0.16175 0.09256,0.0463 0.161976,0.0927 0.208256,0.13901 l 0.0925,0.0465 c 0.107986,0.12341 0.223854,0.26226 0.347266,0.41652 0.123412,0.15427 0.231452,0.31607 0.324011,0.48576 0.09256,0.15427 0.169805,0.30876 0.231511,0.46302 0.06171,0.13884 0.0925,0.25418 0.0925,0.34674 h 0.13901 c 0.169692,-0.10799 0.254248,-0.33138 0.254248,-0.67076 0.01543,-0.35481 0.02325,-0.7019 0.02325,-1.04128 0,-0.0309 0.0078,-0.1081 0.02325,-0.23151 0.01543,-0.12341 0.03057,-0.25441 0.04599,-0.39325 0.03085,-0.15426 0.05434,-0.29311 0.06976,-0.41652 0.01543,-0.12341 0.02274,-0.20066 0.02274,-0.23151 0,-0.0463 -0.0073,-0.13918 -0.02274,-0.27802 -0.01543,-0.15426 -0.03891,-0.30824 -0.06976,-0.4625 -0.01543,-0.15427 -0.04622,-0.28528 -0.0925,-0.39326 -0.03085,-0.12341 -0.06947,-0.17769 -0.115755,-0.16226 z m -31.034798,0.016 c -0.112827,0.002 -0.219605,0.007 -0.319877,0.0145 -0.2159706,0 -0.3548055,0.0386 -0.4165125,0.11575 -0.04628,0.0771 -0.054114,0.13142 -0.023254,0.16227 0,0.13884 0.015659,0.24636 0.046509,0.32349 0.03085,0.0771 0.08461,0.13142 0.1617472,0.16227 0.09256,0.0308 0.2084273,0.0538 0.3472663,0.0692 0.154265,0 0.354689,0.008 0.601513,0.0233 0.323958,-0.0309 0.540037,0.1158 0.648023,0.43976 0.123412,0.32395 0.192829,0.72481 0.208256,1.20303 0.01543,0.4628 0.01543,0.96437 0,1.5043 0,0.005 4.75e-4,0.009 5.17e-4,0.0129 l 2.429309,-1.15807 v -1.14618 c 0.09256,-0.23139 0.308638,-0.40102 0.648022,-0.50901 0.339383,-0.10798 0.771026,-0.17741 1.295528,-0.20826 0.539929,-0.0309 1.164685,-0.0386 1.874305,-0.0232 0.04238,9e-4 0.09517,7.6e-4 0.137976,0.002 l 2.041735,-0.97358 h -3.545003 c -0.185118,0 -0.354747,0.0156 -0.509013,0.0465 -0.138839,0.0154 -0.308468,0.0383 -0.509013,0.0692 -0.200544,0.0154 -0.455247,0.0311 -0.763777,0.0465 -0.308531,0 -0.717206,-0.008 -1.226282,-0.0232 -0.694194,0 -1.341916,-0.0308 -1.943551,-0.0925 -0.451225,-0.0463 -0.845943,-0.0667 -1.184423,-0.061 z m 32.900317,0.0636 c -0.112777,0.002 -0.219087,0.007 -0.31936,0.0145 -0.215972,0 -0.354804,0.0386 -0.416512,0.11576 -0.04628,0.0771 -0.0541,0.13141 -0.02325,0.16226 -4e-6,0.13884 0.01514,0.24636 0.04599,0.32349 0.03085,0.0771 0.08513,0.13142 0.162264,0.16227 0.09257,0.0308 0.207901,0.0538 0.346749,0.0692 0.154265,0 0.355206,0.008 0.602031,0.0233 0.323957,-0.0309 0.539521,0.1158 0.647505,0.43977 0.123413,0.32395 0.192828,0.7248 0.208256,1.20302 0.01475,0.44243 0.01452,0.92264 10e-4,1.43557 l 2.428792,-0.45888 v -1.7632 c 0.09256,-0.2314 0.30864,-0.40104 0.648023,-0.50902 0.339384,-0.10799 0.771542,-0.1774 1.296044,-0.20825 0.53993,-0.0308 1.164685,-0.0387 1.874305,-0.0233 0.725047,0.0154 1.511604,0.0233 2.360062,0.0233 0.03086,-1e-5 0.08461,0.0229 0.161748,0.0692 0.09256,0.0463 0.177631,0.10004 0.254764,0.16175 0.09256,0.0463 0.177632,0.0927 0.254765,0.13901 0.09256,0.0463 0.154148,0.0698 0.185002,0.0698 0.06171,10e-6 0.154086,0.046 0.277502,0.1385 0.06171,0.0463 0.115986,0.0927 0.162264,0.13901 0.02178,0.0981 0.05907,0.21171 0.10387,0.33279 l 1.456759,-0.27492 c 0.006,-0.13322 0.0124,-0.26593 0.0124,-0.40514 v -0.92552 l -0.43925,-0.43977 h -6.15518 c -0.185118,0 -0.354748,0.0156 -0.509013,0.0465 -0.138839,0.0154 -0.308983,0.0384 -0.509529,0.0693 -0.200544,0.0154 -0.45473,0.0311 -0.763261,0.0465 -0.308529,0 -0.717724,-0.008 -1.226799,-0.0233 -0.694195,0 -1.341913,-0.0308 -1.94355,-0.0925 -0.451224,-0.0463 -0.84609,-0.0667 -1.184424,-0.061 z m 56.241012,0.0114 c -0.009,0.0934 -0.136237,0.16404 -0.380339,0.21187 -0.245168,0.0325 -0.522098,0.0519 -0.830957,0.0579 -0.29347,0.005 -0.578231,0.0166 -0.855245,0.0357 -0.278079,0.004 -0.448003,0.0154 -0.508496,0.0351 -0.246235,0.017 -0.469627,0.0249 -0.67076,0.0232 -0.185742,-0.003 -0.394407,-0.003 -0.626318,-0.003 -0.232977,-0.0148 -0.51136,-0.0189 -0.835608,-0.0119 -0.30886,0.006 -0.710042,0.0257 -1.202511,0.0599 v 5.2e-4 c -0.0419,0.0648 -0.08464,0.11433 -0.128674,0.14831 -0.02864,0.0329 -0.05665,0.0732 -0.08423,0.12144 -0.0122,0.0472 -0.02352,0.11009 -0.03359,0.1881 l 0.02067,0.29972 c -0.02864,0.0329 0.02783,0.0599 0.168465,0.0811 0.14064,0.0212 0.304604,0.0488 0.492477,0.0822 l 0.560689,0.0537 c 0.186807,0.018 0.312481,0.048 0.377238,0.0899 l 0.469222,0.40825 c 0.0021,0.0308 0.0217,0.0991 0.05994,0.20463 0.03717,0.0902 0.07493,0.18793 0.113172,0.29353 0.05363,0.10453 0.09973,0.20963 0.137976,0.31522 0.03717,0.0902 0.05678,0.15061 0.05891,0.18139 l 0.07648,1.09864 2.189531,-0.57258 c 0.01693,-0.14142 0.03464,-0.28491 0.05891,-0.45475 0.03018,-0.23405 0.05973,-0.46773 0.08992,-0.70177 0.02911,-0.24943 0.05971,-0.48363 0.09095,-0.70228 0.172951,-0.18208 0.385656,-0.35135 0.637687,-0.50798 0.252031,-0.15662 0.599684,-0.26645 1.043867,-0.32814 l 0.27957,-0.3204 c -0.0117,-0.16929 -0.10402,-0.27147 -0.27647,-0.30592 -0.158168,-0.0509 -0.322128,-0.0779 -0.492478,-0.0816 z m -78.442241,0.17777 -1.808158,0.98185 c 0.44582,0.005 0.866621,0.0134 1.352889,0.0134 0.03085,0 0.08461,0.0229 0.161747,0.0692 0.09256,0.0463 0.177632,0.10004 0.254765,0.16175 0.09256,0.0463 0.177115,0.0927 0.254248,0.13901 0.09256,0.0463 0.154148,0.0698 0.185002,0.0698 0.06171,0 0.154607,0.0459 0.278019,0.13849 0.06171,0.0463 0.115467,0.0927 0.161747,0.13901 0.03085,0.13884 0.08513,0.30064 0.162264,0.48576 0.07713,0.16969 0.161689,0.33201 0.254248,0.48628 0.09256,0.15426 0.177632,0.2931 0.254765,0.41651 0.07713,0.10798 0.138721,0.16957 0.185001,0.185 0.185119,0.16969 0.323953,0.16181 0.416512,-0.0233 0.107985,-0.20055 0.185231,-0.47039 0.231511,-0.80977 0.04628,-0.33938 0.06925,-0.70213 0.06925,-1.08779 v -0.92553 l -0.439766,-0.43976 z m 66.453825,0.005 c -0.03953,9.4e-4 -0.07457,0.007 -0.10542,0.0186 -0.07713,0.0154 -0.154377,0.0848 -0.23151,0.20826 -0.07713,0.10798 -0.138722,0.22385 -0.185002,0.34726 0,0.0617 0.03079,0.1233 0.0925,0.185 0.07713,0.0617 0.154377,0.1233 0.23151,0.18501 0.09256,0.0617 0.177115,0.11598 0.254248,0.16226 0.07713,0.0308 0.123583,0.046 0.13901,0.046 0.03085,0 0.10027,0.008 0.208256,0.0233 0.107985,0.0154 0.223854,0.0306 0.347266,0.046 0.138839,0.0154 0.262017,0.0311 0.370003,0.0465 0.107985,0.0154 0.177402,0.0233 0.208256,0.0233 l 0.162264,0.13901 v 0.53175 0.48628 c 0.01543,0.15426 0.03839,0.28527 0.06925,0.39325 0.04628,0.10799 0.115697,0.16959 0.208256,0.18501 0,0.20055 0.0078,0.53249 0.02325,0.99528 0.01543,0.4628 0.03057,0.98734 0.04599,1.57355 0.0031,0.11377 0.0062,0.2475 0.0093,0.36432 l 1.18184,-0.60875 c -0.02675,-0.0927 -0.06811,-0.18153 -0.126608,-0.2651 -0.09256,-0.16969 -0.139009,-0.33149 -0.139009,-0.48576 0,-0.0926 -0.0073,-0.23922 -0.02274,-0.43976 -0.01543,-0.20055 -0.03108,-0.41611 -0.04651,-0.64751 -0.01543,-0.2314 -0.03108,-0.44748 -0.04651,-0.64802 -0.01543,-0.20055 -0.02274,-0.33938 -0.02274,-0.41651 -0.03085,-0.20055 -0.0079,-0.37801 0.06925,-0.53227 0.09256,-0.15427 0.192772,-0.2931 0.300757,-0.41651 0.107986,-0.12342 0.208197,-0.22363 0.300757,-0.30076 0.107985,-0.0771 0.169576,-0.13924 0.185002,-0.18552 0.215972,-0.0771 0.378289,-0.13872 0.486275,-0.185 0.123413,-0.0463 0.154208,-0.17729 0.0925,-0.39326 -0.09256,-0.0617 -0.154149,-0.11546 -0.185002,-0.16174 -0.03085,-0.0617 -0.0773,-0.10815 -0.13901,-0.13901 -0.06171,-0.0463 -0.15409,-0.0771 -0.277502,-0.0925 -0.123412,-0.0154 -0.308697,-0.0233 -0.555522,-0.0233 -0.123412,0.0771 -0.231452,0.13872 -0.324011,0.185 -0.09256,0.0308 -0.200599,0.0543 -0.324011,0.0698 -0.107986,0.0154 -0.24682,0.0227 -0.416512,0.0227 h -0.648023 c -0.215971,0 -0.455017,-0.0538 -0.717269,-0.16174 -0.131125,-0.0617 -0.244648,-0.10216 -0.341064,-0.12144 -0.04821,-0.01 -0.09224,-0.0139 -0.131775,-0.0129 z m 41.511682,0.005 -0.1478,0.12919 c -0.0329,0.0287 -0.0763,0.0959 -0.12971,0.2005 -0.0534,0.10464 -0.10677,0.2169 -0.16123,0.33693 -0.0545,0.12003 -0.10046,0.23229 -0.13849,0.33796 -0.0381,0.10567 -0.0584,0.17438 -0.0605,0.20516 -0.002,0.0308 -0.0219,0.0989 -0.06,0.20464 -0.0381,0.10567 -0.0773,0.21896 -0.11627,0.34003 -0.0391,0.12106 -0.0777,0.23488 -0.11575,0.34055 -0.0381,0.10567 -0.0573,0.17385 -0.0594,0.20464 -0.002,0.0308 -0.0471,0.11997 -0.13436,0.26871 -0.0719,0.14979 -0.16034,0.31398 -0.2651,0.49248 -0.10377,0.1631 -0.19949,0.31892 -0.2868,0.46767 -0.0719,0.14978 -0.10905,0.24052 -0.11111,0.2713 -0.0104,0.15392 -0.0439,0.31386 -0.10128,0.48008 -0.0576,0.1662 -0.12237,0.32409 -0.19431,0.47387 -0.0555,0.13542 -0.10984,0.25554 -0.16329,0.36018 -0.0534,0.10464 -0.0732,0.16496 -0.0589,0.18139 -0.002,0.0308 -0.0284,0.0832 -0.0796,0.1571 -0.0514,0.0739 -0.10365,0.15518 -0.15606,0.24442 -0.0524,0.0892 -0.10367,0.17109 -0.15503,0.24495 -0.0514,0.0739 -0.0785,0.12579 -0.0806,0.15658 -0.13568,0.40834 -0.25542,0.69472 -0.35915,0.85783 -0.0883,0.16414 -0.1841,0.32731 -0.28783,0.49041 -0.10377,0.1631 -0.22774,0.40231 -0.37259,0.71727 -0.12844,0.30059 -0.29304,0.79204 -0.49351,1.47433 -0.12119,0.19285 -0.22636,0.37123 -0.31471,0.53536 -0.0719,0.14979 -0.1299,0.33177 -0.17518,0.54519 -0.002,0.0308 -0.0382,0.098 -0.10697,0.20154 -0.0688,0.10361 -0.14628,0.22166 -0.23255,0.35502 -0.0698,0.11899 -0.13891,0.23073 -0.20774,0.33434 -0.0534,0.10463 -0.0811,0.17231 -0.0832,0.20309 -0.0791,0.25753 -0.14968,0.49982 -0.21135,0.7276 -0.0463,0.22881 -0.0964,0.39558 -0.14986,0.50023 -0.34495,0.3015 -0.57903,0.57178 -0.70332,0.81081 -0.10791,0.22467 -0.22928,0.41774 -0.3638,0.57877 -0.11912,0.16207 -0.29673,0.28129 -0.53382,0.35812 -0.23604,0.0614 -0.63135,0.0735 -1.18546,0.0362 -0.11186,0.0543 -0.19989,0.0953 -0.26355,0.12196 -0.0636,0.0266 -0.0771,0.1179 -0.0413,0.27492 l 0.12868,0.14831 1.82417,0.12247 c 0.0616,0.004 0.20736,0.0213 0.43719,0.0522 0.22985,0.0309 0.47524,0.0631 0.73587,0.0961 0.26062,0.033 0.49818,0.0647 0.71262,0.0946 0.22985,0.0309 0.38295,0.0486 0.45992,0.0538 l 0.2775,0.0186 0.46457,-0.015 c 0.15599,-0.0204 0.28862,-0.0426 0.39843,-0.0661 0.12625,-0.0379 0.17548,-0.0809 0.14779,-0.12919 l 0.0145,-0.20774 c 0.004,-0.0616 -0.0378,-0.13387 -0.12506,-0.21704 -0.1847,-0.0124 -0.38189,-0.0646 -0.59221,-0.15607 -0.2103,-0.0914 -0.41279,-0.18244 -0.60771,-0.27285 -0.19389,-0.1058 -0.35757,-0.20157 -0.49093,-0.28784 -0.13337,-0.0863 -0.20788,-0.1297 -0.22324,-0.13074 l 0.0279,-0.41548 0.1633,-0.3607 0.11111,-0.27078 c 0.037,-0.0903 0.0568,-0.1506 0.0589,-0.18139 0.002,-0.0308 0.0304,-0.11416 0.0858,-0.24959 0.0709,-0.13439 0.142,-0.27605 0.21394,-0.42582 0.0873,-0.14875 0.1668,-0.29039 0.23771,-0.42478 0.0709,-0.13439 0.10697,-0.21725 0.10904,-0.24804 0.0617,-0.22777 0.11441,-0.43283 0.15761,-0.61547 0.0586,-0.18159 0.11708,-0.36307 0.1757,-0.54467 0.074,-0.18056 0.15608,-0.36835 0.2465,-0.56327 0.10687,-0.20928 0.24706,-0.45533 0.42064,-0.73743 -0.0554,-0.0965 0.0421,-0.15951 0.29146,-0.18913 0.26579,-0.044 0.56881,-0.0694 0.9095,-0.0775 0.35608,-0.007 0.70318,5.2e-4 1.0418,0.0233 0.35504,0.008 0.59414,0.0165 0.71727,0.0248 l 0.2775,0.0186 c 0.0924,0.006 0.22137,0.0385 0.38758,0.0961 0.16724,0.0422 0.32565,0.0991 0.47542,0.17105 0.16622,0.0576 0.3094,0.1135 0.42943,0.16795 0.13546,0.0555 0.21097,0.0838 0.22634,0.0848 0.0112,0.0626 0.0437,0.15797 0.0971,0.28525 0.0697,0.11291 0.13752,0.24864 0.20413,0.40773 0.083,0.14473 0.15028,0.29618 0.20153,0.45424 0.0676,0.14369 0.0966,0.2847 0.0873,0.42323 -0.002,0.0308 0.0158,0.1089 0.0537,0.23513 0.0379,0.12624 0.0747,0.26775 0.11059,0.42478 0.0369,0.14163 0.0742,0.27631 0.11214,0.40255 0.0379,0.12624 0.0558,0.20487 0.0537,0.23565 -0.008,0.12313 0.007,0.23166 0.0475,0.32711 0.041,0.0801 0.0814,0.16809 0.12144,0.26355 0.04,0.0955 0.0793,0.20656 0.11731,0.3328 0.0379,0.12624 0.0496,0.28928 0.0362,0.48937 -0.0228,0.33863 -0.01,0.60233 0.0398,0.79117 0.0491,0.18884 0.0546,0.34351 0.0155,0.46457 l -0.14831,0.12971 -1.4056,0.2067 c -0.0319,0.0133 -0.0653,0.0579 -0.10128,0.13281 -0.035,0.0595 -0.0563,0.15024 -0.0646,0.27337 0.0431,0.0493 0.13226,0.10212 0.26769,0.15761 0.13646,0.0401 0.28854,0.0814 0.45578,0.12351 0.16829,0.0268 0.33557,0.0607 0.50282,0.10284 0.16724,0.0422 0.30309,0.0902 0.40772,0.14366 l 3.07062,0.20619 c 0.24626,0.0165 0.50262,0.003 0.76842,-0.0408 0.28224,-0.0583 0.45096,-0.15551 0.50643,-0.29094 -0.11072,-0.19298 -0.25557,-0.33386 -0.43511,-0.42323 -0.1631,-0.10373 -0.32782,-0.18429 -0.49403,-0.24184 -0.15082,-0.0565 -0.2788,-0.11196 -0.38344,-0.16537 -0.10361,-0.0688 -0.15193,-0.15684 -0.14469,-0.26458 -0.0287,-0.0328 -0.0717,-0.0821 -0.12919,-0.14779 -0.0421,-0.0647 -0.0835,-0.12912 -0.12558,-0.19379 -0.0574,-0.0657 -0.1068,-0.1464 -0.14676,-0.24185 0.002,-0.0308 -0.0165,-0.0942 -0.0563,-0.18965 -0.04,-0.0955 -0.0795,-0.19818 -0.11833,-0.30902 -0.0389,-0.11085 -0.0784,-0.21461 -0.11834,-0.31006 -0.04,-0.0955 -0.059,-0.15835 -0.0569,-0.18914 l -0.10128,-0.56327 c 0.002,-0.0308 -0.0243,-0.10206 -0.0786,-0.21394 -0.0543,-0.11188 -0.1158,-0.23188 -0.18449,-0.36019 -0.0533,-0.12727 -0.10687,-0.24727 -0.16123,-0.35915 -0.039,-0.11085 -0.0574,-0.1816 -0.0553,-0.21239 -0.0469,-0.45153 -0.14091,-1.00667 -0.28215,-1.66553 -0.12588,-0.65784 -0.32058,-1.33555 -0.58291,-2.03347 -0.0389,-0.11085 -0.0778,-0.21409 -0.11783,-0.30954 l -0.077,-0.23719 c -0.0257,-0.079 -0.0372,-0.14141 -0.0341,-0.18759 0.002,-0.0308 -0.0153,-0.1094 -0.0532,-0.23564 -0.0379,-0.12624 -0.0757,-0.26041 -0.11265,-0.40205 -0.0369,-0.14163 -0.0742,-0.27528 -0.11214,-0.40152 -0.0379,-0.12624 -0.0558,-0.20486 -0.0537,-0.23565 l -0.10129,-0.56327 c 0.002,-0.0308 -0.0174,-0.0864 -0.0584,-0.1664 -0.041,-0.0801 -0.0814,-0.1681 -0.12144,-0.26355 -0.04,-0.0955 -0.0804,-0.18296 -0.12144,-0.26303 -0.041,-0.0801 -0.0604,-0.13562 -0.0584,-0.1664 0.0114,-0.16931 -0.0161,-0.33339 -0.0827,-0.49248 -0.0512,-0.15805 -0.11798,-0.31736 -0.19999,-0.47749 -0.0821,-0.16013 -0.15713,-0.31208 -0.22479,-0.45578 -0.0512,-0.15806 -0.0719,-0.3059 -0.0625,-0.44442 0.002,-0.0308 -0.0174,-0.0864 -0.0584,-0.1664 -0.041,-0.0801 -0.0893,-0.16809 -0.1447,-0.26458 -0.04,-0.0955 -0.0799,-0.18348 -0.12092,-0.26355 -0.041,-0.0801 -0.061,-0.1351 -0.0589,-0.16588 -0.0849,-0.57777 -0.16502,-1.00079 -0.23978,-1.26866 -0.0748,-0.26787 -0.16254,-0.45179 -0.26407,-0.55139 -0.1005,-0.11498 -0.22796,-0.16989 -0.38292,-0.16484 -0.13853,-0.009 -0.30737,-0.0286 -0.50643,-0.0574 z m -50.890438,0.14779 c -0.0323,-7.1e-4 -0.06489,9.7e-4 -0.09767,0.005 h -2.869076 c -0.107985,0.0771 -0.193058,0.18518 -0.254764,0.32401 -0.04628,0.13884 -0.05411,0.26985 -0.02325,0.39326 0.154265,0.16969 0.370345,0.32366 0.648023,0.4625 0.277677,0.13884 0.586141,0.17016 0.925525,0.093 0.169692,0.0926 0.308526,0.19277 0.416512,0.30075 0.107985,0.10799 0.162264,0.34704 0.162264,0.71727 0,0.18512 0.01514,0.37772 0.04599,0.57826 0.03085,0.20055 0.06165,0.38583 0.0925,0.55552 0.04628,0.15427 0.0849,0.28527 0.115756,0.39326 0.03085,0.10799 0.03868,0.16958 0.02325,0.185 0.03085,0.0771 0.01572,0.193 -0.04599,0.34727 -0.06171,0.13884 -0.09302,0.26202 -0.09302,0.37 v 5.60018 c 0.01543,0.0308 0.03891,0.10027 0.06976,0.20825 0.03085,0.0926 0.06165,0.2006 0.0925,0.32401 0.03085,0.10799 0.05382,0.22334 0.06925,0.34675 0.03085,0.10799 0.04651,0.19306 0.04651,0.25477 0,0.0771 -0.04645,0.17735 -0.13901,0.30076 -0.09256,0.10799 -0.13901,0.20036 -0.13901,0.2775 v 2.01331 c -0.03085,0.0308 -0.06896,0.12324 -0.115238,0.2775 -0.03085,0.15427 -0.08513,0.24717 -0.162264,0.27802 -0.308531,0.16969 -0.555405,0.3007 -0.740523,0.39326 -0.169692,0.0926 -0.323666,0.16198 -0.462504,0.20826 -0.123412,0.0463 -0.247108,0.0771 -0.37052,0.0925 -0.107986,0.0154 -0.254648,0.0227 -0.439767,0.0227 l -0.138493,0.139 c 0,0.13883 0.03079,0.26985 0.0925,0.39326 0.07713,0.12342 0.238935,0.185 0.485759,0.185 0.293104,0 0.53215,-0.0156 0.717268,-0.0465 0.185119,-0.0463 0.370404,-0.0844 0.555522,-0.11524 0.185119,-0.0463 0.409026,-0.0776 0.671277,-0.093 0.262251,-0.0308 0.616648,-0.0377 1.064018,-0.0222 0.123412,0.0926 0.270075,0.13849 0.439766,0.13849 h 0.995288 c 0.01543,-0.0463 0.05353,-0.0698 0.115239,-0.0698 l 0.185518,-0.0465 c 0.07713,-0.0154 0.138722,-0.0462 0.185002,-0.0925 0.04628,-0.0463 0.06925,-0.12301 0.06925,-0.231 0,-0.12341 -0.09238,-0.20848 -0.277502,-0.25476 -0.185118,-0.0463 -0.401198,-0.0849 -0.648023,-0.11576 -0.231398,-0.0308 -0.454789,-0.0616 -0.67076,-0.0925 -0.215971,-0.0463 -0.347494,-0.12352 -0.393774,-0.23151 0,-0.27767 0.0078,-0.50106 0.02325,-0.67076 0.01543,-0.18511 0.03108,-0.35474 0.04651,-0.50901 0.03085,-0.15426 0.04599,-0.30093 0.04599,-0.43977 0.01543,-0.13883 0.02325,-0.31629 0.02325,-0.53226 0,-0.0463 -0.0078,-0.12353 -0.02325,-0.23151 -0.01543,-0.10799 -0.03057,-0.22386 -0.04599,-0.34727 -0.01543,-0.13884 -0.03108,-0.26202 -0.04651,-0.37 -0.01543,-0.10799 -0.02325,-0.1774 -0.02325,-0.20826 v -0.64802 c 0.01543,-0.24682 0.01543,-0.47805 0,-0.69402 0,-0.2314 -0.01514,-0.41668 -0.04599,-0.55552 -0.01543,-0.15426 -0.05405,-0.23882 -0.115756,-0.25424 v -0.13901 l 0.161748,-0.43977 v -3.00809 c 0,-0.10798 -0.01514,-0.18523 -0.04599,-0.23151 -0.01543,-0.0617 -0.03891,-0.13895 -0.06976,-0.23151 -0.01543,-0.0926 -0.03057,-0.22356 -0.04599,-0.39325 -0.01543,-0.1697 -0.01543,-0.40874 0,-0.71727 0,-0.20055 0.03862,-0.32373 0.115756,-0.37001 0.09256,-0.0617 0.154148,-0.0774 0.185001,-0.0465 0.04628,-0.0308 0.107869,-0.0225 0.185002,0.0238 0.07713,0.0463 0.154378,0.0849 0.23151,0.11575 0,0.0308 0.02297,0.0924 0.06925,0.185 0.04628,0.0771 0.09273,0.16169 0.139009,0.25425 0.06171,0.0771 0.115468,0.16221 0.161748,0.25477 0.04628,0.0771 0.06976,0.13089 0.06976,0.16174 0.293104,0.20055 0.4857,0.35504 0.578259,0.46302 0.09256,0.10799 0.18546,0.28544 0.278019,0.53227 0,0.0463 0.03811,0.10004 0.115239,0.16175 0.07713,0.0617 0.154377,0.13112 0.23151,0.20825 0.09256,0.0617 0.177632,0.13113 0.254765,0.20826 0.07713,0.0617 0.115755,0.10815 0.115755,0.13901 0.200545,0.26225 0.370174,0.4705 0.509013,0.62477 l 0.393258,0.39326 c 0.123412,0.10799 0.254418,0.21603 0.393257,0.32401 0.154266,0.0926 0.347378,0.22356 0.578776,0.39325 0.03085,0.0309 0.07679,0.10027 0.138493,0.20826 0.07713,0.10798 0.14655,0.23168 0.208256,0.37052 0.07713,0.12341 0.14655,0.23929 0.208256,0.34727 l 5.17e-4,5.1e-4 2.415873,-1.24437 c -0.109828,-0.11871 -0.218681,-0.2378 -0.33383,-0.35295 -0.339384,-0.33939 -0.68647,-0.66402 -1.04128,-0.97255 -0.339384,-0.30853 -0.655158,-0.58568 -0.948262,-0.8325 -0.277677,-0.24682 -0.509413,-0.45508 -0.694531,-0.62477 -0.169692,-0.16969 -0.254248,-0.28557 -0.254248,-0.34727 -0.123412,-0.2314 -0.247108,-0.43965 -0.37052,-0.62477 -0.123412,-0.18512 -0.285214,-0.3083 -0.485759,-0.37 -0.09256,-0.0617 -0.169804,-0.16192 -0.23151,-0.30076 -0.06171,-0.15427 -0.123295,-0.30876 -0.185002,-0.46302 -0.04628,-0.15427 -0.107869,-0.28526 -0.185002,-0.39325 -0.06171,-0.10799 -0.146778,-0.15444 -0.254764,-0.13901 -0.107986,0 -0.223853,-0.0543 -0.347266,-0.16227 -0.123412,-0.12341 -0.238763,-0.24607 -0.346749,-0.36948 -0.09256,-0.12341 -0.18546,-0.23146 -0.278019,-0.32402 -0.07713,-0.10799 -0.138722,-0.15443 -0.185002,-0.139 -0.30853,-0.4628 -0.586199,-0.82554 -0.833024,-1.08779 -0.202473,-0.22947 -0.41675,-0.34641 -0.642855,-0.3514 z m -13.773319,0.0506 -4.234884,1.03767 c 0.212119,0.0438 0.368651,0.0985 0.463021,0.16588 0.123412,0.0617 0.200657,0.1233 0.23151,0.185 0.03085,0.0617 0.06948,0.10816 0.115756,0.13901 -0.01543,0.0926 -0.02325,0.20791 -0.02325,0.34675 l 0.04651,0.37052 c 0.03085,0.12341 0.05382,0.23876 0.06925,0.34675 0.03085,0.0926 0.04651,0.16197 0.04651,0.20825 -0.03085,0.0926 -0.09244,0.32429 -0.185001,0.69453 -0.07713,0.37023 -0.115756,1.00282 -0.115756,1.89756 0,0.23139 0.03079,0.48558 0.0925,0.76326 0.07713,0.26225 0.100094,0.43971 0.06925,0.53227 -0.04628,0.10799 -0.09273,0.22386 -0.13901,0.34727 -0.04628,0.10798 -0.05359,0.1774 -0.02274,0.20825 0,0.15427 0.02297,0.25448 0.06925,0.30076 0.06171,0.0463 0.0925,0.13866 0.0925,0.2775 0,0.15427 -0.03079,0.27014 -0.0925,0.34727 -0.04628,0.0771 -0.06925,0.15438 -0.06925,0.23151 0,0.0308 0.02297,0.13106 0.06925,0.30075 0.06171,0.15426 0.0925,0.33956 0.0925,0.55553 v 2.86907 c 0,0.0771 0.02297,0.17735 0.06925,0.30076 0.04628,0.10799 0.06976,0.20089 0.06976,0.27802 -0.123412,0.21597 -0.17769,0.46232 -0.162264,0.74 0.01543,0.26225 2.84e-4,0.50913 -0.04599,0.74053 -0.04628,0.2314 -0.162147,0.4245 -0.347265,0.57877 -0.169692,0.15426 -0.508951,0.23151 -1.018026,0.23151 -0.154265,0.0463 -0.300928,0.13867 -0.439767,0.27751 -0.123412,0.12341 -0.169862,0.27006 -0.139009,0.43976 0.262251,0.12341 0.439708,0.17718 0.532267,0.16175 0.09256,-0.0308 0.154665,-0.0388 0.185519,-0.0233 0.107985,0 0.231163,-0.007 0.370003,-0.0227 0.154265,-0.0154 0.300928,-0.0311 0.439766,-0.0465 0.138839,-0.0154 0.25419,-0.0311 0.346749,-0.0465 0.107986,-0.0154 0.154436,-0.0227 0.13901,-0.0227 0,0.0771 0.10804,0.12306 0.324011,0.13849 h 0.763778 c 0.293104,0 0.578083,0.008 0.855761,0.0233 0.277678,0 0.48593,0.0386 0.624768,0.11575 0.04628,0 0.169976,0.008 0.37052,0.0233 0.215972,0.0154 0.439879,0.0154 0.671277,0 0.231398,-0.0154 0.431822,-0.054 0.601514,-0.11576 0.169692,-0.0617 0.246937,-0.16974 0.23151,-0.32401 0,-0.0617 -0.07725,-0.11547 -0.23151,-0.16175 -0.154265,-0.0617 -0.316583,-0.11598 -0.486275,-0.16226 -0.169692,-0.0463 -0.331493,-0.0927 -0.485759,-0.13901 -0.154265,-0.0463 -0.23151,-0.0844 -0.23151,-0.11524 -0.154266,-0.0308 -0.285273,-0.10027 -0.393258,-0.20825 -0.09256,-0.12341 -0.177632,-0.24711 -0.254765,-0.37052 -0.06171,-0.13884 -0.115467,-0.26203 -0.161747,-0.37001 -0.03085,-0.10799 -0.05382,-0.1774 -0.06925,-0.20825 0,-0.40109 0.03079,-0.7868 0.0925,-1.15704 0.07713,-0.38566 0.146549,-0.66333 0.208256,-0.83302 v -0.13901 c 0,-0.4628 -0.03079,-0.88713 -0.0925,-1.27279 -0.06171,-0.40109 -0.07736,-0.64797 -0.04651,-0.74053 0.09256,-0.0771 0.13901,-0.25458 0.13901,-0.53226 v -0.76326 l 0.138492,-0.13901 c 0.231398,0 0.455306,-0.008 0.671277,-0.0233 0.231398,-0.0154 0.43965,0.008 0.624768,0.0698 0.200545,0.0463 0.38583,0.16162 0.555522,0.34674 0.169692,0.18512 0.316354,0.48628 0.439766,0.90279 l 0.43925,0.55501 c 0,0.0463 0.03079,0.12352 0.0925,0.23151 0.06171,0.10799 0.123812,0.23168 0.185518,0.37052 0.07713,0.12341 0.14655,0.23876 0.208256,0.34675 0.06171,0.10798 0.0925,0.1774 0.0925,0.20825 0.200545,0.18512 0.347207,0.38605 0.439767,0.60203 0.09256,0.20054 0.169287,0.4088 0.230993,0.62477 0.06171,0.20055 0.131124,0.40096 0.208256,0.60151 0.07713,0.20054 0.208657,0.40098 0.393775,0.60152 0.107986,0.21597 0.215508,0.4164 0.323494,0.60151 0.107985,0.1697 0.239509,0.35497 0.393774,0.55552 0,0.0308 0.02297,0.0924 0.06925,0.185 0.04628,0.0771 0.09273,0.16221 0.13901,0.25477 0.06171,0.0771 0.115467,0.16169 0.161747,0.25425 0.04628,0.0771 0.06925,0.13141 0.06925,0.16226 -0.01543,0.0463 2.27e-4,0.0849 0.04651,0.11576 0.06171,0.0154 0.138951,0.0306 0.23151,0.046 h 0.277503 c 0.107985,-0.0154 0.208197,-0.0233 0.300757,-0.0233 0.03085,0 0.10027,0.008 0.208256,0.0233 0.107986,0.0154 0.223853,0.0311 0.347265,0.0465 0.138839,0.0154 0.262018,0.0306 0.370004,0.046 0.107985,0.0154 0.18523,0.0232 0.23151,0.0232 0.07713,0 0.193,-0.0465 0.347266,-0.13901 0.169692,-0.0926 0.29287,-0.13849 0.370003,-0.13849 0.07713,0 0.146549,0.007 0.208256,0.0227 0.06171,0.0154 0.138951,0.0389 0.23151,0.0698 0.107986,0.0154 0.231681,0.0306 0.37052,0.046 0.154266,0.0154 0.362518,0.0154 0.624768,0 0.04628,-0.0154 0.100041,-0.054 0.161748,-0.11575 0.07713,-0.0617 0.115755,-0.16193 0.115755,-0.30076 -0.107986,-0.12342 -0.20037,-0.20797 -0.277503,-0.25425 -0.07713,-0.0617 -0.177861,-0.11598 -0.301273,-0.16226 -0.107986,-0.0617 -0.254132,-0.13113 -0.43925,-0.20826 -0.169692,-0.0771 -0.401427,-0.20813 -0.694531,-0.39325 -0.04628,0 -0.100041,-0.0308 -0.161747,-0.0925 -0.06171,-0.0617 -0.131124,-0.12331 -0.208256,-0.18501 -0.06171,-0.0771 -0.131124,-0.14654 -0.208256,-0.20825 -0.06171,-0.0617 -0.108157,-0.0925 -0.13901,-0.0925 -0.215971,-0.13884 -0.377772,-0.24688 -0.485758,-0.32401 -0.09256,-0.0926 -0.177633,-0.18546 -0.254765,-0.27802 -0.06171,-0.10798 -0.146263,-0.22334 -0.254248,-0.34675 -0.09256,-0.12341 -0.239221,-0.28574 -0.439767,-0.48628 -0.07713,-0.10799 -0.146549,-0.29275 -0.208256,-0.555 -0.06171,-0.27768 -0.138951,-0.51672 -0.23151,-0.71727 0,-0.0309 -0.03079,-0.0773 -0.0925,-0.13901 -0.06171,-0.0771 -0.131123,-0.14656 -0.208256,-0.20826 -0.06171,-0.0771 -0.123295,-0.14654 -0.185002,-0.20825 -0.06171,-0.0771 -0.0925,-0.13142 -0.0925,-0.16227 l -0.278019,-0.57826 c 0,-0.0309 -0.03862,-0.1081 -0.115755,-0.23151 -0.07713,-0.13884 -0.161689,-0.27767 -0.254248,-0.41651 -0.07713,-0.13884 -0.154378,-0.26985 -0.23151,-0.39326 -0.07713,-0.13884 -0.115756,-0.2239 -0.115756,-0.25476 -0.123412,-0.10798 -0.207968,-0.21551 -0.254248,-0.3235 -0.03085,-0.10799 -0.04651,-0.20088 -0.04651,-0.27801 0,-0.0771 0.0078,-0.14655 0.02325,-0.20826 0.01543,-0.0771 0.01543,-0.13872 0,-0.185 0.07713,0 0.193,-0.023 0.347266,-0.0693 0.169692,-0.0463 0.29287,-0.0698 0.370003,-0.0698 0.03085,0 0.08461,-0.0386 0.161747,-0.11576 0.09256,-0.0771 0.177632,-0.15385 0.254765,-0.23099 l 0.254765,-0.25477 c 0.09256,-0.0771 0.154148,-0.11575 0.185001,-0.11575 0.169692,-0.10798 0.347149,-0.2082 0.532268,-0.30076 0.185118,-0.0926 0.293157,-0.18494 0.324011,-0.2775 0.03085,-0.0771 0.06896,-0.19301 0.115238,-0.34727 0.06171,-0.16969 0.115984,-0.33932 0.162264,-0.50901 0.06171,-0.18512 0.115467,-0.35474 0.161747,-0.50901 0.04628,-0.16969 0.09273,-0.29338 0.13901,-0.37052 0.01543,-0.0463 0.03108,-0.123 0.04651,-0.23099 0.01543,-0.12341 0.03056,-0.23928 0.04599,-0.34727 0.01543,-0.12341 0.02325,-0.22363 0.02325,-0.30076 0.01543,-0.0926 0.02326,-0.13118 0.02326,-0.11575 -0.03085,-0.0617 -0.08513,-0.16192 -0.162264,-0.30076 -0.06171,-0.15426 -0.131124,-0.30875 -0.208256,-0.46302 -0.06171,-0.16969 -0.131124,-0.32366 -0.208256,-0.4625 l -0.138493,-0.34727 c -0.04628,-0.0154 -0.115697,-0.077 -0.208256,-0.185 -0.07713,-0.10798 -0.170033,-0.22386 -0.278019,-0.34727 -0.107986,-0.13884 -0.208198,-0.26201 -0.300757,-0.37 -0.09256,-0.12341 -0.161976,-0.20849 -0.208256,-0.25477 -0.07713,0 -0.200312,-0.0157 -0.370004,-0.0465 -0.154265,-0.0308 -0.323894,-0.0616 -0.509012,-0.0925 l -0.50953,-0.0925 c -0.154265,-0.0308 -0.269616,-0.046 -0.346749,-0.046 -0.07713,0 -0.223795,-0.0464 -0.439766,-0.13901 -0.200546,-0.0926 -0.33938,-0.13901 -0.416512,-0.13901 -0.246824,0 -0.54746,-0.007 -0.902271,-0.0227 -0.339383,-0.0154 -0.709953,-0.0389 -1.111043,-0.0698 z m -0.416512,0.94878 c 0.09256,-1e-5 0.185459,0.0235 0.278019,0.0698 0.107986,0.0308 0.223337,0.0768 0.346749,0.13849 0.138839,0.0463 0.293329,0.0927 0.463021,0.13901 0.169692,0.0463 0.377943,0.0692 0.624768,0.0692 0.385663,0.0617 0.701955,0.17758 0.948779,0.34727 0.262251,0.1697 0.470503,0.34715 0.624768,0.53227 0.154265,0.18512 0.262309,0.36257 0.324011,0.53226 0.07714,0.16969 0.115756,0.27774 0.115756,0.32402 0,0.0926 0.02297,0.20008 0.06925,0.32349 0.04628,0.12342 0.100037,0.23928 0.161747,0.34727 0.06171,0.10799 0.10816,0.20819 0.13901,0.30075 0.04628,0.0771 0.06194,0.13142 0.04651,0.16227 0,0.15427 -0.05428,0.30824 -0.162264,0.4625 -0.09256,0.15427 -0.192771,0.31659 -0.300757,0.48628 -0.107986,0.16969 -0.208197,0.34663 -0.300757,0.53175 -0.09256,0.16969 -0.123352,0.34714 -0.0925,0.53226 -0.04628,0.0154 -0.107871,0.0697 -0.185001,0.16227 -0.07713,0.0926 -0.162205,0.19276 -0.254765,0.30075 -0.07713,0.0926 -0.169517,0.18495 -0.277503,0.27751 -0.09256,0.0771 -0.185459,0.11575 -0.278019,0.11575 -0.06171,0.0926 -0.169746,0.14684 -0.324011,0.16227 h -0.531751 c -0.185118,-0.0154 -0.378231,-0.0154 -0.578776,0 -0.185118,0 -0.331781,0.0459 -0.439766,0.13849 h -0.555005 c -0.123412,-0.0154 -0.216309,-0.0692 -0.278019,-0.16175 -0.06171,-0.0926 -0.115467,-0.23139 -0.161747,-0.41651 -0.03085,-0.20054 -0.0773,-0.48605 -0.13901,-0.85628 0,-0.0771 -0.0078,-0.19299 -0.02325,-0.34726 -0.01543,-0.16969 -0.0384,-0.33933 -0.06925,-0.50902 -0.01543,-0.18512 -0.03108,-0.35474 -0.04651,-0.50901 -0.01544,-0.16969 -0.02274,-0.29287 -0.02274,-0.37 -0.06171,-0.0463 -0.115984,-0.10056 -0.162264,-0.16227 -0.04628,-0.0771 -0.08491,-0.15438 -0.115756,-0.23151 -0.01542,-0.0771 -0.03056,-0.14654 -0.04599,-0.20825 0,-0.0617 0.01514,-0.0998 0.04599,-0.11524 0,-0.33938 0.01566,-0.61706 0.04651,-0.83303 0.03086,-0.2314 0.06948,-0.4245 0.115755,-0.57877 0.04628,-0.15426 0.09221,-0.28527 0.138493,-0.39326 0.06171,-0.10798 0.10816,-0.22386 0.13901,-0.34727 0.107985,-0.0463 0.208197,-0.10003 0.300757,-0.16174 0.07713,-0.0463 0.15438,-0.0927 0.23151,-0.13901 0.07713,-0.0463 0.138722,-0.0849 0.185002,-0.11576 z m 51.398409,0.17415 -2.83135,0.49558 c 0.13852,0.009 0.27489,0.049 0.40928,0.11989 0.13542,0.0555 0.26184,0.12562 0.37982,0.21084 0.13439,0.0709 0.25348,0.141 0.35709,0.2098 0.10359,0.0688 0.18596,0.11277 0.24649,0.1323 0.30255,0.32954 0.57652,0.62602 0.82166,0.88986 0.24513,0.26384 0.46561,0.54988 0.66146,0.8568 0.21125,0.30794 0.38776,0.66745 0.5302,1.079 0.15887,0.3972 0.30301,0.90144 0.43201,1.51309 -0.005,0.077 0.0311,0.22634 0.10904,0.44803 0.079,0.2063 0.11576,0.34782 0.11059,0.42478 -0.0672,1.00047 -0.16549,1.77496 -0.29508,2.32286 -0.11309,0.53356 -0.23384,0.94314 -0.36122,1.22835 -0.12634,0.26982 -0.23938,0.46287 -0.34003,0.57981 -0.0995,0.10154 -0.15502,0.229 -0.16536,0.38292 0.005,0.15495 -0.11588,0.35587 -0.36432,0.60203 -0.23203,0.2318 -0.50286,0.46066 -0.81184,0.6873 -0.29359,0.22767 -0.58543,0.43241 -0.87591,0.61391 -0.2751,0.18252 -0.45328,0.30224 -0.53434,0.35864 -0.17344,0.0502 -0.34849,0.12376 -0.52503,0.22014 -0.16011,0.082 -0.35088,0.16138 -0.57257,0.23926 -0.2063,0.0789 -0.45057,0.14732 -0.73278,0.20567 -0.2658,0.044 -0.5835,0.0543 -0.95291,0.0295 -0.19089,0.0799 -0.39429,0.11264 -0.60978,0.0982 l -1.10846,-0.0744 c -0.0769,-0.005 -0.19656,-0.0595 -0.35967,-0.1633 -0.14669,-0.11808 -0.25897,-0.17983 -0.33589,-0.185 -0.12209,-0.0237 -0.22853,-0.0461 -0.31988,-0.0677 -0.0914,-0.0216 -0.17422,-0.0504 -0.24908,-0.0863 -0.0749,-0.0359 -0.15669,-0.0878 -0.24495,-0.15555 -0.0872,-0.0832 -0.18848,-0.19105 -0.30334,-0.32246 -0.0707,-0.0975 -0.13804,-0.24846 -0.20154,-0.45372 -0.0625,-0.22065 -0.11089,-0.41722 -0.14572,-0.58963 0.0465,-0.69264 0.0849,-1.37005 0.11368,-2.03295 0.03,-0.67828 0.0608,-1.36461 0.092,-2.05827 0.0321,-0.70907 0.0655,-1.44102 0.10077,-2.19625 0.035,-0.75526 0.0827,-1.57161 0.14159,-2.44895 0.007,-0.10775 0.0283,-0.31487 0.0646,-0.62166 0.0361,-0.3068 0.0735,-0.63663 0.11265,-0.98961 2.1e-4,-0.002 3.1e-4,-0.003 5.2e-4,-0.005 l -2.41691,0.42323 -0.2434,3.62407 c -0.0227,0.33862 -0.0379,0.67049 -0.0439,0.99477 0.009,0.3253 0.0198,0.62729 0.032,0.90641 0.0133,0.26373 0.0129,0.49547 -5.2e-4,0.69556 0.003,0.18574 -0.006,0.32416 -0.0279,0.41548 l -0.19069,0.42788 c -0.007,0.10775 -0.0298,0.3227 -0.0667,0.64492 -0.0361,0.3068 -0.0735,0.63663 -0.11266,0.98961 -0.0392,0.35298 -0.0772,0.69066 -0.1142,1.01286 -0.036,0.30681 -0.0579,0.51444 -0.0651,0.62218 l -0.0186,0.27647 c -0.0329,0.0287 -0.0753,0.0802 -0.1266,0.154 l -0.10749,0.22479 c -0.036,0.0749 -0.08,0.14938 -0.13126,0.22324 -0.035,0.0595 -0.0679,0.0879 -0.0987,0.0858 -0.13852,-0.009 -0.29474,0.0113 -0.46819,0.0615 -0.15702,0.0358 -0.30641,0.08 -0.44907,0.13229 -0.14266,0.0523 -0.27053,0.1132 -0.38344,0.18293 -0.0965,0.0554 -0.15258,0.0906 -0.16898,0.10491 l -0.0103,0.13797 c -0.0883,0.16415 -0.0645,0.28208 0.0698,0.35295 0.14978,0.0719 0.32442,0.1142 0.52451,0.12764 0.21446,0.0299 0.42995,0.0443 0.64648,0.0434 0.21651,-9.3e-4 0.36281,0.009 0.43873,0.0295 0.0769,0.005 0.19541,-0.0332 0.35553,-0.11524 0.17551,-0.081 0.30183,-0.11834 0.37879,-0.11317 0.0308,0.002 0.0685,0.012 0.11369,0.0305 0.0605,0.0195 0.11353,0.0383 0.15865,0.0568 0.0595,0.0349 0.11196,0.0616 0.15709,0.0801 l 2.42414,0.16278 c 0.32323,0.0217 0.59222,0.0477 0.80667,0.0775 0.22985,0.0309 0.48993,0.0642 0.78135,0.0992 0.2914,0.035 0.66003,0.0746 1.10536,0.11989 0.46073,0.0464 1.08363,0.0961 1.86862,0.14883 0.13853,0.009 0.27115,-0.005 0.39739,-0.0424 0.12623,-0.0379 0.25307,-0.0842 0.38034,-0.13746 0.12726,-0.0533 0.26145,-0.098 0.40308,-0.13488 0.14163,-0.0369 0.28107,-0.0433 0.41857,-0.0186 0.42694,-0.14141 0.74093,-0.21302 0.94207,-0.21498 0.21755,-0.0163 0.38795,-0.0202 0.51108,-0.0119 0.12417,-0.007 0.2421,-0.0303 0.35295,-0.0693 0.11188,-0.0543 0.29053,-0.18925 0.53691,-0.40462 0.0308,0.002 0.0874,-0.0326 0.1695,-0.10439 0.0976,-0.0708 0.18764,-0.14215 0.26975,-0.21394 l 0.27079,-0.2372 c 0.0976,-0.0708 0.16195,-0.1049 0.19275,-0.10283 0.41672,-0.2194 0.76412,-0.45096 1.04335,-0.69505 0.27923,-0.2441 0.51333,-0.50648 0.70228,-0.78755 0.18997,-0.29648 0.35901,-0.61801 0.50591,-0.96376 0.14793,-0.36114 0.29907,-0.77601 0.45424,-1.24489 0.0124,-0.18471 0.0411,-0.3761 0.0853,-0.57412 0.0453,-0.21342 0.0911,-0.44207 0.13849,-0.68627 0.0638,-0.25856 0.11435,-0.54906 0.15141,-0.87126 0.0525,-0.32116 0.0935,-0.69713 0.12247,-1.1281 -0.0667,-0.15909 -0.10349,-0.30847 -0.10955,-0.44803 -0.006,-0.13956 -0.0325,-0.31936 -0.0796,-0.53899 -0.0317,-0.21858 -0.11375,-0.4943 -0.24598,-0.82786 -0.13222,-0.33357 -0.35074,-0.76589 -0.65526,-1.29656 -0.11591,-0.11601 -0.21409,-0.26167 -0.29507,-0.43718 -0.0656,-0.17448 -0.13916,-0.34166 -0.22118,-0.50178 -0.0666,-0.15908 -0.14225,-0.3032 -0.22634,-0.43253 -0.0841,-0.12934 -0.17855,-0.22099 -0.28319,-0.2744 -0.0882,-0.0678 -0.1601,-0.15001 -0.21549,-0.2465 -0.0543,-0.11187 -0.10892,-0.21616 -0.16433,-0.31264 -0.04,-0.0954 -0.0961,-0.17666 -0.16898,-0.2434 -0.0574,-0.0657 -0.14032,-0.1018 -0.24805,-0.10903 l -0.29094,-0.15865 c -0.10361,-0.0688 -0.27565,-0.15776 -0.51573,-0.26665 -0.12657,-0.0698 -0.25628,-0.13641 -0.38809,-0.20154 z m 54.00808,0.01 -1.15135,0.93586 c 0.0285,0.0273 0.0529,0.0534 0.0842,0.0816 0.14233,0.12036 0.28798,0.23041 0.4377,0.33021 0.14972,0.0998 0.28625,0.18919 0.40876,0.26769 0.11591,0.0646 0.198,0.0939 0.2465,0.0879 0.23994,0.0741 0.36238,0.007 0.36638,-0.19948 0.0118,-0.22747 -0.034,-0.5039 -0.13746,-0.83044 -0.0693,-0.21874 -0.15766,-0.44468 -0.25476,-0.67334 z m -112.216409,0.38654 c -0.03651,0.001 -0.04961,0.0145 -0.04961,0.0145 -0.201922,0.2097 -0.310704,0.37303 -0.240812,0.41186 0.06991,0.0388 0.186305,0.0698 0.318327,0.031 0.132018,-0.0388 0.504839,-0.18625 0.248563,-0.34934 -0.144155,-0.0917 -0.229526,-0.10979 -0.276468,-0.108 z m -8.245492,0.42375 c -0.210833,0.006 -0.411344,0.0816 -0.411344,0.0816 -0.139787,0.2951 -0.970878,0.91668 -0.209807,0.94774 0.761061,0.0311 1.219509,-0.72256 0.971,-0.93224 -0.09319,-0.0786 -0.223349,-0.10057 -0.349849,-0.0971 z m 7.162354,0.0925 -1.191659,0.29197 c 0.02756,0.0499 0.05468,0.10043 0.08372,0.14883 0.09256,0.15426 0.177118,0.2931 0.254248,0.41651 0.07713,0.108 0.138722,0.1696 0.185002,0.185 0.185118,0.16975 0.323952,0.16186 0.416512,-0.0233 0.107985,-0.20055 0.18523,-0.47039 0.23151,-0.80977 0.0092,-0.0674 0.01327,-0.13999 0.02067,-0.20929 z m 54.789937,0.30385 c -0.21083,0.006 -0.41083,0.0816 -0.41083,0.0816 -0.13979,0.2951 -0.97087,0.91617 -0.2098,0.94723 0.76106,0.0311 1.21951,-0.72204 0.971,-0.93172 -0.0932,-0.0786 -0.22387,-0.10057 -0.35037,-0.0972 z m -2.35851,0.22325 c -0.0625,-5.5e-4 -0.12355,0.0139 -0.17932,0.0424 -0.17956,0.0917 -0.26888,0.44188 -0.13229,0.59015 0.12749,0.13841 0.55914,-0.078 0.55914,-0.078 0,0 0.3341,0.0393 0.18655,-0.24804 -0.10606,-0.20653 -0.27429,-0.30505 -0.43408,-0.30644 z m -90.363479,0.0713 c -0.129192,0.003 -0.252181,0.0496 -0.252181,0.0496 v 5.2e-4 c -0.08566,0.18084 -0.594519,0.5618 -0.128158,0.58084 0.466355,0.019 0.747075,-0.44254 0.594796,-0.57103 -0.0571,-0.0482 -0.136942,-0.0619 -0.214457,-0.0599 z m 75.191276,0.10335 c 0,0 -0.851888,0.47621 -0.826823,0.60152 0.025,0.1253 0.03712,0.31303 0.488342,0.37568 0.451136,0.0627 0.977847,0.0128 1.015442,-0.43821 0.0375,-0.45114 -0.676961,-0.53899 -0.676961,-0.53899 z m 69.911493,0.0698 c 0,0 -0.4969,0.34487 -0.47387,0.42064 0.023,0.0758 0.0419,0.19119 0.32401,0.20257 0.28203,0.0114 0.60351,-0.0513 0.59945,-0.33176 -0.004,-0.28051 -0.44959,-0.29145 -0.44959,-0.29145 z m -34.70692,0.43925 c 0.0749,0.0359 0.1232,0.11663 0.14572,0.24184 0.0236,0.10981 0.0546,0.22723 0.0925,0.35347 -0.002,0.0308 0.017,0.0947 0.0568,0.19017 0.04,0.0955 0.0795,0.19818 0.11834,0.30902 0.0389,0.11085 0.0778,0.21408 0.11782,0.30954 0.04,0.0955 0.0595,0.15836 0.0574,0.18914 0.0574,0.0657 0.13102,0.23288 0.22118,0.50178 0.0902,0.2689 0.17121,0.56031 0.24288,0.87436 0.0881,0.29968 0.1618,0.58324 0.22117,0.85008 0.0594,0.26683 0.0947,0.43194 0.10594,0.49454 l -0.0372,0.55346 c -0.23088,-0.0155 -0.45734,0.0163 -0.67903,0.0941 -0.2217,0.0779 -0.46285,0.10802 -0.7245,0.0904 -0.0769,-0.005 -0.20018,-0.0214 -0.36845,-0.0481 -0.16829,-0.0268 -0.34447,-0.0544 -0.52814,-0.0822 -0.18366,-0.0278 -0.36668,-0.0554 -0.55035,-0.0832 -0.16825,-0.0268 -0.28361,-0.0423 -0.3452,-0.0465 -0.11385,-0.1468 -0.19051,-0.25997 -0.23151,-0.34003 -0.0256,-0.079 -0.0372,-0.14141 -0.0341,-0.18758 0.003,-0.0462 0.0132,-0.0767 0.0295,-0.091 0.0174,-0.0298 0.0192,-0.0607 0.006,-0.0925 0.0667,-0.0728 0.12061,-0.18508 0.16175,-0.33693 0.0576,-0.16621 0.11501,-0.33246 0.1726,-0.49867 0.005,-0.077 0.0612,-0.21229 0.16691,-0.40618 0.10584,-0.19389 0.16072,-0.32922 0.16589,-0.40618 0.007,-0.10774 0.0375,-0.20634 0.0899,-0.29559 0.0688,-0.10361 0.13683,-0.19911 0.20464,-0.28732 0.0842,-0.10258 0.1601,-0.19858 0.22789,-0.2868 0.0688,-0.1036 0.10748,-0.2169 0.11576,-0.34003 l 0.1757,-0.54467 c 0.08,-0.041 0.16385,-0.13599 0.25115,-0.28474 0.0873,-0.14875 0.2046,-0.27994 0.3514,-0.39377 z m -89.990893,0.50074 c -0.210833,0.006 -0.411344,0.0816 -0.411344,0.0816 -0.139787,0.29511 -0.970878,0.91617 -0.209807,0.94723 0.761061,0.0311 1.219509,-0.72206 0.971,-0.93173 -0.09319,-0.0786 -0.223349,-0.10057 -0.349849,-0.0971 z m 9.567891,0.0625 c -0.03651,0.001 -0.05013,0.015 -0.05013,0.015 -0.201922,0.2097 -0.310704,0.37251 -0.240812,0.41134 0.06991,0.0388 0.186305,0.0698 0.318327,0.031 0.132018,-0.0388 0.50484,-0.18626 0.248564,-0.34934 -0.144156,-0.0917 -0.22901,-0.10979 -0.275953,-0.108 z m -33.125626,0.10749 -2.391069,1.29862 c 0.02239,0.19044 0.0506,0.37319 0.08837,0.54312 0,0.47822 0.02297,0.90255 0.06925,1.27279 0.06171,0.37024 0.0925,0.57067 0.0925,0.60152 0,0.27768 -0.0078,0.54021 -0.02325,0.78703 -0.01543,0.2314 -0.03839,0.48558 -0.06925,0.76326 -0.01543,0.27767 -0.03057,0.60179 -0.04599,0.97203 -0.01543,0.37024 -0.02325,0.81753 -0.02325,1.34204 0.06171,0.20054 0.100328,0.35503 0.115755,0.46302 0.03085,0.10798 0.04599,0.18472 0.04599,0.231 0,0.0463 -0.0078,0.0776 -0.02325,0.093 0,0.0154 0.0078,0.0383 0.02325,0.0692 -0.123413,0.15427 -0.177173,0.40897 -0.161747,0.76378 0.03085,0.33938 0.03867,0.68647 0.02325,1.04128 0,0.35481 -0.06942,0.6711 -0.208256,0.94878 -0.123412,0.26225 -0.393769,0.39326 -0.810286,0.39326 H 10.86652 c -0.03085,0.0154 -0.08513,0.054 -0.162264,0.11575 -0.06171,0.0463 -0.123294,0.10004 -0.185001,0.16175 -0.04628,0.0617 -0.0849,0.12329 -0.115756,0.185 -0.03085,0.0617 -0.02303,0.10033 0.02326,0.11575 -0.06171,0.0463 -0.04657,0.1157 0.04599,0.20826 0.09256,0.0771 0.17763,0.15438 0.254765,0.23151 0.308531,0 0.578371,-0.008 0.809769,-0.0232 0.246824,-0.0154 0.478043,-0.0306 0.694015,-0.046 l 0.694531,-0.0465 c 0.231398,-0.0154 0.50124,-0.0233 0.80977,-0.0233 0.06171,0 0.14678,0.008 0.254765,0.0233 l 0.324011,0.0465 c 0.107986,0.0154 0.200369,0.0306 0.277502,0.046 0.07713,0.0154 0.123583,0.0232 0.13901,0.0232 0.07713,0 0.215967,-0.0229 0.416512,-0.0692 0.215971,-0.0463 0.362117,-0.0698 0.43925,-0.0698 h 0.787032 c 0.246824,-0.0154 0.508837,-0.0692 0.786515,-0.16175 0.07713,0 0.223794,0.0308 0.439766,0.0925 0.215971,0.0463 0.362634,0.0693 0.439767,0.0693 0.339384,0 0.655675,0.008 0.948779,0.0233 0.308531,0 0.609167,0.0386 0.902271,0.11575 0.586208,0 1.110751,-0.0156 1.573547,-0.0465 0.478223,-0.0308 0.917692,-0.0616 1.318782,-0.0925 0.40109,-0.0463 0.778971,-0.0849 1.133781,-0.11575 0.370236,-0.0308 0.748635,-0.046 1.134298,-0.046 0.107986,-0.0463 0.184714,-0.20077 0.230994,-0.46302 0.04628,-0.26225 0.0849,-0.55506 0.115755,-0.87901 0.04628,-0.33939 0.07707,-0.67865 0.0925,-1.01803 0.03085,-0.33938 0.0773,-0.60191 0.139009,-0.78703 0,-0.0771 -0.0078,-0.17735 -0.02325,-0.30076 0,-0.12341 -0.01514,-0.23928 -0.04599,-0.34726 -0.01543,-0.10799 -0.05405,-0.19255 -0.115755,-0.25425 -0.06171,-0.0771 -0.146779,-0.10793 -0.254765,-0.0925 -0.09256,-0.0154 -0.177115,0.0383 -0.254248,0.16175 -0.07713,0.10798 -0.154379,0.24682 -0.231511,0.41651 -0.06171,0.16969 -0.123294,0.33932 -0.185001,0.50901 -0.06171,0.16969 -0.123813,0.28556 -0.185519,0.34727 -0.262251,0.26225 -0.462674,0.49346 -0.601513,0.69401 -0.138839,0.18512 -0.254189,0.34744 -0.346749,0.48628 -0.07713,0.13883 -0.139238,0.24636 -0.185518,0.32349 -0.04628,0.0617 -0.100042,0.0852 -0.161748,0.0698 -0.03085,0 -0.100271,0.0151 -0.208256,0.046 -0.107986,0.0309 -0.231682,0.0617 -0.37052,0.0925 -0.123413,0.0309 -0.238764,0.0622 -0.346749,0.093 -0.107986,0.0309 -0.177403,0.046 -0.208256,0.046 -0.49365,0 -1.095436,0.023 -1.805057,0.0692 -0.694194,0.0463 -1.380539,0.0698 -2.059306,0.0698 -0.09256,0 -0.18546,0.0308 -0.278019,0.0925 -0.09256,0.0463 -0.184943,0.0927 -0.277503,0.13901 -0.07713,0.0463 -0.146549,0.0844 -0.208256,0.11523 -0.06171,0.0154 -0.100328,2.9e-4 -0.115755,-0.046 -0.154265,0 -0.300929,-0.023 -0.439767,-0.0692 -0.123413,-0.0463 -0.254418,-0.10056 -0.393257,-0.16227 -0.123412,-0.0617 -0.262247,-0.11547 -0.416512,-0.16175 -0.138839,-0.0463 -0.292813,-0.0619 -0.462504,-0.0465 l -0.27802,-0.27751 c 0,-0.50908 -0.0073,-0.97985 -0.02274,-1.4118 -0.01543,-0.44736 -0.03891,-0.89466 -0.06976,-1.34203 -0.01543,-0.4628 -0.03056,-0.94873 -0.04599,-1.4578 -0.01543,-0.52451 -0.02326,-1.12628 -0.02326,-1.80505 0.09256,-0.21597 0.254361,-0.34698 0.485759,-0.39326 0.246825,-0.0463 0.509355,-0.0692 0.787032,-0.0692 0.277678,0 0.547518,0.008 0.809769,0.0233 0.277678,0 0.493758,-0.0464 0.648023,-0.13901 h 0.138493 c 0.185118,0.0926 0.455476,0.13901 0.810286,0.13901 h 1.064018 c 0.416517,0 0.717669,0.0846 0.902787,0.25424 0.200545,0.15426 0.347208,0.34739 0.439767,0.57878 0.09256,0.2314 0.154147,0.47045 0.185001,0.71727 0.04628,0.24683 0.10787,0.44724 0.185002,0.60151 0.138839,0.20054 0.23905,0.34721 0.300757,0.43977 0.06171,0.0926 0.15409,0.13849 0.277502,0.13849 0.123412,0 0.216312,-0.0846 0.278019,-0.25425 0.06171,-0.16969 0.100329,-0.37011 0.115756,-0.60151 0.03085,-0.23139 0.04599,-0.46313 0.04599,-0.69453 v -0.60151 c 0,-0.44737 -0.03079,-0.9641 -0.0925,-1.5503 -0.04628,-0.60164 -0.06925,-1.17993 -0.06925,-1.73529 -0.308531,0 -0.508954,0.0616 -0.601513,0.185 -0.07713,0.12342 -0.131411,0.27738 -0.162264,0.4625 -0.03085,0.18512 -0.06948,0.37824 -0.115755,0.57878 -0.04628,0.18512 -0.177286,0.34692 -0.393258,0.48576 -0.107986,0 -0.262476,0.008 -0.463021,0.0233 l -0.555005,0.0465 c -0.231398,0.0309 -0.470445,0.0538 -0.717269,0.0693 -0.107986,-0.0154 -0.208714,-0.0384 -0.301273,-0.0693 -0.07713,-0.0154 -0.161689,-0.0311 -0.254248,-0.0465 -0.07713,-0.0154 -0.131411,-0.0233 -0.162264,-0.0233 -0.09256,0.0463 -0.184944,0.0849 -0.277503,0.11575 -0.09256,0.0154 -0.223565,0.0311 -0.393257,0.0465 h -0.648023 c -0.277678,-0.0154 -0.64773,-0.0232 -1.110526,-0.0232 -0.04628,-0.0617 -0.131353,-0.0925 -0.254765,-0.0925 -0.107986,0 -0.216025,-0.008 -0.324011,-0.0233 -0.107985,-0.0154 -0.208198,-0.0384 -0.300757,-0.0692 -0.07713,-0.0463 -0.115756,-0.13135 -0.115756,-0.25477 0,-0.0617 -0.03079,-0.16974 -0.0925,-0.32401 -0.03085,-0.0617 -0.05382,-0.13895 -0.06925,-0.23151 0,-0.10798 -0.0078,-0.26979 -0.02325,-0.48576 v -0.67128 c 0.01543,-0.2314 0.03108,-0.44696 0.04651,-0.6475 0.03085,-0.21597 0.07679,-0.37829 0.138492,-0.48628 0.01543,-0.0926 0.02326,-0.17711 0.02326,-0.25424 0,-0.13376 -0.05858,-0.23822 -0.173116,-0.31471 z m 145.756998,0.0615 -5.2e-4,5.2e-4 -2.52129,0.88625 c 0.0525,0.32103 0.12058,0.61677 0.20722,0.8816 0.0466,0.47594 0.1112,0.8959 0.19327,1.25987 0.0975,0.36246 0.14738,0.55893 0.15038,0.58963 0.0271,0.27636 0.0459,0.5383 0.0543,0.78548 0.007,0.2318 0.009,0.48699 0.005,0.76636 0.0116,0.27787 0.0283,0.60206 0.0491,0.97204 0.0208,0.36997 0.0564,0.8159 0.10748,1.3379 0.081,0.19358 0.13434,0.34361 0.1602,0.44958 0.0413,0.10446 0.0642,0.17925 0.0687,0.22531 0.005,0.0461 1.4e-4,0.0777 -0.0139,0.0946 0.002,0.0154 0.0109,0.0375 0.0294,0.0667 -0.10775,0.16555 -0.13623,0.42457 -0.0863,0.77618 0.0637,0.33477 0.10527,0.67943 0.12454,1.03405 0.0346,0.35312 -0.004,0.67439 -0.11472,0.96428 -0.0973,0.27304 -0.35389,0.43017 -0.76843,0.47077 l -0.85162,0.0832 c -0.0293,0.0184 -0.079,0.0618 -0.14986,0.13074 -0.0569,0.0521 -0.11304,0.11189 -0.16847,0.17932 -0.0401,0.0659 -0.0725,0.13092 -0.0971,0.19534 -0.0247,0.0642 -0.0135,0.10217 0.0336,0.11317 -0.0569,0.0521 -0.0344,0.11947 0.0667,0.20257 0.0997,0.0677 0.19219,0.13642 0.27647,0.20567 0.30706,-0.0301 0.57477,-0.0643 0.80357,-0.10232 0.24414,-0.0394 0.47282,-0.0768 0.68626,-0.11317 l 0.68626,-0.1142 c 0.22879,-0.0379 0.49703,-0.0717 0.80409,-0.10181 0.0614,-0.006 0.14631,-0.006 0.25528,-0.002 l 0.3266,0.0145 c 0.10898,0.005 0.20336,0.0107 0.28163,0.0186 0.0783,0.008 0.12473,0.0114 0.14005,0.0103 0.0767,-0.007 0.21265,-0.0439 0.40772,-0.10956 0.21043,-0.0671 0.35421,-0.10462 0.43098,-0.11214 l 0.7829,-0.077 c 0.24414,-0.0394 0.50007,-0.11854 0.7674,-0.23772 0.0767,-0.007 0.22552,0.009 0.44648,0.0491 0.21945,0.025 0.36766,0.0339 0.44442,0.0263 0.33777,-0.0331 0.65297,-0.056 0.94619,-0.0692 0.30706,-0.0301 0.61028,-0.0213 0.90951,0.0269 0.58342,-0.0572 1.10408,-0.12365 1.56166,-0.19947 0.47293,-0.0773 0.90711,-0.15086 1.30328,-0.22066 0.39467,-0.0852 0.76713,-0.16053 1.11725,-0.22583 0.36547,-0.0668 0.74013,-0.11847 1.12396,-0.15606 0.10298,-0.0566 0.16452,-0.21817 0.185,-0.48369 0.0205,-0.26551 0.0304,-0.56032 0.0295,-0.88574 0.013,-0.34228 0.0109,-0.68341 -0.007,-1.02267 -0.002,-0.34077 0.0182,-0.6066 0.0615,-0.79685 -0.008,-0.0768 -0.025,-0.17529 -0.0522,-0.29663 -0.012,-0.12283 -0.0388,-0.2366 -0.0801,-0.34106 -0.0259,-0.10597 -0.0721,-0.18646 -0.13953,-0.24185 -0.0689,-0.0708 -0.15654,-0.0931 -0.26251,-0.0672 -0.0937,-0.006 -0.17297,0.0552 -0.23771,0.18552 -0.0662,0.11498 -0.12944,0.26078 -0.18966,0.43718 -0.0449,0.1749 -0.09,0.34962 -0.13487,0.52452 -0.0449,0.17489 -0.095,0.29637 -0.15038,0.3638 -0.23543,0.28657 -0.41209,0.53618 -0.53072,0.74931 -0.12013,0.19777 -0.21959,0.3706 -0.29817,0.5178 -0.0632,0.14569 -0.11443,0.25875 -0.15296,0.34003 -0.04,0.0659 -0.091,0.0946 -0.154,0.0853 -0.0308,0.003 -0.0981,0.0248 -0.20257,0.0661 -0.10446,0.0412 -0.22501,0.0839 -0.36018,0.12816 -0.11981,0.0427 -0.23196,0.0849 -0.33642,0.12609 -0.10444,0.0412 -0.17134,0.0631 -0.20205,0.0661 -0.49131,0.0481 -1.08834,0.1297 -1.79007,0.24494 -0.68637,0.11373 -1.36672,0.2041 -2.04226,0.27027 -0.0922,0.009 -0.18157,0.0484 -0.26768,0.11886 -0.0876,0.0551 -0.17543,0.1108 -0.26303,0.16588 -0.0723,0.0536 -0.1375,0.0982 -0.19586,0.13487 -0.0599,0.0214 -0.1,0.01 -0.11989,-0.0346 -0.15353,0.015 -0.30172,0.006 -0.44441,-0.0258 -0.12733,-0.034 -0.26302,-0.0757 -0.40721,-0.12351 -0.12884,-0.0494 -0.27191,-0.0893 -0.42995,-0.1204 -0.14269,-0.0325 -0.29823,-0.033 -0.46561,-0.001 l -0.30334,-0.24908 c -0.0496,-0.50665 -0.10337,-0.9741 -0.16071,-1.40249 -0.0589,-0.44374 -0.12521,-0.88688 -0.19947,-1.32912 -0.0605,-0.45908 -0.12367,-0.94128 -0.18862,-1.44643 -0.0665,-0.5205 -0.13228,-1.11867 -0.19844,-1.7942 0.0711,-0.22397 0.21915,-0.37011 0.44494,-0.43873 0.24114,-0.0701 0.50034,-0.11816 0.77669,-0.14522 0.27636,-0.0271 0.54571,-0.0456 0.80822,-0.0558 0.27636,-0.0271 0.48698,-0.0944 0.63149,-0.20153 l 0.13797,-0.014 c 0.19326,0.0741 0.46595,0.094 0.81907,0.0594 l 1.05937,-0.10335 c 0.41454,-0.0406 0.72268,0.014 0.92346,0.16485 0.21462,0.13398 0.37883,0.31202 0.49351,0.5333 0.11471,0.22127 0.19997,0.45292 0.25476,0.69556 0.0701,0.24114 0.15108,0.43484 0.24288,0.58085 0.1577,0.18606 0.27163,0.32214 0.3421,0.40824 0.0704,0.0861 0.16657,0.12262 0.28939,0.11059 0.1228,-0.012 0.20728,-0.10519 0.25218,-0.28009 0.0449,-0.17489 0.0635,-0.37798 0.0563,-0.60978 0.008,-0.23331 8.2e-4,-0.46527 -0.0217,-0.69557 l -0.0584,-0.59893 c -0.0436,-0.44524 -0.12484,-0.95635 -0.2434,-1.53375 -0.10472,-0.59425 -0.18409,-1.1676 -0.23823,-1.72031 -0.30706,0.0301 -0.50076,0.11103 -0.58084,0.24288 -0.0647,0.13034 -0.10359,0.28869 -0.11627,0.47594 -0.0127,0.18724 -0.0319,0.38346 -0.0584,0.58756 -0.028,0.18875 -0.14276,0.36218 -0.34417,0.52141 -0.10748,0.0105 -0.26081,0.0333 -0.45889,0.0682 l -0.54777,0.10077 c -0.22729,0.0533 -0.46331,0.0991 -0.70745,0.13849 -0.10898,-0.005 -0.21079,-0.0176 -0.30592,-0.0393 -0.0782,-0.008 -0.16425,-0.0154 -0.25787,-0.0217 -0.0782,-0.008 -0.13308,-0.01 -0.16381,-0.007 -0.0876,0.0551 -0.17547,0.10238 -0.26458,0.14211 -0.0907,0.0244 -0.21969,0.0529 -0.38706,0.0847 l -0.64492,0.0631 c -0.27786,0.0117 -0.64684,0.0402 -1.10743,0.0853 -0.0521,-0.0569 -0.13968,-0.0793 -0.26251,-0.0672 -0.10747,0.0105 -0.21555,0.0131 -0.32453,0.008 -0.10897,-0.005 -0.21131,-0.0181 -0.30644,-0.0398 -0.0813,-0.0385 -0.12802,-0.11902 -0.14005,-0.24185 -0.006,-0.0614 -0.0471,-0.16616 -0.1235,-0.31368 -0.0368,-0.0584 -0.0672,-0.13314 -0.0915,-0.22376 -0.0105,-0.10747 -0.0342,-0.26764 -0.0703,-0.4811 l -0.0656,-0.66818 c -0.007,-0.23181 -0.0123,-0.44745 -0.0165,-0.64854 0.01,-0.21794 0.0396,-0.38415 0.0904,-0.49764 0.006,-0.0936 0.006,-0.17851 -0.002,-0.25528 -2.3e-4,-0.002 -9.5e-4,-0.004 -0.001,-0.007 z m -144.37052,0.0196 c 0,0 -0.131906,0.0232 -0.333829,0.0853 -0.201927,0.0621 -0.124553,0.30269 -0.140043,0.38809 -0.01553,0.0854 0.558992,0.07 0.916223,-0.0465 0.357233,-0.11649 3.06e-4,-0.29483 -0.442351,-0.42685 z m 29.709298,0.22582 -2.430859,0.59532 c 0.0199,0.14206 0.04293,0.28026 0.07183,0.41031 0,0.47822 0.02297,0.90255 0.06925,1.27279 0.06171,0.37024 0.09302,0.57065 0.09302,0.60151 0,0.27767 -0.0078,0.5402 -0.02325,0.78703 -0.01543,0.2314 -0.03891,0.48558 -0.06976,0.76326 -0.01543,0.27768 -0.03057,0.60181 -0.04599,0.97204 -0.01543,0.37024 -0.02325,0.81754 -0.02325,1.34204 0.06171,0.20054 0.100328,0.35503 0.115755,0.46302 0.03085,0.10799 0.04651,0.18471 0.04651,0.23099 0,0.0463 -0.0078,0.0776 -0.02325,0.093 0,0.0154 0.0078,0.0383 0.02325,0.0692 -0.123412,0.15427 -0.17769,0.40897 -0.162264,0.76378 0.03085,0.33939 0.03867,0.68647 0.02325,1.04128 0,0.35481 -0.06942,0.6711 -0.208256,0.94878 -0.123412,0.26225 -0.393252,0.39326 -0.809769,0.39326 h -0.856279 c -0.03085,0.0154 -0.08513,0.054 -0.162264,0.11575 -0.06171,0.0463 -0.123294,0.10004 -0.185001,0.16175 -0.04628,0.0617 -0.0849,0.1233 -0.115756,0.185 -0.03085,0.0617 -0.02303,0.10033 0.02325,0.11576 -0.06171,0.0463 -0.04605,0.11569 0.04651,0.20825 0.09256,0.0771 0.177115,0.15438 0.254248,0.23151 0.308531,0 0.578371,-0.008 0.809769,-0.0232 0.246824,-0.0154 0.478561,-0.0306 0.694532,-0.046 l 0.694014,-0.0465 c 0.231398,-0.0154 0.501239,-0.0233 0.80977,-0.0233 0.06171,0 0.146779,0.008 0.254765,0.0233 l 0.324011,0.0465 c 0.107985,0.0154 0.200369,0.0306 0.277502,0.046 0.07713,0.0154 0.123584,0.0232 0.13901,0.0232 0.07713,0 0.215967,-0.0229 0.416512,-0.0692 0.215972,-0.0463 0.362633,-0.0698 0.439766,-0.0698 h 0.786516 c 0.246825,-0.0154 0.509355,-0.0692 0.787032,-0.16174 0.07713,0 0.223277,0.0308 0.439249,0.0925 0.215971,0.0463 0.362634,0.0692 0.439767,0.0692 0.339384,0 0.655675,0.008 0.948779,0.0233 0.308531,0 0.609167,0.0386 0.902271,0.11575 0.586209,0 1.110751,-0.0157 1.573547,-0.0465 0.478223,-0.0308 0.918209,-0.0616 1.319299,-0.0925 0.40109,-0.0463 0.778971,-0.0849 1.133781,-0.11575 0.370237,-0.0309 0.748118,-0.046 1.133781,-0.046 0.107986,-0.0463 0.185231,-0.20077 0.231511,-0.46302 0.04628,-0.26226 0.0849,-0.55506 0.115755,-0.87902 0.04628,-0.33938 0.07707,-0.67864 0.0925,-1.01803 0.03085,-0.33938 0.07679,-0.60191 0.138492,-0.78703 0,-0.0771 -0.0073,-0.17733 -0.02274,-0.30075 0,-0.12341 -0.01565,-0.23929 -0.04651,-0.34727 -0.01543,-0.10799 -0.05405,-0.19254 -0.115755,-0.25425 -0.06171,-0.0771 -0.146262,-0.10793 -0.254248,-0.0925 -0.09256,-0.0154 -0.177632,0.0383 -0.254765,0.16175 -0.07713,0.10798 -0.154377,0.24682 -0.23151,0.41651 -0.06171,0.16969 -0.123295,0.33932 -0.185002,0.50901 -0.0617,0.16969 -0.123296,0.28556 -0.185002,0.34727 -0.262252,0.26225 -0.462674,0.49347 -0.601513,0.69401 -0.138839,0.18512 -0.254706,0.34744 -0.347266,0.48628 -0.07713,0.13884 -0.138722,0.24636 -0.185002,0.32349 -0.04628,0.0617 -0.100558,0.0852 -0.162264,0.0698 -0.03085,0 -0.100271,0.0151 -0.208256,0.046 -0.107986,0.0308 -0.231164,0.0616 -0.370003,0.0925 -0.123412,0.0308 -0.23928,0.0622 -0.347266,0.093 -0.107986,0.0308 -0.177403,0.046 -0.208256,0.046 -0.49365,0 -1.095437,0.0229 -1.805057,0.0692 -0.694194,0.0463 -1.380538,0.0698 -2.059306,0.0698 -0.09256,0 -0.184944,0.0308 -0.277503,0.0925 l -0.278019,0.13901 c -0.07713,0.0463 -0.146549,0.0844 -0.208256,0.11524 -0.06171,0.0154 -0.09981,3e-4 -0.115238,-0.046 -0.154265,0 -0.300929,-0.0229 -0.439767,-0.0692 -0.123412,-0.0463 -0.254418,-0.10057 -0.393257,-0.16227 -0.123412,-0.0617 -0.262247,-0.11546 -0.416512,-0.16174 -0.138839,-0.0463 -0.293329,-0.0619 -0.463021,-0.0465 l -0.277503,-0.2775 c 0,-0.50908 -0.0078,-0.97986 -0.02325,-1.4118 -0.01543,-0.44737 -0.03891,-0.89467 -0.06976,-1.34204 -0.01543,-0.46279 -0.03057,-0.94872 -0.04599,-1.45779 -0.01543,-0.5245 -0.02325,-1.12629 -0.02325,-1.80506 0.09256,-0.21597 0.254878,-0.34698 0.486276,-0.39326 0.246824,-0.0463 0.508837,-0.0692 0.786515,-0.0692 0.277677,0 0.547519,0.008 0.80977,0.0233 0.277677,0 0.493757,-0.0465 0.648022,-0.13901 h 0.13901 c 0.185118,0.0926 0.454958,0.13901 0.809769,0.13901 h 1.064535 c 0.416516,0 0.717151,0.0846 0.90227,0.25425 0.200544,0.15427 0.347208,0.34737 0.439767,0.57877 0.09256,0.2314 0.154147,0.47044 0.185001,0.71727 0.04628,0.24682 0.10787,0.44725 0.185002,0.60152 0.138838,0.20055 0.23905,0.3472 0.300757,0.43976 0.06171,0.0926 0.154607,0.1385 0.278019,0.1385 0.123412,0 0.215795,-0.0846 0.277502,-0.25425 0.06171,-0.16969 0.100329,-0.37012 0.115756,-0.60152 0.03085,-0.2314 0.04651,-0.46314 0.04651,-0.69453 v -0.60151 c 0,-0.44737 -0.03131,-0.96408 -0.09302,-1.55029 -0.04628,-0.60164 -0.06925,-1.17995 -0.06925,-1.7353 -0.308531,0 -0.508954,0.0616 -0.601513,0.185 -0.07713,0.12341 -0.131411,0.27739 -0.162264,0.46251 -0.03085,0.18512 -0.06896,0.37822 -0.115239,0.57877 -0.04628,0.18512 -0.177802,0.34692 -0.393774,0.48576 -0.107985,0 -0.261958,0.008 -0.462504,0.0233 l -0.555522,0.0465 c -0.231398,0.0308 -0.470445,0.0539 -0.717269,0.0693 -0.107986,-0.0154 -0.208198,-0.0385 -0.300757,-0.0693 -0.07713,-0.0154 -0.162205,-0.0311 -0.254764,-0.0465 -0.07713,-0.0154 -0.130895,-0.0233 -0.161748,-0.0233 -0.09256,0.0463 -0.18546,0.0849 -0.278019,0.11576 -0.09256,0.0154 -0.223565,0.0311 -0.393257,0.0465 h -0.648023 c -0.277677,-0.0154 -0.64773,-0.0233 -1.110526,-0.0233 -0.04628,-0.0617 -0.130836,-0.0925 -0.254248,-0.0925 -0.107986,0 -0.216027,-0.008 -0.324012,-0.0233 -0.107986,-0.0154 -0.208714,-0.0384 -0.301273,-0.0692 -0.07713,-0.0463 -0.115239,-0.13136 -0.115239,-0.25477 0,-0.0617 -0.03131,-0.16974 -0.09302,-0.32401 -0.03085,-0.0617 -0.05382,-0.13895 -0.06925,-0.23151 0,-0.10798 -0.0078,-0.26979 -0.02325,-0.48576 v -0.67127 c 0.01543,-0.2314 0.03108,-0.44696 0.04651,-0.64751 0.01192,-0.0834 0.02841,-0.15173 0.04496,-0.21911 z m 100.033692,0.0336 c 0,0 -0.52816,0.29493 -0.51263,0.37259 0.0155,0.0777 0.0231,0.19423 0.30282,0.23306 0.27958,0.0388 0.60561,0.008 0.6289,-0.27182 0.0232,-0.27957 -0.41909,-0.33383 -0.41909,-0.33383 z m -48.33969,0.65526 -2.110465,0.67438 0.164331,2.36678 c 0.0032,0.0462 0.01736,0.13799 0.04237,0.27543 0.02499,0.13744 0.0504,0.29067 0.07751,0.45889 l 0.07855,0.45785 c 0.02499,0.13744 0.03869,0.22192 0.04082,0.2527 0.0021,0.0308 1.08e-4,0.1157 -0.0057,0.25528 -0.0069,0.12418 -0.01332,0.25627 -0.01912,0.39585 l -0.01705,0.41909 c -0.0069,0.12418 -0.0094,0.20125 -0.0072,0.23203 l 0.19017,2.74712 c 0.02452,0.35397 -0.02328,0.6667 -0.143661,0.93792 -0.104996,0.27015 -0.173827,0.39876 -0.205672,0.38551 -0.157562,0.18101 -0.334883,0.30171 -0.531751,0.36174 -0.181478,0.059 -0.371023,0.10986 -0.568957,0.15451 -0.183609,0.0282 -0.357943,0.0792 -0.522966,0.15244 -0.150699,0.0568 -0.266136,0.17314 -0.346748,0.34882 -0.02545,0.0791 -0.01371,0.13996 0.03566,0.18293 0.06476,0.0419 0.144275,0.0753 0.238745,0.0997 0.09341,0.009 0.187685,0.0257 0.282154,0.0501 0.108794,0.008 0.179511,0.0182 0.211356,0.0315 l 5.609484,-0.38861 c 0.0133,-0.0318 0.0575,-0.0577 0.13332,-0.0785 0.0913,-0.0218 0.17427,-0.0507 0.24908,-0.0868 0.0903,-0.0372 0.15654,-0.0882 0.19844,-0.15297 0.0419,-0.0648 0.0273,-0.16444 -0.0439,-0.29868 -0.13698,-0.19154 -0.29209,-0.30455 -0.46457,-0.339 -0.17248,-0.0344 -0.35121,-0.0454 -0.535895,-0.0326 l -0.5302,0.0367 c -0.153897,0.0107 -0.280571,-0.0267 -0.379305,-0.11265 -0.12205,0.0239 -0.222628,-0.0925 -0.302307,-0.34985 -0.08075,-0.27275 -0.149344,-0.58558 -0.204639,-0.93741 -0.03991,-0.3529 -0.07211,-0.70593 -0.09663,-1.05989 l -0.05426,-0.78496 -0.0801,-1.15394 c -0.0021,-0.0308 0.0087,-0.10149 0.03204,-0.21135 l 0.06666,-0.37569 c 0.03764,-0.12632 0.06815,-0.24412 0.09147,-0.35398 0.02225,-0.12525 0.03211,-0.20332 0.02997,-0.2341 -0.03717,-0.0902 -0.07297,-0.16536 -0.108003,-0.22479 l -0.05891,-0.18138 -0.01912,-0.27699 -0.03204,-0.46147 0.117305,-0.31006 c -0.05789,-0.16609 -0.10493,-0.29375 -0.14211,-0.38396 -0.02285,-0.10666 -0.05374,-0.21325 -0.09198,-0.31884 -0.02285,-0.10666 -0.04633,-0.22895 -0.07131,-0.36639 -0.02605,-0.15283 -0.05588,-0.35955 -0.0894,-0.62011 -0.01919,-0.27701 -0.0504,-0.61482 -0.09353,-1.01389 z m 57.42595,0.23513 -2.7621,0.67644 c 0.0426,0.13467 0.0849,0.2755 0.1266,0.42323 0,0.0771 0.0464,0.22379 0.13901,0.43977 0.0925,0.20054 0.13901,0.33941 0.13901,0.41651 0,1.00272 -0.0464,1.78198 -0.13901,2.33733 -0.0771,0.53993 -0.17003,0.95642 -0.27802,1.24953 -0.10798,0.27768 -0.20825,0.47811 -0.30075,0.60152 -0.0926,0.10799 -0.13849,0.23899 -0.13849,0.39325 0.0154,0.15427 -0.0926,0.36252 -0.32402,0.62477 -0.0811,0.0926 -0.16952,0.18537 -0.26148,0.27802 -0.15297,0.15411 -0.31931,0.30841 -0.50229,0.46251 -0.27768,0.24683 -0.55535,0.47072 -0.83303,0.67127 -0.26224,0.20054 -0.43191,0.33156 -0.50901,0.39326 -0.0847,0.0308 -0.17008,0.0677 -0.25477,0.11007 -0.0848,0.0425 -0.1694,0.0907 -0.25424,0.14469 -0.15427,0.0926 -0.33956,0.18495 -0.55553,0.27751 -0.20054,0.0926 -0.43958,0.17715 -0.71726,0.25425 -0.13113,0.0309 -0.27595,0.0542 -0.43409,0.0698 -0.0791,0.008 -0.16119,0.0137 -0.24701,0.0176 -0.0858,0.004 -0.17512,0.006 -0.26768,0.006 -0.18512,0.0926 -0.38555,0.1385 -0.60152,0.1385 h -1.11052 c -0.0385,0 -0.0888,-0.0117 -0.15038,-0.0346 h -5.2e-4 c -0.0618,-0.023 -0.13478,-0.0576 -0.21962,-0.10387 -0.11571,-0.081 -0.2098,-0.1316 -0.28216,-0.15193 -0.0241,-0.007 -0.0458,-0.0103 -0.0651,-0.0103 -0.12341,-0.0154 -0.23099,-0.0306 -0.32349,-0.046 -0.0926,-0.0155 -0.17767,-0.039 -0.25477,-0.0698 -0.0384,-0.0154 -0.0791,-0.0349 -0.12144,-0.0579 h -5.1e-4 c -0.0425,-0.0231 -0.0865,-0.0498 -0.13281,-0.0806 -0.0926,-0.0771 -0.20008,-0.17786 -0.3235,-0.30127 -0.0193,-0.0232 -0.0386,-0.0497 -0.0579,-0.0796 -0.0579,-0.0896 -0.1158,-0.20926 -0.17363,-0.35967 -0.0771,-0.21597 -0.1387,-0.40909 -0.185,-0.57878 0,-0.69419 -0.008,-1.37271 -0.0232,-2.03605 -0.0155,-0.67876 -0.0311,-1.36562 -0.0465,-2.05982 -0.007,-0.31034 -0.0132,-0.64209 -0.0202,-0.96118 l -2.27221,0.55655 c 0.008,0.0781 0.0168,0.16818 0.0248,0.24288 0.0309,0.26226 0.0465,0.49346 0.0465,0.69401 0.0154,0.18512 0.0154,0.32392 0,0.41652 l -0.16226,0.43976 c 0,0.10798 -0.008,0.32407 -0.0232,0.64803 -0.0155,0.30853 -0.0306,0.63996 -0.046,0.99477 -0.0155,0.35481 -0.0311,0.69459 -0.0465,1.01854 -0.0157,0.30853 -0.0227,0.51679 -0.0227,0.62477 v 0.2775 c -0.0309,0.0309 -0.0695,0.0847 -0.11576,0.16175 l -0.093,0.23151 c -0.0309,0.0771 -0.069,0.15441 -0.11523,0.23151 -0.0309,0.0617 -0.0622,0.0925 -0.093,0.0925 -0.0347,0 -0.0704,0.002 -0.10697,0.006 -0.10984,0.0116 -0.22827,0.0405 -0.35554,0.0868 -0.077,0.0231 -0.15266,0.0484 -0.22582,0.0754 -0.0733,0.0271 -0.14452,0.056 -0.21394,0.0868 -0.13884,0.0617 -0.26202,0.13116 -0.37001,0.20826 -0.0926,0.0618 -0.14686,0.10035 -0.16226,0.11575 v 0.1385 c -0.0771,0.16969 -0.0463,0.28556 0.0925,0.34726 0.0386,0.0154 0.0784,0.0288 0.11989,0.0403 h 5.2e-4 c 0.0413,0.0115 0.084,0.0213 0.12816,0.0289 h 5.1e-4 c 0.0442,0.008 0.0899,0.0137 0.13694,0.0176 h 5.2e-4 c 0.0471,0.004 0.0958,0.006 0.14573,0.006 0.21597,0.0154 0.43205,0.0154 0.64802,0 0.21597,-0.0154 0.36215,-0.0154 0.43925,0 0.0771,0 0.193,-0.0464 0.34727,-0.13901 0.16969,-0.0926 0.29342,-0.13849 0.37052,-0.13849 0.0309,0 0.069,0.007 0.11523,0.0227 0.0617,0.0154 0.11597,0.0311 0.16227,0.0465 0.0617,0.0309 0.11545,0.0538 0.16175,0.0692 h 2.42982 c 0.32396,0 0.59381,0.008 0.80977,0.0233 0.2314,0.0154 0.49393,0.0311 0.78703,0.0465 0.2931,0.0154 0.66316,0.0306 1.11053,0.046 0.46279,0.0153 1.08755,0.0232 1.8743,0.0232 0.13884,0 0.26985,-0.0229 0.39326,-0.0692 0.0617,-0.0231 0.12374,-0.0484 0.18552,-0.0754 0.0618,-0.0271 0.1233,-0.056 0.185,-0.0868 0.0617,-0.0309 0.12567,-0.0599 0.1912,-0.0868 0.0654,-0.0269 0.1328,-0.0518 0.20206,-0.0749 0.13884,-0.0463 0.27767,-0.0619 0.41651,-0.0465 0.10413,-0.0424 0.20187,-0.0804 0.29249,-0.11317 0.0906,-0.0328 0.17402,-0.0606 0.25115,-0.0837 0.15425,-0.0462 0.28161,-0.0729 0.38189,-0.0806 0.21597,-0.0308 0.3856,-0.0465 0.50901,-0.0465 0.12341,-0.0154 0.23928,-0.0462 0.34727,-0.0925 0.10798,-0.0617 0.27761,-0.20837 0.50901,-0.43977 0.0154,0 0.037,-0.01 0.0641,-0.0289 0.027,-0.0192 0.0597,-0.0479 0.0982,-0.0863 0.0926,-0.0771 0.17715,-0.15441 0.25425,-0.23151 l 0.25476,-0.25476 c 0.0926,-0.0772 0.15411,-0.11576 0.18501,-0.11576 0.20054,-0.12341 0.38406,-0.24902 0.54983,-0.3762 0.0827,-0.0634 0.16107,-0.12731 0.23513,-0.19172 l 5.2e-4,-5.2e-4 c 0.0742,-0.0646 0.14372,-0.12926 0.20929,-0.19482 0.0656,-0.0656 0.12831,-0.1325 0.1881,-0.19999 0.0598,-0.0675 0.11653,-0.13574 0.17053,-0.20515 0.054,-0.0694 0.10526,-0.14001 0.15348,-0.21136 0.0482,-0.0713 0.0935,-0.14325 0.13591,-0.21652 0.0424,-0.0771 0.0834,-0.15611 0.12299,-0.23617 0.0395,-0.08 0.0776,-0.16147 0.11421,-0.24443 0.0367,-0.0829 0.0722,-0.16737 0.10593,-0.25321 0.0338,-0.0858 0.0658,-0.17278 0.0966,-0.26148 0.12341,-0.37024 0.24659,-0.79457 0.37,-1.27279 0,-0.0926 0.004,-0.18735 0.0119,-0.28371 0.008,-0.0964 0.0192,-0.19428 0.0346,-0.29455 0.0309,-0.21597 0.0616,-0.4472 0.0925,-0.69402 0.0232,-0.13112 0.0425,-0.27042 0.0579,-0.41703 0.0154,-0.1466 0.0269,-0.30052 0.0346,-0.4625 0.0309,-0.32396 0.0465,-0.70184 0.0465,-1.13378 -0.0772,-0.15426 -0.12361,-0.30093 -0.13901,-0.43977 -0.0154,-0.13884 -0.054,-0.31629 -0.11576,-0.53226 -0.0205,-0.0955 -0.0532,-0.20363 -0.0966,-0.32195 -0.0434,-0.11832 -0.0975,-0.24681 -0.1602,-0.38447 z m -143.737994,0.90434 c -0.03651,0.001 -0.05013,0.015 -0.05013,0.015 -0.201922,0.2097 -0.310704,0.37252 -0.240812,0.41135 0.06991,0.0388 0.186305,0.0698 0.318327,0.031 0.132018,-0.0388 0.504839,-0.18625 0.248563,-0.34933 -0.144155,-0.0917 -0.229009,-0.1098 -0.275952,-0.108 z m 136.988534,0.69918 c -0.22199,-0.002 -0.44235,0.0822 -0.44235,0.0822 -0.13979,0.2951 -0.97087,0.91617 -0.2098,0.94723 0.76106,0.0311 1.21899,-0.72204 0.97048,-0.93172 -0.0854,-0.0721 -0.20205,-0.0967 -0.31833,-0.0977 z m -109.642916,0.12971 c -0.06253,-5.5e-4 -0.123551,0.0139 -0.179317,0.0424 -0.179552,0.0917 -0.268879,0.44187 -0.132292,0.59015 0.127487,0.1384 0.559139,-0.0775 0.559139,-0.0775 0,0 0.334102,0.0388 0.186552,-0.24856 -0.106057,-0.20653 -0.274289,-0.30505 -0.434082,-0.30644 z m -4.097941,0.38757 -1.994711,0.48834 c -0.0016,0.044 -0.0063,0.0888 -0.01447,0.13384 L 32.459,142.37984 c 0,0.26225 0.0073,0.43189 0.02274,0.50902 0.01543,0.0771 0.05405,0.19299 0.115755,0.34726 v 3.40134 c 0,0.12341 0.02348,0.25494 0.06976,0.39378 0.04628,0.12341 0.06925,0.23093 0.06925,0.32349 0,0.12341 -0.02297,0.25494 -0.06925,0.39378 -0.04628,0.13884 -0.100558,0.26985 -0.162264,0.39326 -0.04628,0.12341 -0.09273,0.23145 -0.13901,0.32401 -0.03085,0.0926 -0.04599,0.14631 -0.04599,0.16174 -0.06171,0.0463 -0.192712,0.0849 -0.393258,0.11576 -0.200544,0.0309 -0.408796,0.0695 -0.624768,0.11575 -0.215972,0.0463 -0.409084,0.10788 -0.578776,0.18501 -0.169692,0.0771 -0.254248,0.17733 -0.254248,0.30075 0,0.13883 0.131007,0.23906 0.393258,0.30076 0.262251,0.0617 0.509125,0.14677 0.740523,0.25476 0.49365,0 0.832908,-0.0386 1.018026,-0.11575 0.200545,-0.0771 0.38583,-0.1309 0.555522,-0.16175 h 0.300756 c 0.123412,-0.0154 0.246591,-0.0389 0.370004,-0.0698 0.154265,-0.0154 0.308755,-0.0383 0.46302,-0.0692 0.03085,0 0.08462,0.0229 0.161748,0.0692 0.07713,0.0463 0.162205,0.0927 0.254764,0.13901 0.09256,0.0463 0.177116,0.0927 0.254249,0.13901 0.07713,0.0463 0.139238,0.0692 0.185518,0.0692 0.123413,0 0.285214,-0.0308 0.485758,-0.0925 0.215972,-0.0771 0.477985,-0.0928 0.786516,-0.0465 l 0.278019,-0.13849 c -0.07713,-0.2314 -0.254589,-0.43234 -0.532267,-0.60203 -0.277678,-0.16969 -0.671215,-0.25425 -1.18029,-0.25425 -0.07713,-0.24682 -0.138722,-0.47073 -0.185002,-0.67127 -0.03085,-0.21598 -0.05382,-0.50878 -0.06925,-0.87902 -0.01543,-0.37024 -0.02325,-0.87181 -0.02325,-1.5043 v -2.61483 c 0.07713,-0.24682 0.123067,-0.41645 0.138493,-0.50901 0.01543,-0.0926 0.01543,-0.16198 0,-0.20826 0,-0.0308 -0.0073,-0.11541 -0.02274,-0.25425 -0.01543,-0.13883 -0.03108,-0.2855 -0.04651,-0.43976 -0.01543,-0.16969 -0.03056,-0.32418 -0.04599,-0.46302 -0.0026,-0.0237 -0.0019,-0.0229 -0.0041,-0.0434 z m 1.405082,0.13746 c -0.05528,0.002 -0.109077,0.0165 -0.158647,0.0419 -0.179552,0.0917 -0.268878,0.44187 -0.132291,0.59014 0.127487,0.13841 0.559139,-0.0775 0.559139,-0.0775 0,0 0.334102,0.0387 0.186552,-0.24857 -0.110668,-0.21549 -0.288905,-0.31324 -0.454753,-0.30592 z m 108.711715,0.36535 c -0.0365,0.001 -0.0501,0.0145 -0.0501,0.0145 -0.20192,0.20969 -0.3107,0.37303 -0.24081,0.41186 0.0699,0.0388 0.18629,0.0698 0.31832,0.031 0.13201,-0.0388 0.50484,-0.18626 0.24857,-0.34934 -0.14416,-0.0917 -0.22901,-0.10979 -0.27595,-0.108 z m -53.24585,0.24443 c -0.323403,0.11283 -0.661112,0.23106 -1.02526,0.35915 0.0024,0.0969 0.0049,0.1798 0.0072,0.27854 0.01543,0.63249 0.02326,1.21862 0.02326,1.75855 0,0.13884 0.0073,0.24688 0.02274,0.32401 0.01543,0.0771 0.03108,0.17733 0.04651,0.30075 0.03085,0.10798 0.05382,0.27031 0.06925,0.48628 0.01543,0.20055 0.01543,0.50118 0,0.90227 -0.03085,0.10799 -0.06948,0.23117 -0.115756,0.37 -0.03085,0.12342 -0.06947,0.23928 -0.115755,0.34727 -0.04628,0.0926 -0.10004,0.1698 -0.161747,0.23151 -0.04628,0.0617 -0.100041,0.0768 -0.161747,0.046 -0.277678,-0.15426 -0.509413,-0.32389 -0.694532,-0.50901 -0.185118,-0.20055 -0.354747,-0.4088 -0.509012,-0.62477 -0.138839,-0.2314 -0.292812,-0.45479 -0.462504,-0.67076 -0.169692,-0.21597 -0.385772,-0.42422 -0.648023,-0.62477 -0.169691,-0.33938 -0.401427,-0.68647 -0.694531,-1.04128 -0.07714,-0.0974 -0.159945,-0.19096 -0.240296,-0.28628 -1.126231,0.40122 -1.992387,0.70981 -2.694409,0.96118 0.02311,0.028 0.0455,0.0522 0.06563,0.0656 0.169692,0.16969 0.393082,0.42387 0.67076,0.76326 0.293104,0.32395 0.594257,0.67104 0.902788,1.04128 0.323957,0.35481 0.632421,0.70189 0.925525,1.04128 0.30853,0.32395 0.570543,0.57083 0.786515,0.74052 -0.04628,0 -0.01497,0.0616 0.09302,0.185 0.107986,0.12341 0.246821,0.2779 0.416512,0.46302 l 0.624769,0.62477 c 0.231398,0.2314 0.446961,0.45531 0.647505,0.67128 0.200546,0.21597 0.378002,0.40856 0.532267,0.57826 0.154265,0.16969 0.247166,0.28556 0.27802,0.34726 0.07713,0.0926 0.208139,0.16929 0.393257,0.231 0.200545,0.0463 0.400969,0.0619 0.601514,0.0465 0.03085,-0.0308 0.123237,-0.11593 0.277502,-0.25477 0.154266,-0.15426 0.254477,-0.30824 0.300757,-0.4625 v -5.87768 c -0.04628,-0.10799 -0.07707,-0.30058 -0.0925,-0.57826 -0.01543,-0.2931 -0.03056,-0.60158 -0.04599,-0.92553 -0.01543,-0.32396 -0.02325,-0.6251 -0.02325,-0.90278 z m -2.951758,0.63097 c -0.05528,0.002 -0.109077,0.0165 -0.158646,0.0419 -0.179552,0.0917 -0.268879,0.44187 -0.132292,0.59014 0.127487,0.13841 0.559139,-0.0775 0.559139,-0.0775 0,0 0.334102,0.0387 0.186552,-0.24857 -0.110668,-0.2155 -0.288905,-0.31324 -0.454753,-0.30592 z m 50.859428,8.43566 c -0.0307,-0.001 -0.0599,0.0361 -0.0599,0.10542 0,0.11083 -0.096,0.14039 -0.12558,0.0739 0,-0.0739 -0.22139,-0.14061 -0.31006,-0.0889 -0.0591,0.0296 -0.10361,0.0296 -0.14056,0 -0.14038,-0.0739 -0.31733,-0.0369 -0.53898,-0.0739 -0.27338,-0.0591 -0.37691,0.1406 -0.59118,0.0889 -0.17733,-0.0369 -0.34004,0.27313 -0.41393,0.38396 -0.0443,0.14038 -0.31027,0.36248 -0.32504,0.52503 0,0.0591 -0.0223,0.10335 -0.0444,0.10335 -0.0222,0 -0.0809,0.15517 -0.14004,0.34727 -0.15516,0.49503 -0.14823,0.98246 0.0217,1.22628 0.29554,0.41376 0.4067,0.54695 0.48059,0.56172 0.0369,0.007 0.16254,0.0663 0.27337,0.13281 0.39159,0.22905 0.87177,0.23664 1.49241,0.015 0.3251,-0.11822 0.4359,-0.11858 0.47284,-0.008 0.0369,0.1256 0.0888,0.10363 0.11834,-0.0589 0.11083,-0.51719 0.12541,-0.79047 0.0589,-0.99735 -0.0665,-0.19949 -0.0663,-0.21416 0.015,-0.30282 0.0443,-0.0443 0.0811,-0.11116 0.0811,-0.13333 -0.0148,-0.0665 0.19947,-0.0587 0.19947,-0.11782 0,-0.0591 -1.03432,-0.0813 -1.14515,-0.0222 -0.12561,0.0665 -0.0664,0.11782 0.11834,0.11782 0.0813,0 0.16247,0.0152 0.17725,0.03 0.0148,0.0148 0.0295,0.29533 0.0295,0.60565 -0.007,0.66497 -0.0148,0.70189 -0.36948,0.8201 -0.27338,0.0887 -0.8718,0.0961 -0.94568,0.0222 -0.0443,-0.0443 -0.0293,-0.0592 0.0889,-0.0445 0.22905,0.0222 0.19938,-0.0591 -0.0444,-0.14779 -0.44331,-0.16255 -0.60581,-0.42123 -0.67231,-1.13792 -0.0296,-0.34726 0.0514,-0.4503 0.0884,-0.11782 0.007,0.11083 0.0297,0.21415 0.0444,0.22893 0.0591,0.0591 0.0738,-0.037 0.0294,-0.29559 -0.0443,-0.26599 -0.0518,-0.65019 -0.0444,-0.9679 0.10344,-0.0961 0.3694,-0.38417 0.47284,-0.39894 0.10344,-0.0148 0.14777,-0.17725 0.27337,-0.17725 0.17733,0 0.1408,-0.0592 0.37724,-0.0961 0.34726,-0.0517 0.44311,0.155 0.67954,0.2806 0.15516,0.0887 0.31757,0.48759 0.4284,0.59841 0.0443,0.0443 0.0518,0.0295 0.0222,-0.0961 -0.0296,-0.11083 -0.0368,-0.83449 -0.0811,-0.93793 -0.0138,-0.0305 -0.0328,-0.0456 -0.0512,-0.0465 z m -1.36839,0.0853 c 0.036,-0.006 0.0599,0.006 0.0599,0.0351 0,0.0443 -0.10342,0.0956 -0.19947,0.0956 -0.0665,0 -0.0593,-0.0144 0.007,-0.0661 0.048,-0.0369 0.0963,-0.059 0.13229,-0.0646 z m -11.49077,0.0367 c -0.1764,-0.006 -0.33715,0.0129 -0.42582,0.0646 -0.28076,0.16255 -0.65761,0.58373 -0.84232,0.84233 0,0.0222 -0.0225,0.0444 -0.0594,0.0444 -0.0369,0 -0.0884,0.0518 -0.11059,0.11834 -0.0222,0.0665 -0.0959,0.19194 -0.15503,0.2806 -0.11083,0.16255 -0.11098,0.29572 0.007,0.14056 0.0961,-0.13299 0.11817,-0.0594 0.0517,0.21394 -0.11082,0.44332 -0.1254,0.53227 -0.0589,0.53227 0.0296,0 0.059,0.0589 0.0811,0.13281 0.0739,0.24382 0.17733,0.2733 0.34727,0.52451 0.24382,0.35465 0.19963,0.16273 0.5395,0.48783 0.42115,0.39898 0.16974,0.10335 0.67955,0.10335 0.30293,0 0.5913,-0.0662 0.70951,-0.16226 0.037,-0.0369 0.10331,-0.0447 0.15503,-0.03 0.0665,0.0148 0.1107,4.5e-4 0.15503,-0.0956 0.0813,-0.17732 0.4284,-0.392 0.4284,-0.6506 0,-0.26599 0.25894,-1.07838 0.20722,-1.38131 -0.0443,-0.27338 -0.11116,-0.37711 -0.13332,-0.185 -0.0222,0.14777 -0.0735,0.11835 -0.14005,-0.0811 -0.0887,-0.2586 -0.59841,-0.77573 -0.59841,-0.59841 0,0.0591 0.13281,0.13267 0.13281,0.21394 0,0.0517 -0.0298,0.0372 -0.1111,-0.0367 -0.0665,-0.0665 -0.10299,-0.14796 -0.0956,-0.21446 0.0148,-0.0961 -0.0149,-0.1106 -0.24391,-0.18448 -0.15146,-0.0443 -0.34346,-0.074 -0.51986,-0.0796 z m 4.22816,0.0139 c -0.0565,-10e-4 -0.0622,0.0158 -0.0512,0.0656 0.007,0.0443 0.0518,0.0739 0.0961,0.0739 0.0665,0 0.0959,0.0666 0.15503,0.31781 0.0887,0.37681 0.11094,1.41094 0.0444,1.89859 -0.0443,0.33248 -0.0294,0.7981 0.0444,0.88677 0.0222,0.0369 -0.0221,0.059 -0.17725,0.0811 -0.65019,0.0887 0.39873,0.19222 0.65733,0.11834 0.1256,-0.0369 0.0811,-0.10336 -0.0667,-0.10336 -0.34727,0 -0.21395,-0.2809 -0.21395,-0.5395 0,-0.14777 0.022,-0.17719 0.0811,-0.15503 0.11821,0.096 0.015,-0.56184 0.015,-0.68006 h 0.62064 l 0.21394,0.38447 c 0.1921,0.33988 0.62815,0.74599 0.81287,1.00459 0.0369,0.096 0.16249,0.0964 0.32504,0.008 0.096,-0.0443 0.11813,-0.0817 0.10336,-0.15554 0.0148,-0.15516 -0.36191,-0.0736 -0.4284,-0.16227 -0.0591,-0.0148 -0.46547,-0.96784 -0.54674,-0.94567 -0.0369,0 -0.0884,-0.0373 -0.11059,-0.0817 -0.0369,-0.0665 -0.015,-0.0959 0.11059,-0.15503 0.0887,-0.0369 0.17007,-0.0515 0.19224,-0.0367 0.0443,0.0222 0.17001,-0.23649 0.17001,-0.36949 0,-0.0443 0.0367,-0.2366 0.0884,-0.41393 0.10344,-0.34726 0.074,-0.53175 -0.0811,-0.53175 -0.0443,0 -0.11845,-0.0667 -0.16278,-0.14056 -0.0739,-0.11083 -0.11052,-0.14056 -0.28784,-0.14056 -0.22166,0 -0.34017,-0.16236 -0.53227,-0.13281 -0.096,0.0148 -0.62054,-0.0219 -0.99735,-0.0884 -0.0314,-0.004 -0.0556,-0.006 -0.0744,-0.007 z m 8.21914,0 c 0.088,0.009 0.24851,0.11526 0.22634,0.17622 0,0.0739 -0.0143,0.0887 -0.0956,0.0222 -0.0887,-0.0665 -0.19978,-0.074 -0.185,-0.17002 0.004,-0.024 0.0249,-0.0314 0.0543,-0.0284 z m -1.25936,0.0786 c 0.0147,10e-4 0.0227,0.0138 0.0227,0.0388 0,0.0369 -0.13261,0.1328 -0.19172,0.1328 -0.0148,0 0.0147,-0.044 0.0517,-0.0884 0.0508,-0.0554 0.0928,-0.0851 0.1173,-0.0832 z m -11.20035,0.002 c 0.2586,0.0887 -0.44292,0.21436 -0.46508,0.24391 -0.0296,0.0148 -0.0594,-0.007 -0.0594,-0.0294 0,-0.0739 0.19942,-0.15535 0.52451,-0.21446 z m 7.53184,0.0253 c -0.0539,-5.1e-4 -0.0934,9.6e-4 -0.11368,0.005 -0.0887,0.0148 -0.0957,0.1107 -0.0145,0.15503 0.0813,0.0443 0.46526,-0.096 0.25838,0.0961 -0.11083,0.096 -0.10344,1.07111 0,1.15238 0.0739,-0.0813 0.10341,1.61081 0.12557,1.63298 0.007,0.0665 -0.0294,0.096 -0.15503,0.10335 -0.16254,0.0148 -0.27325,0.10337 -0.22892,0.17725 0.0443,0.0665 0.67196,0.007 0.73845,-0.0739 0.0296,-0.0369 0.0812,-0.0515 0.12558,-0.0367 0.0961,0.037 0.23667,-0.007 0.23667,-0.0811 0,-0.0887 -0.0887,-0.12577 -0.14779,-0.0667 -0.0887,0.0887 -0.23622,0.0591 -0.25838,-0.0517 -0.0887,-0.45809 -0.11105,-0.65007 -0.0889,-0.84956 0.0296,-0.25121 -0.0667,-0.29595 0.18449,-0.30334 0.15516,0 0.355,-0.0369 0.55449,-0.10335 0.0665,-0.0222 0.0961,-0.007 0.0961,0.0372 0,0.0961 0.0739,0.0885 0.34726,-0.0444 0.28077,-0.14038 0.43589,-0.34724 0.39894,-0.54673 -0.0148,-0.0665 6e-5,-0.14046 0.0222,-0.17002 0.0517,-0.0665 -0.0666,-0.5244 -0.19223,-0.75344 -0.0665,-0.11822 -0.0959,-0.13327 -0.20671,-0.11111 -0.0665,0.0148 -0.14785,-5e-5 -0.17001,-0.0222 -0.0582,-0.0453 -1.13497,-0.14115 -1.51206,-0.14469 z m -7.29516,0.108 c 0.14038,0 0.22905,0.177 0.34727,0.21394 0.0517,0.0222 0.18445,0.18508 0.31006,0.35502 0.36942,0.5172 0.19941,0.86456 0.17725,1.55908 -0.0148,0.44331 -0.0517,0.54662 -0.27337,0.77566 -0.23643,0.24382 -0.45034,0.27319 -0.96015,0.13281 -0.45809,-0.11822 -0.50237,-0.16991 -0.67231,-0.8201 l -0.11834,-0.48008 0.0884,-0.62838 c 0.0961,-0.70192 0.14083,-0.81236 0.25166,-0.81236 0.0443,0 0.0957,-0.0223 0.11782,-0.0444 0.0591,-0.0591 0.60614,-0.25115 0.73174,-0.25115 z m 0.30076,0.0212 c 0.0114,-0.003 0.0288,-0.003 0.0537,0.001 0.0517,0.0148 0.0889,0.044 0.0889,0.0662 -0.006,0.10344 -0.22243,-0.0476 -0.14263,-0.0672 z m 4.27261,0.008 c 0.46547,0.0222 0.45808,0.14047 0.894,0.24391 0.32509,0.0813 0.33972,0.0957 0.3545,0.21394 0.007,0.0665 0.0519,0.14821 0.0889,0.17777 0.0443,0.0369 0.059,0.0662 0.0295,0.0884 -0.0222,0.0222 -0.0666,0.13329 -0.0961,0.25889 -0.096,0.45071 -0.25843,0.55409 -0.90124,0.59842 l -0.3917,0.0294 v -0.19223 c 0.007,-0.10344 0.007,-0.15528 0.0222,-0.11834 0.0369,0.16993 0.16277,0.0446 0.0889,-0.11059 -0.0665,-0.14038 -0.0741,-0.88666 -0.0889,-1.18959 z m 3.11195,0.0165 c 0.0322,0.002 0.0451,0.0665 0.0284,0.16071 -0.007,0.0665 -0.0295,0.13332 -0.0517,0.13332 -0.0443,0 -0.0519,-0.22903 -0.015,-0.27336 0.0148,-0.0148 0.0275,-0.0213 0.0382,-0.0207 z m 0.33176,0.0238 c 0.0563,-0.003 0.11932,0.002 0.18397,0.0186 0.0665,0.0148 0.19969,0.0372 0.28836,0.0372 0.30293,0 0.40625,0.11096 0.57619,0.5395 0.10344,0.27338 0.0591,0.53912 0,0.73122 -0.0665,0.0369 -0.70172,0.0888 -0.75344,0.14056 -0.11822,0.0665 -0.51713,0.0588 -0.52452,-0.008 -0.007,-0.0591 0.0147,-0.57581 0.0295,-0.76791 0.0148,-0.14777 0.0959,-0.32528 0.0294,-0.48783 -0.10528,-0.10528 0.002,-0.19391 0.17053,-0.2036 z m 2.58073,0.10025 c 0.0212,-0.002 0.0452,0.0147 0.0563,0.0517 0.007,0.0517 -0.1035,0.0959 -0.0961,0.007 0,-0.0369 0.0186,-0.0571 0.0398,-0.0589 z m -9.52862,0.78703 c 0.003,-5.5e-4 0.006,0.003 0.009,0.0109 0.007,0.0296 0.007,0.0884 0,0.11059 -0.0259,0.0711 -0.0287,-0.1176 -0.009,-0.12144 z m 6.42286,0.0698 c 0.0591,-0.007 0.0517,0.0811 0,0.0811 -0.0517,0 -0.0591,-0.0885 0,-0.0811 z m -1.57406,0.17002 c 0.0517,0 0.0591,0.0885 0,0.0811 -0.0591,0.007 -0.0517,-0.0811 0,-0.0811 z m 6.73602,0.39481 c 0.0544,-7e-4 0.14287,0.11693 0.032,0.12247 -0.0369,0 -0.0667,-0.0369 -0.0667,-0.0739 0.002,-0.0351 0.0165,-0.0483 0.0346,-0.0486 z m -14.15262,0.17621 c 0.0395,0.007 0.0893,0.18796 0.006,0.18242 -0.0222,-0.0148 -0.0372,-0.0735 -0.0372,-0.11782 0.006,-0.0499 0.0178,-0.0669 0.031,-0.0646 z m 14.12833,0.0295 c 0.026,-0.006 0.084,0.13126 0.0341,0.13126 -0.0222,0 -0.0444,-0.0297 -0.0444,-0.0667 -0.004,-0.0443 0.002,-0.0625 0.0103,-0.0646 z m -2.48822,0.13643 c 0.0102,-0.002 0.0139,0.0207 0.0176,0.0687 0.007,0.0813 0.0299,0.20656 0.0594,0.28783 -0.0517,-0.0591 -0.19982,-0.18455 -0.13333,-0.2806 0.0296,-0.048 0.0462,-0.0741 0.0563,-0.076 z m -5.81205,0.401 c 0.11822,0.0369 -0.0518,0.44349 -0.0444,0.14056 0,-0.096 0.0223,-0.15533 0.0444,-0.14056 z m 8.20157,0.1478 c 0.0443,-0.007 0.0665,0.1036 0,0.0667 -0.0443,-0.0222 -0.0665,-0.0593 0,-0.0667 z m -13.79554,0.0108 c 0.008,0 0.0159,0.0114 0.0233,0.0336 0.037,0.12561 -0.11817,0.10344 -0.0517,0 0.0111,-0.0222 0.0201,-0.0336 0.0284,-0.0336 z m 13.72888,0.20516 c 0.0333,-0.006 0.0663,0.009 0.0589,0.0501 -0.0222,0.0739 -0.11782,0.0956 -0.11782,0.0217 -0.007,-0.0406 0.0257,-0.0663 0.0589,-0.0718 z m -1.81126,0.047 c 0.0263,-0.0114 0.0862,0.0177 0.14159,0.0842 0.18472,0.22166 -0.14077,0.0292 -0.15554,-0.0594 0,-0.0129 0.005,-0.021 0.0139,-0.0248 z"
       inkscape:export-filename="path94.svg"
       inkscape:export-xdpi="96"
       inkscape:export-ydpi="96" />
  </g>
</svg>
