<?xml version="1.0" encoding="UTF-8" standalone="no"?>
<!-- Created with Inkscape (http://www.inkscape.org/) -->

<svg
   width="94.818787mm"
   height="91.839226mm"
   viewBox="0 0 94.818787 91.839226"
   version="1.1"
   id="svg1"
   inkscape:version="1.4 (86a8ad7, 2024-10-11)"
   sodipodi:docname="logos.svg"
   inkscape:export-batch-path="C:\Users\arthu\Downloads"
   inkscape:export-batch-name="elemento"
   xml:space="preserve"
   xmlns:inkscape="http://www.inkscape.org/namespaces/inkscape"
   xmlns:sodipodi="http://sodipodi.sourceforge.net/DTD/sodipodi-0.dtd"
   xmlns:xlink="http://www.w3.org/1999/xlink"
   xmlns="http://www.w3.org/2000/svg"
   xmlns:svg="http://www.w3.org/2000/svg"><sodipodi:namedview
     id="namedview1"
     pagecolor="#505050"
     bordercolor="#eeeeee"
     borderopacity="1"
     inkscape:showpageshadow="0"
     inkscape:pageopacity="0"
     inkscape:pagecheckerboard="0"
     inkscape:deskcolor="#505050"
     inkscape:document-units="mm"
     inkscape:zoom="0.35355339"
     inkscape:cx="544.47222"
     inkscape:cy="1909.1883"
     inkscape:window-width="1920"
     inkscape:window-height="991"
     inkscape:window-x="-9"
     inkscape:window-y="-9"
     inkscape:window-maximized="1"
     inkscape:current-layer="layer1"
     showguides="false"><inkscape:page
       x="0"
       y="0"
       width="94.818787"
       height="91.839226"
       id="page2"
       margin="0"
       bleed="0" /></sodipodi:namedview><defs
     id="defs1"><linearGradient
       id="linearGradient108"
       inkscape:collect="always"><stop
         style="stop-color:#2700ab;stop-opacity:1;"
         offset="0"
         id="stop108" /><stop
         style="stop-color:#590085;stop-opacity:1;"
         offset="1"
         id="stop109" /></linearGradient><linearGradient
       inkscape:collect="always"
       xlink:href="#linearGradient108"
       id="linearGradient109"
       x1="460.77853"
       y1="69.067848"
       x2="468.24033"
       y2="132.67815"
       gradientUnits="userSpaceOnUse" /></defs><g
     inkscape:label="Camada 1"
     inkscape:groupmode="layer"
     id="layer1"
     transform="translate(-429.11696,-53.591389)"><path
       d="m 437.17826,69.067927 2.55777,13.773324 c 2.84486,15.325663 2.03716,28.028669 -2.06776,38.326719 l -1.58545,3.97839 7.95549,3.17028 1.58545,-3.97776 c 3.55306,-8.9136 4.84579,-19.05234 4.11629,-30.276299 l 7.96641,8.104299 2.94899,3.0003 0.0532,0.0545 3.0003,2.94835 2.96375,-2.91243 0.0891,-0.0905 2.95029,-3.00158 7.96511,-8.103013 c -0.44324,6.819813 -0.12775,13.232633 0.97552,19.219793 -2.35794,0.57715 -4.53811,1.531 -6.42969,2.85857 -3.26198,2.28937 -5.81782,5.9793 -5.81782,10.34331 0,4.364 2.55584,8.05392 5.81782,10.3433 3.26198,2.28936 7.36444,3.50313 11.80049,3.50313 4.43605,0 8.53786,-1.21377 11.79984,-3.50313 3.26198,-2.28938 5.82039,-5.9793 5.82039,-10.3433 0,-1.66456 -0.3764,-3.22884 -1.01784,-4.65697 l 6.33027,-6.06217 0.68947,2.57443 0.93636,6.88465 9.59226,-2.56996 -3.75881,-23.52991 -24.09181,-0.812696 v 9.928976 h 4.96417 5.17068 l -6.86838,6.57849 c -1.92571,-0.97213 -4.05381,-1.63794 -6.32001,-1.95681 -1.79744,-8.60688 -1.70954,-18.582947 0.41368,-30.021033 l 2.55712,-13.773325 -26.53201,26.991225 z m 46.84535,53.498853 c 2.55302,0 4.778,0.77641 6.09617,1.70155 0.26107,0.18323 0.45285,0.35418 0.63816,0.52336 0.15387,0.14047 0.27696,0.27294 0.3861,0.40341 l 0.0192,0.0199 -0.002,6.4e-4 c 0.4091,0.4969 0.55414,0.92831 0.55414,1.26862 0,0.54118 -0.2769,1.29013 -1.59508,2.21528 -1.31816,0.92514 -3.54314,1.70219 -6.09617,1.70219 -2.55303,0 -4.77608,-0.77705 -6.09426,-1.70219 -1.31817,-0.92515 -1.59507,-1.6741 -1.59507,-2.21528 0,-0.54116 0.2769,-1.29077 1.59507,-2.21591 0.80736,-0.56663 1.95661,-1.07512 3.31073,-1.386 0.85674,-0.19668 1.79419,-0.31555 2.78353,-0.31555 z"
       style="fill:url(#linearGradient109);stroke:#ffffff;stroke-width:10.2;stroke-linecap:square;stroke-linejoin:miter;stroke-dasharray:none;paint-order:stroke fill markers"
       id="path108"
       sodipodi:nodetypes="ccccccccccccccccsssssscccccccccccccccccsscccssssssscc" /></g></svg>
