<?xml version="1.0" encoding="UTF-8" standalone="no"?>
<!-- Created with Inkscape (http://www.inkscape.org/) -->

<svg
   width="29.41939mm"
   height="29.419392mm"
   viewBox="0 0 29.41939 29.419392"
   version="1.1"
   id="svg1"
   inkscape:version="1.4 (86a8ad7, 2024-10-11)"
   sodipodi:docname="logos.svg"
   xmlns:inkscape="http://www.inkscape.org/namespaces/inkscape"
   xmlns:sodipodi="http://sodipodi.sourceforge.net/DTD/sodipodi-0.dtd"
   xmlns="http://www.w3.org/2000/svg"
   xmlns:svg="http://www.w3.org/2000/svg">
  <sodipodi:namedview
     id="namedview1"
     pagecolor="#505050"
     bordercolor="#eeeeee"
     borderopacity="1"
     inkscape:showpageshadow="0"
     inkscape:pageopacity="0"
     inkscape:pagecheckerboard="0"
     inkscape:deskcolor="#505050"
     inkscape:document-units="mm"
     inkscape:zoom="4"
     inkscape:cx="1064.5"
     inkscape:cy="224"
     inkscape:window-width="1920"
     inkscape:window-height="991"
     inkscape:window-x="-9"
     inkscape:window-y="-9"
     inkscape:window-maximized="1"
     inkscape:current-layer="layer1"
     showguides="false">
    <inkscape:page
       x="1.0643148e-14"
       y="1.5260879e-16"
       width="29.419392"
       height="29.419394"
       id="page2"
       margin="0"
       bleed="0" />
  </sodipodi:namedview>
  <defs
     id="defs1" />
  <g
     inkscape:label="Camada 1"
     inkscape:groupmode="layer"
     id="layer1"
     transform="translate(-276.22603,-26.77666)">
    <path
       id="rect3"
       style="fill:#ffffff;stroke-linecap:square;paint-order:stroke fill markers"
       d="m 290.93573,26.77666 -1.43971,1.439706 c -0.90803,0.256019 -1.75984,0.739082 -2.45153,1.460376 -0.63193,0.658989 -1.06385,1.449504 -1.29552,2.286682 l -3.961,3.960998 c -1.03494,0.23905 -2.01178,0.759346 -2.79208,1.572514 -0.71679,0.746982 -1.17932,1.658476 -1.39785,2.617411 l -1.37201,1.37201 1.43919,1.439188 c 0.25582,0.908498 0.73919,1.760499 1.46089,2.452564 0.65941,0.632323 1.44996,1.064404 2.28772,1.296045 l 2.67632,2.676322 1.28313,1.283126 c 0.23899,1.035133 0.75973,2.012682 1.57303,2.793111 0.74698,0.71679 1.65847,1.178805 2.61741,1.397331 l 1.37201,1.372009 1.43867,-1.438672 c 0.90869,-0.25578 1.76089,-0.739049 2.45308,-1.460893 0.63233,-0.659406 1.06441,-1.450469 1.29605,-2.288232 l 3.95945,-3.959448 c 1.03491,-0.238988 2.01172,-0.759824 2.79207,-1.573031 0.7168,-0.746975 1.17924,-1.658074 1.39785,-2.616894 l 1.37253,-1.372526 -1.43868,-1.438672 c -0.2559,-0.908613 -0.73919,-1.76101 -1.46089,-2.453081 -0.6594,-0.63233 -1.45047,-1.064474 -2.28823,-1.296044 l -3.95842,-3.958415 c -0.23887,-1.035328 -0.76005,-2.012485 -1.57354,-2.793111 -0.74698,-0.716796 -1.6586,-1.179243 -2.61741,-1.397848 z m 0,0.607715 0.64492,0.644922 c -0.20778,-0.01983 -0.41576,-0.03184 -0.62425,-0.02894 v -5.17e-4 c -0.23234,0.0032 -0.4637,0.02639 -0.69401,0.05788 z m 0.0284,1.045414 c 0.37786,-0.0051 0.75548,0.03473 1.12707,0.110071 l 0.38343,0.383439 c -1.04319,-0.313205 -2.17222,-0.276732 -3.18947,0.111621 l 0.43254,-0.432531 c 0.40771,-0.105561 0.82615,-0.166888 1.24643,-0.1726 z m 1.98179,0.357084 c 0.61322,0.237932 1.18806,0.593129 1.68362,1.068669 0.55192,0.529617 0.95598,1.159588 1.22112,1.836064 l -0.60514,-0.605131 c -0.22233,-0.374129 -0.49236,-0.726162 -0.82113,-1.039213 -0.26813,-0.255303 -0.56183,-0.470216 -0.87075,-0.652674 z m -4.19251,0.172083 -2.26962,2.269629 c 0.21931,-0.452941 0.50832,-0.878338 0.87023,-1.255738 0.41227,-0.429929 0.88865,-0.763771 1.39939,-1.013891 z m 2.21227,0.179834 c 0.80431,-0.01302 1.6113,0.190357 2.32389,0.599446 l 1.61799,1.61799 c 0.99582,1.730262 0.77163,4.023038 -0.65939,5.52111 -1.80509,1.889647 -4.89563,1.916685 -6.77581,0.118855 -1.32184,-1.263943 -1.76063,-3.133256 -1.33429,-4.814176 l 0.43098,-0.430981 c -0.64098,1.705492 -0.27521,3.726097 1.11776,5.045686 1.77309,1.679696 4.66561,1.649098 6.3562,-0.139009 1.6082,-1.700961 1.57714,-4.472615 -0.14107,-6.090068 -1.62976,-1.534194 -4.28247,-1.50267 -5.82755,0.143144 -1.46081,1.556045 -1.42755,4.083478 0.14676,5.553666 1.48299,1.384918 3.88866,1.353078 5.28443,-0.147278 1.30933,-1.407447 1.27613,-3.687108 -0.1509,-5.005896 -1.33225,-1.231194 -3.48544,-1.197306 -4.72736,0.153996 -1.15298,1.254517 -1.11881,3.277103 0.1571,4.439522 1.17676,1.072085 3.0686,1.036368 4.15117,-0.161747 0.99061,-1.096354 0.95447,-2.852627 -0.16588,-3.852478 -1.01544,-0.906223 -2.63558,-0.868606 -3.55172,0.171566 -0.82055,0.931638 -0.78298,2.41151 0.17673,3.240629 0.84664,0.731439 2.18535,0.691356 2.9254,-0.185518 0.63993,-0.758253 0.59878,-1.948634 -0.19482,-2.595191 -0.66757,-0.543874 -1.70897,-0.499753 -2.25774,0.208773 -0.44328,0.572333 -0.39596,1.457739 0.22841,1.900659 0.47262,0.335277 1.20263,0.282545 1.526,-0.261483 0.10896,-0.183315 0.14455,-0.402926 0.10026,-0.613916 -0.0443,-0.21099 -0.19312,-0.423667 -0.43667,-0.502811 -0.17904,-0.05818 -0.33516,-0.01621 -0.47387,0.08578 -0.0694,0.051 -0.14093,0.13259 -0.15658,0.249081 -0.0157,0.11649 0.0407,0.235089 0.11989,0.314193 l 0.29972,-0.299724 c 0.003,0.0093 0.009,0.02482 0.006,0.04237 -0.005,0.03512 -0.022,0.04494 -0.015,0.03979 0.014,-0.0103 0.0993,-0.01937 0.0873,-0.02325 0.0889,0.0289 0.12833,0.08526 0.14883,0.182935 0.0205,0.09768 -0.002,0.226153 -0.0496,0.306958 -0.18034,0.303407 -0.62263,0.333012 -0.90848,0.130225 -0.4085,-0.289787 -0.43997,-0.897046 -0.13694,-1.288294 0.39115,-0.505028 1.15722,-0.537039 1.64641,-0.138493 0.59723,0.486566 0.6289,1.405284 0.13798,1.986959 -0.57839,0.685337 -1.64448,0.716244 -2.31562,0.136426 -0.77142,-0.666452 -0.80271,-1.87584 -0.13591,-2.632914 0.75258,-0.854467 2.10258,-0.88581 2.94401,-0.134876 0.93647,0.835748 0.96778,2.322331 0.13384,3.24528 -0.91787,1.015854 -2.54029,1.046693 -3.54397,0.132292 -1.09479,-0.997416 -1.12504,-2.749939 -0.13074,-3.831808 1.07651,-1.17131 2.95984,-1.201019 4.11964,-0.129191 1.24782,1.153168 1.27738,3.162846 0.12816,4.398181 -1.22981,1.321973 -3.36675,1.350396 -4.67775,0.126091 -1.39648,-1.304116 -1.42467,-3.563171 -0.12506,-4.947502 1.37874,-1.46863 3.76172,-1.496642 5.21984,-0.124023 1.54143,1.451038 1.57016,3.953315 0.12402,5.482869 -1.52395,1.611851 -4.1483,1.640348 -5.75003,0.12299 -1.68318,-1.594506 -1.71078,-4.33638 -0.12144,-6.007902 0.83297,-0.876038 1.9643,-1.320472 3.10523,-1.338936 z m 4.7656,3.041158 0.38086,0.380855 c 0.34526,1.678679 -0.11218,3.507841 -1.36374,4.810559 -8.4e-4,8.81e-4 -0.002,0.0022 -0.003,0.0031 l -1.90376,1.90376 c -0.32519,-0.280994 -0.71234,-0.491452 -1.13844,-0.607715 1.05822,-0.178146 2.06767,-0.672203 2.85513,-1.49655 1.29242,-1.352972 1.68742,-3.293261 1.17305,-4.99401 z m -10.13013,0.538985 c -0.21566,1.644712 0.30242,3.370378 1.5751,4.587317 0.8178,0.781985 1.84434,1.241785 2.90732,1.388029 -0.39307,0.120129 -0.75053,0.321536 -1.0542,0.583944 l -1.90945,-1.909445 0.001,-10e-4 c -0.008,-0.0075 -0.016,-0.01429 -0.0238,-0.0217 l -0.0191,-0.01912 -5.1e-4,0.001 c -1.252,-1.179634 -2.93752,-1.688909 -4.55941,-1.526005 z m 11.01897,0.34985 3.0825,3.082499 c -1.64434,-0.215232 -3.36965,0.302739 -4.58629,1.575097 -0.78237,0.818209 -1.24255,1.845325 -1.38854,2.908867 -0.12033,-0.39339 -0.32164,-0.751446 -0.58446,-1.055233 l 1.90944,-1.909961 0.002,0.0016 c 0.0115,-0.01201 0.0222,-0.0246 0.0336,-0.03669 l 0.0336,-0.03359 -0.002,-10e-4 c 1.16114,-1.249132 1.66135,-2.921703 1.49965,-4.531506 z m -13.58574,3.130558 c 1.36772,-0.0183 2.74489,0.474723 3.78582,1.474328 l -5.2e-4,0.001 1.90738,1.906344 c -0.28057,0.324553 -0.49124,0.710649 -0.60772,1.135848 -0.17852,-1.057241 -0.67238,-2.065756 -1.49603,-2.85254 -1.35328,-1.292701 -3.29455,-1.686901 -4.99556,-1.172021 l 0.38189,-0.381889 c 0.33737,-0.0694 0.68069,-0.106501 1.02474,-0.111104 z m 15.87552,0.329695 c 0.44704,-0.0064 0.89467,0.04927 1.33015,0.159681 l 0.42995,0.429948 c -1.70517,-0.64018 -3.72495,-0.274272 -5.04414,1.118278 -1.6797,1.773096 -1.6491,4.665611 0.13901,6.356201 1.70096,1.608202 4.47261,1.577131 6.09007,-0.141077 1.53419,-1.629759 1.50268,-4.282469 -0.14314,-5.827551 -1.55604,-1.460807 -4.08349,-1.427547 -5.55367,0.146761 -1.38492,1.482995 -1.35307,3.888671 0.14728,5.284432 1.40745,1.309331 3.6871,1.276136 5.00589,-0.150895 1.23119,-1.332254 1.19731,-3.485437 -0.15399,-4.72736 -1.25452,-1.152975 -3.2771,-1.118813 -4.43952,0.157096 -1.07208,1.176758 -1.03638,3.068607 0.16174,4.151168 1.09635,0.990613 2.85263,0.95447 3.85248,-0.165882 0.90622,-1.01544 0.86861,-2.635578 -0.17156,-3.551721 -0.93163,-0.820549 -2.41151,-0.782968 -3.24063,0.176734 -0.73144,0.846641 -0.69136,2.185353 0.18551,2.925402 0.75825,0.639935 1.94864,0.598781 2.5952,-0.19482 0.54388,-0.667565 0.49974,-1.708973 -0.20878,-2.257743 -0.57233,-0.443284 -1.45774,-0.395951 -1.90066,0.22841 -0.33528,0.472622 -0.28254,1.20264 0.26149,1.526005 0.18332,0.108963 0.40292,0.144541 0.61391,0.100252 0.21099,-0.0443 0.42367,-0.193122 0.50281,-0.436666 0.0582,-0.179044 0.0162,-0.335167 -0.0858,-0.473873 -0.051,-0.06935 -0.13259,-0.140926 -0.24908,-0.156579 -0.11649,-0.01567 -0.23508,0.04073 -0.31419,0.119889 l 0.29972,0.299723 c -0.009,0.0035 -0.0248,0.0085 -0.0424,0.0062 -0.0351,-0.005 -0.0449,-0.02199 -0.0398,-0.01499 0.0103,0.01401 0.0193,0.0993 0.0232,0.08733 -0.0289,0.08892 -0.0853,0.128327 -0.18293,0.148828 -0.0977,0.02052 -0.22615,-0.0017 -0.30696,-0.04961 -0.3034,-0.180344 -0.33302,-0.622618 -0.13023,-0.908471 0.28979,-0.408503 0.89705,-0.439976 1.2883,-0.136943 0.50503,0.391152 0.53703,1.157227 0.13849,1.646411 -0.48657,0.597228 -1.40529,0.628889 -1.98696,0.137976 -0.68534,-0.578397 -0.71625,-1.644481 -0.13643,-2.315621 0.66645,-0.771422 1.87584,-0.802706 2.63292,-0.135909 0.85446,0.752583 0.8858,2.102574 0.13487,2.944007 -0.83575,0.93647 -2.32233,0.967775 -3.24528,0.133842 -1.01585,-0.917875 -1.04669,-2.540293 -0.13229,-3.54397 0.99742,-1.094797 2.74994,-1.125039 3.83181,-0.130741 1.17131,1.076503 1.20102,2.959842 0.12919,4.119645 -1.15317,1.247822 -3.16285,1.27737 -4.39818,0.128157 -1.32198,-1.229812 -1.3504,-3.366742 -0.12609,-4.67775 1.30411,-1.396478 3.56317,-1.424661 4.9475,-0.125057 1.46863,1.378746 1.49664,3.761716 0.12402,5.219836 -1.45104,1.541426 -3.9533,1.570167 -5.48286,0.124024 -1.61185,-1.523951 -1.64035,-4.148304 -0.12299,-5.750037 1.59451,-1.683175 4.33638,-1.71078 6.0079,-0.12144 1.49329,1.419874 1.72919,3.704796 0.74052,5.428093 l -1.62057,1.620573 c -1.73008,0.994754 -4.02195,0.769644 -5.51956,-0.660942 -1.88964,-1.805086 -1.91669,-4.895638 -0.11886,-6.775814 0.93637,-0.979262 2.20517,-1.475271 3.48351,-1.493449 z m -17.76997,0.04341 -0.60514,0.605131 c -0.37375,0.222234 -0.7254,0.492133 -1.03818,0.820621 -0.25476,0.267563 -0.46943,0.560993 -0.65163,0.869198 l -0.60927,0.609265 c 0.23793,-0.613261 0.59365,-1.188053 1.06919,-1.683618 0.52944,-0.551745 1.15877,-0.955485 1.83503,-1.220597 z m 1.89859,0.330212 c 1.18693,-0.01828 2.38336,0.407476 3.28869,1.272274 1.88966,1.80507 1.91614,4.89511 0.11833,6.775297 -1.26381,1.321727 -3.13285,1.760279 -4.81365,1.334285 l -0.43099,-0.430981 c 1.70536,0.641124 3.72559,0.275732 5.04517,-1.117245 1.67968,-1.773114 1.64963,-4.666145 -0.13849,-6.356718 -1.70097,-1.608191 -4.47314,-1.577142 -6.09058,0.141077 -1.53418,1.62977 -1.50268,4.282481 0.14314,5.827551 1.55606,1.460797 4.084,1.427558 5.55418,-0.146761 1.3849,-1.483006 1.35258,-3.888165 -0.14779,-5.283915 -1.40746,-1.309319 -3.68713,-1.276663 -5.0059,0.150379 -1.23119,1.332265 -1.19731,3.485449 0.154,4.72736 1.25453,1.152965 3.27712,1.118824 4.43952,-0.157097 1.07208,-1.176763 1.0369,-3.068101 -0.16123,-4.150651 -1.09636,-0.990602 -2.85264,-0.954481 -3.85248,0.165882 -0.90622,1.015445 -0.86913,2.635589 0.17105,3.551721 0.93165,0.820543 2.41152,0.782973 3.24063,-0.176734 0.73144,-0.846647 0.69188,-2.185876 -0.185,-2.925919 -0.75826,-0.639929 -1.94915,-0.59827 -2.59571,0.195337 -0.54386,0.667571 -0.49976,1.708461 0.20877,2.257226 0.57233,0.443278 1.45827,0.395958 1.90118,-0.22841 0.33528,-0.472621 0.28203,-1.202646 -0.262,-1.526005 -0.18331,-0.108963 -0.40293,-0.144021 -0.61392,-0.09973 -0.21099,0.04431 -0.42367,0.192604 -0.50281,0.436149 -0.0582,0.179044 -0.0157,0.335685 0.0863,0.47439 0.051,0.06934 0.13208,0.140415 0.24857,0.156062 0.11649,0.01567 0.23561,-0.04072 0.31471,-0.119889 l -0.30024,-0.299723 c 0.009,-0.0035 0.0253,-0.0085 0.0429,-0.0062 0.0351,0.005 0.0449,0.022 0.0398,0.01499 -0.0103,-0.01401 -0.0199,-0.0993 -0.0238,-0.08733 0.0289,-0.08892 0.0853,-0.127811 0.18293,-0.148312 0.0977,-0.02052 0.22616,0.0012 0.30696,0.04909 0.30341,0.180344 0.333,0.622619 0.13022,0.908472 -0.28979,0.408503 -0.89652,0.439975 -1.28777,0.136942 -0.50503,-0.391147 -0.53755,-1.157228 -0.13901,-1.646411 0.48656,-0.597234 1.40528,-0.628889 1.98696,-0.137976 0.68534,0.578391 0.71675,1.644475 0.13694,2.315621 -0.66644,0.771428 -1.87635,0.802701 -2.63343,0.135909 -0.85447,-0.752578 -0.88528,-2.102568 -0.13436,-2.944007 0.83574,-0.936475 2.3218,-0.967247 3.24476,-0.133325 1.01586,0.91787 1.04668,2.540287 0.13229,3.54397 -0.99741,1.094808 -2.74992,1.124512 -3.8318,0.130225 -1.17132,-1.076492 -1.20101,-2.959831 -0.12919,-4.119646 1.15316,-1.247827 3.16334,-1.277364 4.39869,-0.128157 1.32198,1.229801 1.34987,3.366731 0.12558,4.677751 -1.3041,1.396488 -3.56316,1.424648 -4.9475,0.125056 -1.46864,-1.378735 -1.49664,-3.761706 -0.12403,-5.219836 1.45102,-1.541437 3.95383,-1.570155 5.48339,-0.124023 1.61187,1.523934 1.63981,4.148287 0.12247,5.750036 -1.5945,1.683186 -4.33585,1.711279 -6.00738,0.121957 -1.49371,-1.420249 -1.73002,-3.706583 -0.74053,-5.43016 l 1.61748,-1.616955 c 0.68489,-0.39432 1.45648,-0.60091 2.23397,-0.612883 z m 18.15445,0.131258 c 0.45333,0.219373 0.87908,0.508049 1.25677,0.870231 0.43037,0.412703 0.76473,0.890121 1.01492,1.401465 z m -10.25726,1.961121 c 0.61194,0 1.17103,0.219997 1.60404,0.584977 l -1.60404,1.604553 -1.60455,-1.604553 c 0.433,-0.36498 0.99262,-0.584977 1.60455,-0.584977 z m 12.45247,0.841809 0.43253,0.432532 c 0.20022,0.773963 0.22109,1.587414 0.062,2.371948 l -0.38292,0.382922 c 0.31283,-1.042615 0.27626,-2.170701 -0.11162,-3.187402 z m -10.54664,0.04548 c 0.36458,0.433412 0.58394,0.993035 0.58394,1.60507 0,0.61151 -0.21889,1.170174 -0.58291,1.603003 l -1.24644,-1.245919 -0.35811,-0.358117 z m -3.81269,5.17e-4 1.60455,1.604036 -1.60403,1.604554 c -0.36458,-0.432984 -0.58395,-0.992002 -0.58395,-1.604037 0,-0.611773 0.21913,-1.171219 0.58343,-1.604553 z m -10.6562,0.06459 c -0.31319,1.042995 -0.27702,2.171804 0.11111,3.188953 l -0.43253,-0.432532 c -0.20026,-0.774307 -0.2213,-1.588128 -0.062,-2.372981 z m 25.99325,0.867131 0.67179,0.671794 -0.64492,0.644921 c 0.0198,-0.207782 0.0318,-0.416274 0.0289,-0.624768 h 10e-4 c -0.003,-0.231629 -0.0255,-0.462325 -0.0568,-0.691947 z m -26.88777,0.02739 c -0.0418,0.438811 -0.0311,0.880803 0.0284,1.317233 L 276.8337,41.48636 Z m 13.4581,0.946713 0.35811,0.357601 1.24644,1.246435 c -0.43313,0.365012 -0.9927,0.584977 -1.60507,0.584977 -0.4264,0 -0.82778,-0.106639 -1.17822,-0.294555 -0.15229,-0.08166 -0.29467,-0.179037 -0.42582,-0.289388 z m 2.81585,0.466121 c 0.17837,1.057672 0.67259,2.066488 1.49655,2.853573 1.35285,1.292313 3.29336,1.687221 4.99401,1.173055 l -0.38086,0.380855 c -1.67868,0.34526 -3.50784,-0.112184 -4.81056,-1.363741 -8.8e-4,-8.45e-4 -0.002,-0.0017 -0.003,-0.0026 l -1.90324,-1.902726 c 0.28081,-0.325068 0.49096,-0.712532 0.6072,-1.138432 z m -5.60845,0.08682 c 0.12025,0.392096 0.32102,0.749116 0.58291,1.052132 l -1.90841,1.908927 -10e-4,-10e-4 c -0.007,0.0078 -0.0143,0.01597 -0.0217,0.02377 l -0.0191,0.01912 0.001,5.17e-4 c -0.73867,0.783986 -1.20932,1.738974 -1.42265,2.740918 -0.12732,0.597962 -0.16418,1.211857 -0.10336,1.817977 l -0.85731,-0.857312 -2.22467,-2.224671 c 1.64434,0.215384 3.36966,-0.302729 4.58628,-1.575097 0.78158,-0.81739 1.24154,-1.842987 1.38803,-2.905249 z m 15.49208,1.154451 c -0.23793,0.613223 -0.59312,1.18805 -1.06867,1.683618 -0.52963,0.551934 -1.15956,0.955983 -1.83606,1.221114 l 0.60513,-0.605131 c 0.37413,-0.222336 0.72616,-0.492363 1.03921,-0.821138 0.25533,-0.268153 0.47021,-0.561788 0.65268,-0.870748 z m -25.22947,0.170532 2.27377,2.273763 c -0.45373,-0.219399 -0.87983,-0.508808 -1.25781,-0.871264 -0.4308,-0.413114 -0.7657,-0.890533 -1.01596,-1.402499 z m 14.43685,0.02842 1.90944,1.908411 -0.002,0.0016 c 0.012,0.01155 0.0246,0.02216 0.0367,0.03359 l 0.0336,0.03359 10e-4,-0.0016 c 1.24928,1.161284 2.92203,1.661534 4.53202,1.49965 l -3.08302,3.083016 c 0.21547,-1.644408 -0.30215,-3.369605 -1.57458,-4.586283 -0.81711,-0.781324 -1.84232,-1.241373 -2.90421,-1.388029 0.39188,-0.120492 0.7483,-0.321935 1.0511,-0.583944 z m -3.81372,0.0016 c 0.12903,0.111484 0.26776,0.211901 0.41496,0.299723 0.22281,0.13294 0.46456,0.236849 0.72037,0.306958 -0.53412,0.09036 -1.05537,0.260082 -1.54203,0.514697 -0.47613,0.249109 -0.92005,0.574205 -1.30896,0.981336 -0.32968,0.345132 -0.59747,0.729994 -0.81029,1.137915 -0.6214,1.191063 -0.74576,2.589312 -0.36277,3.856095 l -0.38033,-0.380338 c -0.20066,-0.97548 -0.12692,-2.001165 0.2129,-2.945557 0.24491,-0.680636 0.62632,-1.31934 1.15032,-1.865003 l 5.2e-4,5.17e-4 z m 1.95492,0.95653 c 1.23316,-0.0181 2.47572,0.425043 3.41581,1.323951 1.32131,1.263414 1.76011,3.131719 1.3348,4.812109 l -0.4315,0.431498 c 0.64057,-1.705126 0.27493,-3.724835 -1.11776,-5.044136 -1.77312,-1.679682 -4.66615,-1.649628 -6.35672,0.138492 -1.6082,1.700974 -1.57714,4.473145 0.14108,6.090585 1.62977,1.534181 4.28248,1.502682 5.82755,-0.143144 1.4608,-1.556058 1.42756,-4.084008 -0.14676,-5.554183 -1.48301,-1.384906 -3.88817,-1.352572 -5.28392,0.147795 -1.30932,1.407458 -1.27667,3.687118 0.15038,5.005896 1.33226,1.231182 3.48545,1.197315 4.72736,-0.153996 1.15296,-1.254527 1.11883,-3.277114 -0.15709,-4.439522 -1.17677,-1.072076 -3.0681,-1.036895 -4.15065,0.16123 -0.9906,1.096362 -0.95448,2.852636 0.16588,3.852478 1.01545,0.906215 2.63559,0.869131 3.55172,-0.171049 0.82054,-0.931644 0.78297,-2.411518 -0.17674,-3.240629 -0.84665,-0.731433 -2.18587,-0.691877 -2.92591,0.185002 -0.63993,0.758259 -0.59827,1.949156 0.19533,2.595707 0.66758,0.543868 1.70847,0.499757 2.25723,-0.208773 0.44328,-0.572337 0.39596,-1.458261 -0.22841,-1.901176 -0.47262,-0.335273 -1.20265,-0.282031 -1.52601,0.262 -0.10897,0.183316 -0.14406,0.402926 -0.0997,0.613916 0.0443,0.210989 0.19261,0.42367 0.43615,0.502811 0.17905,0.05818 0.33569,0.01569 0.47439,-0.0863 0.0693,-0.051 0.14041,-0.132073 0.15606,-0.248564 0.0157,-0.11649 -0.0407,-0.235605 -0.11989,-0.314709 l -0.29972,0.30024 c -0.003,-0.0093 -0.009,-0.02533 -0.006,-0.04289 0.005,-0.03512 0.022,-0.04494 0.015,-0.03979 -0.014,0.0103 -0.0988,0.01988 -0.0868,0.02377 -0.0889,-0.02889 -0.12782,-0.08525 -0.14832,-0.182935 -0.0205,-0.09768 0.001,-0.226153 0.0491,-0.306958 0.18035,-0.303409 0.62261,-0.333009 0.90847,-0.130225 0.4085,0.289784 0.43997,0.896526 0.13694,1.287777 -0.39115,0.505031 -1.15723,0.537551 -1.64641,0.13901 -0.59724,-0.486562 -0.62889,-1.405281 -0.13798,-1.986959 0.57839,-0.685342 1.64448,-0.716755 2.31562,-0.136943 0.77143,0.666447 0.8027,1.876352 0.13591,2.633431 -0.75258,0.854473 -2.10256,0.885285 -2.944,0.134359 -0.93647,-0.835741 -0.96726,-2.321808 -0.13333,-3.244763 0.91787,-1.015862 2.54028,-1.046686 3.54397,-0.132292 1.0948,0.997407 1.12452,2.749932 0.13023,3.831808 -1.07649,1.171319 -2.95984,1.201009 -4.11965,0.129191 -1.24783,-1.153158 -1.27736,-3.163355 -0.12816,-4.398698 1.2298,-1.321983 3.36673,-1.349868 4.67775,-0.125574 1.39649,1.304105 1.42465,3.56316 0.12506,4.947502 -1.37874,1.46864 -3.7617,1.496631 -5.21983,0.124023 -1.54143,-1.451026 -1.57016,-3.953821 -0.12403,-5.483386 1.52393,-1.611864 4.14829,-1.639818 5.75004,-0.122473 1.68318,1.594494 1.71127,4.33585 0.12195,6.007385 -1.42043,1.493907 -3.70701,1.729439 -5.43067,0.73949 l -1.61747,-1.617473 c -0.99571,-1.730376 -0.7706,-4.023544 0.66042,-5.521626 0.90254,-0.944831 2.12632,-1.424186 3.35949,-1.44229 z m -4.96249,6.629053 0.60461,0.604614 c 0.22234,0.374127 0.49236,0.726165 0.82114,1.039213 0.26782,0.255012 0.56118,0.469324 0.86972,0.65164 l 0.60874,0.608749 c -0.6131,-0.237932 -1.18764,-0.59324 -1.6831,-1.068669 -0.55174,-0.529443 -0.956,-1.159291 -1.22111,-1.835547 z m 9.3679,0.45992 c -0.21942,0.453885 -0.50818,0.880222 -0.87075,1.258321 -0.41311,0.430808 -0.89105,0.76518 -1.40301,1.015442 z m -2.80396,2.196249 -0.43305,0.433048 c -0.77389,0.200008 -1.58754,0.221129 -2.37195,0.06201 l -0.38395,-0.383956 c 1.04301,0.313198 2.17178,0.277045 3.18895,-0.111104 z m -0.97772,0.977718 -0.67231,0.67231 -0.64441,-0.644405 c 0.43866,0.04183 0.88044,0.03156 1.31672,-0.02791 z"
       inkscape:export-filename="magic.png"
       inkscape:export-xdpi="96"
       inkscape:export-ydpi="96" />
  </g>
</svg>
